{"glyphs":{"0":{"ha":956,"x_min":82,"x_max":874,"o":"m 298 754 q 269 704 298 754 q 240 492 240 654 q 298 229 240 329 q 478 129 356 129 q 656 228 600 129 q 713 492 713 328 q 656 755 713 656 q 478 854 600 854 q 298 754 356 854 m 181 126 q 131 194 181 126 q 82 492 82 263 q 181 858 82 721 q 478 994 279 994 q 775 858 676 994 q 874 492 874 721 q 775 126 874 263 q 478 -11 676 -11 q 181 126 279 -11 z "},"1":{"ha":529,"x_min":40,"x_max":393,"o":"m 40 971 l 393 971 l 393 0 l 238 0 l 238 825 l 40 825 l 40 971 z "},"2":{"ha":818,"x_min":69,"x_max":744,"o":"m 375 435 q 515 592 474 535 q 557 707 557 649 q 513 806 557 765 q 400 847 468 847 q 201 725 281 847 l 69 801 q 210 946 133 897 q 409 994 288 994 q 622 917 531 994 q 714 707 714 840 q 675 564 714 632 q 532 389 636 496 l 304 157 l 744 157 l 744 0 l 81 0 l 81 139 l 375 435 z "},"3":{"ha":803,"x_min":54,"x_max":724,"o":"m 107 825 l 107 971 l 675 971 l 675 843 l 440 581 q 649 497 574 576 q 724 306 724 417 q 623 72 724 157 q 364 -12 522 -12 q 54 89 206 -12 l 124 221 q 374 138 243 138 q 513 177 458 138 q 568 291 568 217 q 507 410 568 365 q 338 454 446 454 q 233 439 283 454 l 233 564 l 458 825 l 107 825 z "},"4":{"ha":794,"x_min":51,"x_max":740,"o":"m 468 393 l 468 571 l 624 571 l 624 393 l 740 393 l 740 244 l 624 244 l 624 0 l 468 0 l 468 244 l 51 244 l 51 389 l 408 971 l 588 971 l 236 393 l 468 393 z "},"5":{"ha":804,"x_min":69,"x_max":738,"o":"m 675 972 l 675 824 l 265 824 l 265 585 q 404 618 326 618 q 639 536 540 618 q 738 314 738 454 q 635 81 738 174 q 382 -11 532 -11 q 69 119 186 -11 l 157 239 q 187 213 168 228 q 264 172 206 197 q 392 146 322 146 q 518 188 461 146 q 575 309 575 229 q 515 433 575 389 q 362 476 454 476 q 186 431 269 476 l 117 506 l 117 972 l 675 972 z "},"6":{"ha":861,"x_min":83,"x_max":790,"o":"m 492 842 q 301 754 363 842 q 239 518 240 667 q 339 591 274 557 q 483 625 404 625 q 702 538 614 625 q 790 308 790 451 q 695 76 790 164 q 456 -11 600 -11 q 133 197 222 -11 q 83 467 83 317 q 115 717 83 617 q 203 875 147 817 q 469 989 311 989 q 754 890 626 989 l 672 769 q 587 819 640 797 q 492 842 533 842 m 462 481 q 420 481 462 481 q 322 434 378 481 q 265 313 265 388 q 319 185 265 239 q 456 132 374 132 q 592 180 538 132 q 646 302 646 228 q 596 428 646 376 q 462 481 546 481 z "},"7":{"ha":786,"x_min":64,"x_max":747,"o":"m 64 692 l 64 971 l 747 971 l 747 825 l 336 0 l 156 0 l 557 822 l 213 822 l 213 692 l 64 692 z "},"8":{"ha":883,"x_min":79,"x_max":804,"o":"m 208 917 q 255 953 208 917 q 442 990 301 990 q 675 917 582 990 q 768 731 768 843 q 664 533 768 619 q 804 283 804 444 q 704 74 804 158 q 442 -11 604 -11 q 179 74 279 -11 q 79 283 79 158 q 219 533 79 444 q 115 731 115 619 q 208 917 115 843 m 306 172 q 338 151 306 172 q 442 131 369 131 q 578 172 514 131 q 642 289 642 213 q 581 407 642 365 q 442 449 519 449 q 303 407 364 449 q 242 289 242 365 q 306 172 242 213 m 319 613 q 345 592 319 613 q 442 571 371 571 q 565 613 513 571 q 617 717 617 656 q 565 821 617 779 q 442 863 513 863 q 319 821 371 863 q 267 717 267 779 q 319 613 267 656 z "},"9":{"ha":860,"x_min":71,"x_max":778,"o":"m 369 136 q 560 224 499 136 q 622 460 621 311 q 522 387 588 421 q 378 353 457 353 q 159 440 247 353 q 71 670 71 526 q 166 901 71 814 q 406 989 261 989 q 728 781 639 989 q 778 511 778 661 q 746 261 778 361 q 658 103 714 161 q 392 -11 550 -11 q 107 88 235 -11 l 189 208 q 274 158 221 181 q 369 136 328 136 m 399 497 q 441 497 399 497 q 540 544 483 497 q 596 665 596 590 q 542 792 596 739 q 406 846 488 846 q 272 798 325 846 q 219 675 219 750 q 267 549 219 600 q 399 497 315 497 z "}," ":{"ha":347,"x_min":0,"x_max":0,"o":""},"က":{"ha":1722,"x_min":69,"x_max":1653,"o":"m 931 451 l 931 181 q 757 0 931 0 l 608 0 l 608 181 l 688 181 q 792 271 792 181 l 792 451 q 688 542 792 542 l 313 542 q 208 451 208 542 l 208 271 q 313 181 208 181 l 393 181 l 393 0 l 243 0 q 69 181 69 0 l 69 542 q 243 722 69 722 l 757 722 q 861 697 821 722 q 965 722 901 722 l 1479 722 q 1653 542 1653 722 l 1653 181 q 1479 0 1653 0 l 1153 0 l 1153 181 l 1410 181 q 1514 271 1514 181 l 1514 451 q 1410 542 1514 542 l 1035 542 q 931 451 931 542 z "},"ခ":{"ha":1000,"x_min":69,"x_max":931,"o":"m 682 181 l 688 181 q 792 271 792 181 l 792 451 q 688 542 792 542 l 313 542 q 208 451 208 542 l 69 451 l 69 542 q 243 722 69 722 l 757 722 q 931 542 931 722 l 931 181 q 757 0 931 0 l 243 0 q 69 181 69 0 l 69 271 q 102 323 69 306 q 214 340 135 340 q 682 181 501 340 m 208 271 q 313 181 208 181 l 565 181 q 214 271 436 271 l 208 271 z "},"ဂ":{"ha":1000,"x_min":69,"x_max":931,"o":"m 608 0 l 608 181 l 688 181 q 792 271 792 181 l 792 451 q 688 542 792 542 l 313 542 q 208 451 208 542 l 208 271 q 313 181 208 181 l 393 181 l 393 0 l 243 0 q 69 181 69 0 l 69 542 q 243 722 69 722 l 757 722 q 931 542 931 722 l 931 181 q 757 0 931 0 l 608 0 z "},"ဃ":{"ha":1722,"x_min":69,"x_max":1653,"o":"m 393 472 q 208 313 208 389 l 208 271 q 313 181 208 181 l 688 181 q 792 271 792 181 l 792 451 q 688 542 792 542 l 608 542 l 608 722 l 757 722 q 931 542 931 722 l 931 271 q 1035 181 931 181 l 1410 181 q 1514 271 1514 181 l 1514 451 q 1410 542 1514 542 l 1153 542 l 1153 722 l 1479 722 q 1653 542 1653 722 l 1653 181 q 1479 0 1653 0 l 965 0 q 861 25 901 0 q 757 0 821 0 l 243 0 q 69 181 69 0 l 69 333 q 235 542 69 438 l 69 542 l 69 722 l 393 722 l 393 472 z "},"င":{"ha":1000,"x_min":69,"x_max":931,"o":"m 313 542 q 208 451 208 542 l 208 271 q 313 181 208 181 l 688 181 q 792 271 792 181 l 931 271 l 931 181 q 757 0 931 0 l 243 0 q 69 181 69 0 l 69 542 q 243 722 69 722 l 757 722 q 931 542 931 722 l 931 451 l 792 451 q 688 542 792 542 l 313 542 z "},"စ":{"ha":1000,"x_min":69,"x_max":931,"o":"m 332 542 l 313 542 q 208 451 208 542 l 208 271 q 313 181 208 181 l 332 181 q 375 361 375 249 q 332 542 375 474 m 414 181 l 688 181 q 792 271 792 181 l 792 451 q 688 542 792 542 l 414 542 q 444 361 444 467 q 414 181 444 256 m 757 722 q 931 542 931 722 l 931 181 q 757 0 931 0 l 243 0 q 69 181 69 0 l 69 542 q 243 722 69 722 l 757 722 z "},"ဆ":{"ha":1722,"x_min":69,"x_max":1653,"o":"m 208 271 q 313 181 208 181 l 565 181 q 214 271 436 271 l 208 271 m 931 451 l 931 271 q 1035 181 931 181 l 1410 181 q 1514 271 1514 181 l 1514 451 q 1410 542 1514 542 l 1035 542 q 931 451 931 542 m 861 25 q 757 0 821 0 l 243 0 q 69 181 69 0 l 69 271 q 102 323 69 306 q 214 340 135 340 q 682 181 501 340 l 688 181 q 792 271 792 181 l 792 451 q 688 542 792 542 l 313 542 q 208 451 208 542 l 69 451 l 69 542 q 243 722 69 722 l 757 722 q 861 697 821 722 q 965 722 901 722 l 1479 722 q 1653 542 1653 722 l 1653 181 q 1479 0 1653 0 l 965 0 q 861 25 901 0 z "},"ဇ":{"ha":1000,"x_min":69,"x_max":1069,"o":"m 575 503 q 682 419 575 419 q 789 503 789 419 q 682 586 789 586 q 575 503 575 586 m 890 451 q 1069 363 924 378 l 1058 293 q 826 388 892 310 q 682 350 779 350 q 486 503 486 350 q 490 542 486 524 l 313 542 q 208 451 208 542 l 208 271 q 313 181 208 181 l 688 181 q 792 271 792 181 l 931 271 l 931 181 q 757 0 931 0 l 243 0 q 69 181 69 0 l 69 542 q 243 722 69 722 l 757 722 q 931 542 931 722 l 931 451 l 890 451 z "},"ဈ":{"ha":1278,"x_min":69,"x_max":1208,"o":"m 332 542 l 313 542 q 208 451 208 542 l 208 271 q 313 181 208 181 l 332 181 q 375 361 375 249 q 332 542 375 474 m 414 181 l 688 181 q 792 271 792 181 l 792 451 q 688 542 792 542 l 414 542 q 444 361 444 467 q 414 181 444 256 m 556 0 l 243 0 q 69 181 69 0 l 69 542 q 243 722 69 722 l 757 722 q 931 542 931 722 l 931 181 q 757 0 931 0 l 694 0 l 694 -243 q 799 -333 694 -333 l 965 -333 q 1069 -243 1069 -333 l 1069 722 l 1208 722 l 1208 -333 q 1035 -514 1208 -514 l 729 -514 q 556 -333 556 -514 l 556 0 z "},"ဉ":{"ha":1000,"x_min":69,"x_max":1208,"o":"m 69 271 l 208 271 q 313 181 208 181 l 688 181 q 792 271 792 181 l 792 451 q 688 542 792 542 l 313 542 q 208 451 208 542 l 69 451 l 69 542 q 243 722 69 722 l 757 722 q 931 542 931 722 l 931 181 q 757 0 931 0 l 243 0 q 208 1 225 0 l 208 -243 q 313 -333 208 -333 l 965 -333 q 1069 -243 1069 -333 l 1069 -28 l 1208 -28 l 1208 -333 q 1035 -514 1208 -514 l 243 -514 q 69 -333 69 -514 l 69 271 z "},"ည":{"ha":1722,"x_min":69,"x_max":1653,"o":"m 931 271 q 1035 181 931 181 l 1410 181 q 1514 271 1514 181 l 1514 451 q 1410 542 1514 542 l 1153 542 l 1153 722 l 1479 722 q 1653 542 1653 722 l 1653 181 q 1479 0 1653 0 l 965 0 q 861 25 901 0 q 757 0 821 0 l 243 0 q 208 1 225 0 l 208 -243 q 313 -333 208 -333 l 1410 -333 q 1514 -243 1514 -333 l 1514 -28 l 1653 -28 l 1653 -333 q 1479 -514 1653 -514 l 243 -514 q 69 -333 69 -514 l 69 271 l 208 271 q 313 181 208 181 l 688 181 q 792 271 792 181 l 792 451 q 688 542 792 542 l 313 542 q 208 451 208 542 l 69 451 l 69 542 q 243 722 69 722 l 757 722 q 931 542 931 722 l 931 271 z "},"ဋ":{"ha":1000,"x_min":69,"x_max":1056,"o":"m 758 0 l 243 0 q 69 181 69 0 l 69 542 q 243 722 69 722 l 757 722 q 931 542 931 722 l 931 451 l 792 451 q 688 542 792 542 l 313 542 q 208 451 208 542 l 208 271 q 313 181 208 181 l 688 181 q 792 271 792 181 l 931 271 l 931 11 q 586 -204 931 -204 l 414 -204 q 208 -192 313 -204 l 208 -264 q 414 -312 208 -312 l 586 -312 q 792 -264 792 -312 l 931 -264 l 931 -419 l 1056 -419 l 1056 -528 l 792 -528 l 792 -407 q 586 -419 688 -419 l 414 -419 q 69 -264 69 -419 l 69 -49 l 208 -49 q 414 -97 208 -97 l 586 -97 q 758 0 749 -97 z "},"ဌ":{"ha":1000,"x_min":69,"x_max":931,"o":"m 792 1 q 757 0 775 0 l 243 0 q 69 181 69 0 l 69 542 q 243 722 69 722 l 757 722 q 931 542 931 722 l 931 451 l 792 451 q 688 542 792 542 l 313 542 q 208 451 208 542 l 208 271 q 313 181 208 181 l 688 181 q 792 271 792 181 l 931 271 l 931 -333 q 757 -514 931 -514 l 243 -514 q 69 -333 69 -514 l 69 -235 q 243 -82 69 -82 l 465 -82 l 465 -193 l 313 -193 q 208 -262 208 -193 q 313 -333 208 -333 l 688 -333 q 792 -243 792 -333 l 792 1 z "},"ဍ":{"ha":1000,"x_min":69,"x_max":1056,"o":"m 69 271 l 208 271 q 313 181 208 181 l 688 181 q 792 271 792 181 l 792 451 q 688 542 792 542 l 313 542 q 208 451 208 542 l 69 451 l 69 542 q 243 722 69 722 l 757 722 q 931 542 931 722 l 931 181 q 757 0 931 0 l 243 0 q 208 1 225 0 l 208 -40 q 344 -111 208 -111 l 656 -111 q 931 -40 861 -111 l 931 -347 l 1056 -347 l 1056 -514 l 792 -514 l 792 -260 q 656 -278 688 -278 l 344 -278 q 69 -40 69 -278 l 69 271 z "},"ဎ":{"ha":1000,"x_min":69,"x_max":931,"o":"m 757 722 q 931 542 931 722 l 931 181 q 757 0 931 0 l 243 0 q 69 181 69 0 l 69 333 q 235 542 69 438 l 69 542 l 69 722 l 393 722 l 393 472 q 208 313 208 389 l 208 271 q 313 181 208 181 l 688 181 q 792 271 792 181 l 792 451 q 688 542 792 542 l 608 542 l 608 722 l 757 722 z "},"ဏ":{"ha":1722,"x_min":69,"x_max":1653,"o":"m 922 79 q 903 181 903 119 l 903 542 q 921 640 903 600 q 861 653 897 653 q 801 640 825 653 q 819 542 819 600 l 819 181 q 800 79 819 119 l 922 79 m 969 696 q 1076 722 1011 722 l 1479 722 q 1653 542 1653 722 l 1653 181 q 1479 0 1653 0 l 1329 0 l 1329 181 l 1410 181 q 1514 271 1514 181 l 1514 451 q 1410 542 1514 542 l 1146 542 q 1042 451 1042 542 l 1042 271 q 1146 181 1042 181 l 1076 0 l 646 0 l 576 181 q 681 271 681 181 l 681 451 q 576 542 681 542 l 313 542 q 208 451 208 542 l 208 271 q 313 181 208 181 l 393 181 l 393 0 l 243 0 q 69 181 69 0 l 69 542 q 243 722 69 722 l 646 722 q 753 696 711 722 q 861 722 793 722 q 969 696 929 722 z "},"တ":{"ha":1722,"x_min":69,"x_max":1653,"o":"m 313 542 q 208 451 208 542 l 208 271 q 313 181 208 181 l 688 181 q 792 271 792 181 l 792 451 q 688 542 792 542 l 313 542 m 931 451 l 931 181 q 757 0 931 0 l 243 0 q 69 181 69 0 l 69 542 q 243 722 69 722 l 757 722 q 861 697 821 722 q 965 722 901 722 l 1479 722 q 1653 542 1653 722 l 1653 181 q 1479 0 1653 0 l 1153 0 l 1153 181 l 1410 181 q 1514 271 1514 181 l 1514 451 q 1410 542 1514 542 l 1035 542 q 931 451 931 542 z "},"ထ":{"ha":1722,"x_min":69,"x_max":1653,"o":"m 792 271 l 792 451 q 688 542 792 542 l 313 542 q 208 451 208 542 l 208 271 q 313 181 208 181 l 688 181 q 792 271 792 181 m 931 271 q 1035 181 931 181 l 1410 181 q 1514 271 1514 181 l 1514 451 q 1410 542 1514 542 l 1035 542 q 931 451 931 542 l 931 271 m 861 697 q 965 722 901 722 l 1479 722 q 1653 542 1653 722 l 1653 181 q 1479 0 1653 0 l 965 0 q 861 25 901 0 q 757 0 821 0 l 243 0 q 69 181 69 0 l 69 542 q 243 722 69 722 l 757 722 q 861 697 821 722 z "},"ဒ":{"ha":1000,"x_min":69,"x_max":931,"o":"m 313 542 q 208 451 208 542 l 69 451 l 69 542 q 243 722 69 722 l 757 722 q 931 542 931 722 q 681 361 931 451 q 931 181 931 271 q 757 0 931 0 l 243 0 q 69 181 69 0 l 69 271 l 208 271 q 313 181 208 181 l 688 181 q 715 190 715 181 q 514 317 715 218 l 514 407 q 715 532 715 506 q 688 542 715 542 l 313 542 z "},"ဓ":{"ha":1000,"x_min":69,"x_max":931,"o":"m 218 224 q 313 181 240 181 l 688 181 q 782 224 760 181 q 500 292 686 292 q 218 224 314 292 m 792 310 l 792 451 q 688 542 792 542 l 313 542 q 208 451 208 542 l 208 310 q 500 361 321 361 q 792 310 679 361 m 757 722 q 931 542 931 722 l 931 181 q 757 0 931 0 l 243 0 q 69 181 69 0 l 69 542 q 243 722 69 722 l 757 722 z "},"န":{"ha":1000,"x_min":69,"x_max":931,"o":"m 465 181 q 249 278 403 278 q 208 229 208 278 q 313 181 208 181 l 465 181 m 578 0 l 578 -514 l 439 -514 l 439 0 l 243 0 q 69 181 69 0 q 249 347 69 347 q 547 181 476 347 l 688 181 q 792 229 792 181 q 493 351 792 290 q 208 542 208 406 q 382 722 208 722 l 618 722 q 792 542 792 722 l 653 451 q 549 542 653 542 l 451 542 q 347 493 347 542 q 507 419 347 451 q 931 181 931 333 q 757 0 931 0 l 578 0 z "},"ပ":{"ha":1000,"x_min":69,"x_max":931,"o":"m 757 722 q 931 542 931 722 l 931 181 q 757 0 931 0 l 243 0 q 69 181 69 0 l 69 542 q 243 722 69 722 l 393 722 l 393 542 l 313 542 q 208 451 208 542 l 208 271 q 313 181 208 181 l 688 181 q 792 271 792 181 l 792 451 q 688 542 792 542 l 608 542 l 608 722 l 757 722 z "},"ဖ":{"ha":1000,"x_min":69,"x_max":931,"o":"m 728 185 q 792 271 792 200 l 792 451 q 688 542 792 542 l 608 542 q 728 185 608 322 m 644 181 q 539 542 539 339 q 556 692 539 661 q 608 722 574 722 l 757 722 q 931 542 931 722 l 931 181 q 757 0 931 0 l 243 0 q 69 181 69 0 l 69 542 q 243 722 69 722 l 393 722 l 393 542 l 313 542 q 208 451 208 542 l 208 271 q 313 181 208 181 l 644 181 z "},"ဗ":{"ha":1000,"x_min":69,"x_max":931,"o":"m 322 542 l 313 542 q 208 451 208 542 l 208 271 q 313 181 208 181 l 688 181 q 792 271 792 181 l 792 451 q 688 542 792 542 l 678 542 q 500 435 644 435 q 322 542 356 435 m 393 560 q 500 504 418 504 q 608 563 585 504 l 608 722 l 757 722 q 931 542 931 722 l 931 181 q 757 0 931 0 l 243 0 q 69 181 69 0 l 69 542 q 243 722 69 722 l 393 722 l 393 560 z "},"ဘ":{"ha":1722,"x_min":69,"x_max":1653,"o":"m 931 451 l 931 181 q 757 0 931 0 l 243 0 q 69 181 69 0 l 69 271 l 208 271 q 313 181 208 181 l 688 181 q 792 271 792 181 l 792 451 q 688 542 792 542 l 313 542 q 208 451 208 542 l 69 451 l 69 542 q 243 722 69 722 l 757 722 q 861 697 821 722 q 965 722 901 722 l 1479 722 q 1653 542 1653 722 l 1653 181 q 1479 0 1653 0 l 1153 0 l 1153 181 l 1410 181 q 1514 271 1514 181 l 1514 451 q 1410 542 1514 542 l 1035 542 q 931 451 931 542 z "},"မ":{"ha":1000,"x_min":69,"x_max":931,"o":"m 792 310 l 792 451 q 688 542 792 542 l 608 542 l 608 722 l 757 722 q 931 542 931 722 l 931 181 q 757 0 931 0 l 243 0 q 69 181 69 0 l 69 542 q 243 722 69 722 l 393 722 l 393 542 l 313 542 q 208 451 208 542 l 208 310 q 500 361 321 361 q 792 310 679 361 m 218 224 q 313 181 240 181 l 688 181 q 782 224 760 181 q 500 292 686 292 q 218 224 314 292 z "},"ယ":{"ha":1722,"x_min":69,"x_max":1653,"o":"m 931 271 q 1035 181 931 181 l 1410 181 q 1514 271 1514 181 l 1514 451 q 1410 542 1514 542 l 1153 542 l 1153 722 l 1479 722 q 1653 542 1653 722 l 1653 181 q 1479 0 1653 0 l 965 0 q 861 25 901 0 q 757 0 821 0 l 243 0 q 69 181 69 0 l 69 542 q 243 722 69 722 l 393 722 l 393 542 l 313 542 q 208 451 208 542 l 208 271 q 313 181 208 181 l 688 181 q 792 271 792 181 l 792 451 q 688 542 792 542 l 608 542 l 608 722 l 757 722 q 931 542 931 722 l 931 271 z "},"ရ":{"ha":1000,"x_min":69,"x_max":1115,"o":"m 313 181 l 382 181 q 486 229 486 181 q 446 278 486 278 q 242 197 306 278 q 313 181 267 181 m 792 451 q 688 542 792 542 l 313 542 q 208 451 208 542 l 208 269 q 446 347 290 347 q 625 181 625 347 q 451 0 625 0 l 243 0 q 69 181 69 0 l 69 542 q 243 722 69 722 l 757 722 q 931 542 931 722 l 931 -243 q 1035 -333 931 -333 l 1115 -333 l 1115 -514 l 965 -514 q 792 -333 792 -514 l 792 451 z "},"လ":{"ha":1722,"x_min":69,"x_max":1653,"o":"m 313 542 q 208 451 208 542 l 208 271 q 313 181 208 181 l 569 181 l 569 0 l 243 0 q 69 181 69 0 l 69 542 q 243 722 69 722 l 757 722 q 931 542 931 722 l 931 271 q 1035 181 931 181 l 1410 181 q 1514 271 1514 181 l 1514 451 q 1410 542 1514 542 l 1153 542 l 1153 722 l 1479 722 q 1653 542 1653 722 l 1653 181 q 1479 0 1653 0 l 965 0 q 792 181 792 0 l 792 451 q 688 542 792 542 l 313 542 z "},"ဝ":{"ha":1000,"x_min":69,"x_max":931,"o":"m 313 542 q 208 451 208 542 l 208 271 q 313 181 208 181 l 688 181 q 792 271 792 181 l 792 451 q 688 542 792 542 l 313 542 m 757 722 q 931 542 931 722 l 931 181 q 757 0 931 0 l 243 0 q 69 181 69 0 l 69 542 q 243 722 69 722 l 757 722 z "},"သ":{"ha":1722,"x_min":69,"x_max":1653,"o":"m 861 25 q 757 0 821 0 l 243 0 q 69 181 69 0 l 69 271 l 208 271 q 313 181 208 181 l 688 181 q 792 271 792 181 l 792 451 q 688 542 792 542 l 313 542 q 208 451 208 542 l 69 451 l 69 542 q 243 722 69 722 l 757 722 q 931 542 931 722 l 931 271 q 1035 181 931 181 l 1410 181 q 1514 271 1514 181 l 1514 451 q 1410 542 1514 542 l 1153 542 l 1153 722 l 1479 722 q 1653 542 1653 722 l 1653 181 q 1479 0 1653 0 l 965 0 q 861 25 901 0 z "},"ဟ":{"ha":1722,"x_min":69,"x_max":1653,"o":"m 931 451 l 931 181 q 757 0 931 0 l 243 0 q 69 181 69 0 l 69 542 q 243 722 69 722 l 393 722 l 393 542 l 313 542 q 208 451 208 542 l 208 271 q 313 181 208 181 l 688 181 q 792 271 792 181 l 792 451 q 688 542 792 542 l 608 542 l 608 722 l 757 722 q 861 697 821 722 q 965 722 901 722 l 1479 722 q 1653 542 1653 722 l 1653 181 q 1479 0 1653 0 l 1153 0 l 1153 181 l 1410 181 q 1514 271 1514 181 l 1514 451 q 1410 542 1514 542 l 1035 542 q 931 451 931 542 z "},"ဠ":{"ha":1000,"x_min":69,"x_max":931,"o":"m 69 -40 q 344 -111 139 -111 l 656 -111 q 792 -40 792 -111 l 792 1 q 757 0 775 0 l 243 0 q 69 181 69 0 l 69 542 q 243 722 69 722 l 757 722 q 931 542 931 722 l 931 451 l 792 451 q 688 542 792 542 l 313 542 q 208 451 208 542 l 208 271 q 313 181 208 181 l 688 181 q 792 271 792 181 l 931 271 l 931 -40 q 656 -236 931 -236 l 344 -236 q 208 -218 313 -236 l 208 -243 q 313 -333 208 -333 l 688 -333 q 792 -243 792 -333 l 931 -243 l 931 -333 q 757 -514 931 -514 l 243 -514 q 69 -333 69 -514 l 69 -40 z "},"အ":{"ha":1722,"x_min":69,"x_max":1653,"o":"m 1481 197 q 1276 278 1417 278 q 1236 229 1236 278 q 1340 181 1236 181 l 1410 181 q 1481 197 1456 181 m 861 697 q 965 722 901 722 l 1479 722 q 1653 542 1653 722 l 1653 181 q 1479 0 1653 0 l 1271 0 q 1097 181 1097 0 q 1276 347 1097 347 q 1514 269 1432 347 l 1514 451 q 1410 542 1514 542 l 1035 542 q 922 510 972 542 q 681 361 886 435 q 931 181 931 271 q 757 0 931 0 l 243 0 q 69 181 69 0 l 69 271 l 208 271 q 313 181 208 181 l 688 181 q 715 190 715 181 q 514 317 715 218 l 514 407 q 715 532 715 506 q 688 542 715 542 l 313 542 q 208 451 208 542 l 69 451 l 69 542 q 243 722 69 722 l 757 722 q 861 697 821 722 z "},"ဢ":{"ha":1722,"x_min":69,"x_max":1653,"o":"m 393 0 l 69 0 l 69 181 l 235 181 q 69 389 69 285 l 69 542 q 243 722 69 722 l 757 722 q 861 697 821 722 q 965 722 901 722 l 1479 722 q 1653 542 1653 722 l 1653 181 q 1479 0 1653 0 l 1153 0 l 1153 181 l 1410 181 q 1514 271 1514 181 l 1514 451 q 1410 542 1514 542 l 1035 542 q 931 451 931 542 l 931 181 q 757 0 931 0 l 608 0 l 608 181 l 688 181 q 792 271 792 181 l 792 451 q 688 542 792 542 l 313 542 q 208 451 208 542 l 208 410 q 393 250 208 333 l 393 0 z "},"ဣ":{"ha":1722,"x_min":69,"x_max":1653,"o":"m 931 451 l 931 181 q 757 0 931 0 l 608 0 l 608 181 l 688 181 q 792 271 792 181 l 792 451 q 688 542 792 542 l 313 542 q 208 451 208 542 l 208 271 q 313 181 208 181 l 393 181 l 393 0 l 243 0 q 69 181 69 0 l 69 542 q 243 722 69 722 l 757 722 q 861 697 821 722 q 965 722 901 722 l 1479 722 q 1653 542 1653 722 l 1653 181 q 1479 0 1653 0 l 1153 0 l 1153 181 l 1410 181 q 1514 271 1514 181 l 1514 451 q 1410 542 1514 542 l 1035 542 q 931 451 931 542 m 931 -253 l 931 -364 q 757 -514 931 -514 l 688 -514 l 688 -364 q 792 -287 792 -364 l 792 -253 q 688 -178 792 -178 l 521 -178 q 417 -253 417 -178 l 417 -287 q 521 -364 417 -364 l 521 -514 l 451 -514 q 278 -364 278 -514 l 278 -178 q 451 -28 278 -28 l 757 -28 q 861 -49 821 -28 q 965 -28 901 -28 l 1271 -28 q 1444 -178 1444 -28 l 1444 -364 l 1575 -364 l 1575 -514 l 1076 -514 l 1076 -364 l 1201 -364 q 1306 -287 1306 -364 l 1306 -253 q 1201 -178 1306 -178 l 1035 -178 q 931 -253 931 -178 z "},"ဤ":{"ha":2000,"x_min":69,"x_max":1931,"o":"m 931 451 l 931 181 q 757 0 931 0 l 608 0 l 608 181 l 688 181 q 792 271 792 181 l 792 451 q 688 542 792 542 l 313 542 q 208 451 208 542 l 208 271 q 313 181 208 181 l 393 181 l 393 0 l 243 0 q 69 181 69 0 l 69 542 q 243 722 69 722 l 757 722 q 861 697 821 722 q 965 722 901 722 l 1479 722 q 1653 542 1653 722 l 1653 -333 q 1479 -514 1653 -514 l 243 -514 q 69 -333 69 -514 l 69 -235 q 243 -82 69 -82 l 1396 -82 l 1396 -193 l 313 -193 q 208 -262 208 -193 q 313 -333 208 -333 l 1410 -333 q 1514 -243 1514 -333 l 1514 451 q 1410 542 1514 542 l 1035 542 q 931 451 931 542 m 1299 750 q 1125 931 1125 750 l 1125 1056 q 1299 1236 1125 1236 l 1757 1236 q 1931 1056 1931 1236 l 1792 993 q 1688 1069 1792 1069 l 1368 1069 q 1264 993 1264 1069 q 1368 917 1264 917 l 1618 917 q 1931 597 1931 917 l 1931 -514 l 1792 -514 l 1792 535 q 1618 750 1792 750 l 1299 750 z "},"ဥ":{"ha":1000,"x_min":69,"x_max":931,"o":"m 208 -243 q 313 -333 208 -333 l 688 -333 q 792 -262 792 -333 q 688 -193 792 -193 l 535 -193 l 535 -82 l 757 -82 q 931 -235 931 -82 l 931 -333 q 757 -514 931 -514 l 243 -514 q 69 -333 69 -514 l 69 271 l 208 271 q 313 181 208 181 l 688 181 q 792 271 792 181 l 792 451 q 688 542 792 542 l 313 542 q 208 451 208 542 l 69 451 l 69 542 q 243 722 69 722 l 757 722 q 931 542 931 722 l 931 181 q 757 0 931 0 l 243 0 q 208 1 225 0 l 208 -243 z "},"ဦ":{"ha":1000,"x_min":69,"x_max":931,"o":"m 208 -243 q 313 -333 208 -333 l 688 -333 q 792 -262 792 -333 q 688 -193 792 -193 l 535 -193 l 535 -82 l 757 -82 q 931 -235 931 -82 l 931 -333 q 757 -514 931 -514 l 243 -514 q 69 -333 69 -514 l 69 271 l 208 271 q 313 181 208 181 l 688 181 q 792 271 792 181 l 792 451 q 688 542 792 542 l 313 542 q 208 451 208 542 l 69 451 l 69 542 q 243 722 69 722 l 757 722 q 931 542 931 722 l 931 181 q 757 0 931 0 l 243 0 q 208 1 225 0 l 208 -243 m 761 949 q 764 993 764 969 q 660 1069 764 1069 l 340 1069 q 236 993 236 1069 q 239 949 236 969 q 500 988 344 988 q 761 949 656 988 m 267 878 q 340 847 293 847 l 660 847 q 733 878 707 847 q 500 918 643 918 q 267 878 357 918 m 729 1236 q 903 1056 903 1236 l 903 931 q 729 750 903 750 l 271 750 q 97 931 97 750 l 97 1056 q 271 1236 97 1236 l 729 1236 z "},"ဧ":{"ha":1000,"x_min":69,"x_max":931,"o":"m 792 465 q 688 542 792 542 l 435 542 q 786 465 564 465 l 792 465 m 786 257 q 435 181 564 257 l 688 181 q 792 257 792 181 l 786 257 m 69 542 q 243 722 69 722 l 757 722 q 931 542 931 722 l 931 465 q 898 413 931 431 q 786 396 865 396 q 318 542 499 396 l 313 542 q 208 451 208 542 l 208 271 q 313 181 208 181 l 318 181 q 786 326 499 326 q 898 309 865 326 q 931 257 931 292 l 931 181 q 757 0 931 0 l 243 0 q 69 181 69 0 l 69 542 z "},"ဨ":{"ha":1000,"x_min":69,"x_max":931,"o":"m 931 -333 q 757 -514 931 -514 l 243 -514 q 69 -333 69 -514 l 69 542 q 243 722 69 722 l 757 722 q 931 542 931 722 l 931 181 q 757 0 931 0 l 594 0 q 418 179 418 0 l 418 267 q 506 350 506 318 l 394 350 l 394 486 l 521 486 q 631 350 631 486 q 543 232 631 282 q 594 181 543 181 l 688 181 q 792 271 792 181 l 792 451 q 688 542 792 542 l 313 542 q 208 451 208 542 l 208 -243 q 313 -333 208 -333 l 688 -333 q 792 -243 792 -333 l 792 -83 l 931 -83 l 931 -333 z "},"ဩ":{"ha":2000,"x_min":69,"x_max":1931,"o":"m 1417 0 l 1243 0 q 1139 25 1179 0 q 1035 0 1099 0 l 521 0 q 347 181 347 0 l 347 271 l 486 271 q 590 181 486 181 l 965 181 q 1069 271 1069 181 l 1069 451 q 965 542 1069 542 l 590 542 q 486 451 486 542 l 347 451 l 347 542 q 521 722 347 722 l 1035 722 q 1208 542 1208 722 l 1208 271 q 1313 181 1208 181 l 1688 181 q 1792 271 1792 181 l 1792 451 q 1688 542 1792 542 l 1431 542 l 1431 722 l 1757 722 q 1931 542 1931 722 l 1931 181 q 1757 0 1931 0 l 1556 0 l 1556 -333 q 1382 -514 1556 -514 l 243 -514 q 69 -333 69 -514 l 69 1056 q 243 1236 69 1236 l 1535 1236 l 1535 1056 l 313 1056 q 208 965 208 1056 l 208 -243 q 313 -333 208 -333 l 1313 -333 q 1417 -243 1417 -333 l 1417 0 z "},"ဪ":{"ha":3722,"x_min":69,"x_max":3653,"o":"m 318 181 q 786 340 499 340 q 898 323 865 340 q 931 271 931 306 l 931 181 q 757 0 931 0 l 243 0 q 69 181 69 0 l 69 542 q 243 722 69 722 l 757 722 q 931 542 931 722 l 931 451 l 792 451 q 688 542 792 542 l 313 542 q 208 451 208 542 l 208 271 q 313 181 208 181 l 318 181 m 786 271 q 435 181 564 271 l 688 181 q 792 271 792 181 l 786 271 m 2931 451 l 2931 181 q 2757 0 2931 0 l 2556 0 l 2556 -333 q 2382 -514 2556 -514 l 1243 -514 q 1069 -333 1069 -514 l 1069 1056 q 1243 1236 1069 1236 l 2715 1236 l 2715 1056 l 1313 1056 q 1208 965 1208 1056 l 1208 -243 q 1313 -333 1208 -333 l 2313 -333 q 2417 -243 2417 -333 l 2417 0 l 2243 0 q 2139 25 2179 0 q 2035 0 2099 0 l 1521 0 q 1347 181 1347 0 l 1347 271 l 1486 271 q 1590 181 1486 181 l 1965 181 q 2069 271 2069 181 l 2069 451 q 1965 542 2069 542 l 1590 542 q 1486 451 1486 542 l 1347 451 l 1347 542 q 1521 722 1347 722 l 2035 722 q 2208 542 2208 722 l 2208 271 q 2313 181 2208 181 l 2688 181 q 2792 271 2792 181 l 2792 451 q 2688 542 2792 542 l 2431 542 l 2431 722 l 2757 722 q 2861 697 2821 722 q 2965 722 2901 722 l 3479 722 q 3653 542 3653 722 l 3653 181 q 3479 0 3653 0 l 3153 0 l 3153 181 l 3410 181 q 3514 271 3514 181 l 3514 451 q 3410 542 3514 542 l 3035 542 q 2931 451 2931 542 m 3090 1069 q 2986 993 2986 1069 q 3090 917 2986 917 l 3250 917 l 3250 750 l 3021 750 q 2847 931 2847 750 l 2847 1056 q 3021 1236 2847 1236 l 3479 1236 q 3653 1056 3653 1236 l 3514 993 q 3410 1069 3514 1069 l 3090 1069 z "},"ါ":{"ha":278,"x_min":-444,"x_max":208,"o":"m -444 792 l -444 1056 q -271 1236 -444 1236 l 35 1236 q 208 1056 208 1236 l 208 0 l 69 0 l 69 965 q -35 1056 69 1056 l -201 1056 q -306 965 -306 1056 l -306 792 l -444 792 z "},"ာ":{"ha":722,"x_min":-208,"x_max":653,"o":"m 35 542 q -69 451 -69 542 l -208 542 q -35 722 -208 722 l 479 722 q 653 542 653 722 l 653 181 q 479 0 653 0 l 153 0 l 153 181 l 410 181 q 514 271 514 181 l 514 451 q 410 542 514 542 l 35 542 z "},"ိ":{"ha":0,"x_min":-903,"x_max":-97,"o":"m -660 1069 q -764 993 -764 1069 q -660 917 -764 917 l -340 917 q -236 993 -236 917 q -340 1069 -236 1069 l -660 1069 m -271 1236 q -97 1056 -97 1236 l -97 931 q -271 750 -97 750 l -729 750 q -903 931 -903 750 l -903 1056 q -729 1236 -903 1236 l -271 1236 z "},"ီ":{"ha":0,"x_min":-903,"x_max":-97,"o":"m -239 949 q -236 993 -236 969 q -340 1069 -236 1069 l -660 1069 q -764 993 -764 1069 q -761 949 -764 969 q -500 988 -656 988 q -239 949 -344 988 m -733 878 q -660 847 -707 847 l -340 847 q -267 878 -293 847 q -500 918 -357 918 q -733 878 -643 918 m -271 1236 q -97 1056 -97 1236 l -97 931 q -271 750 -97 750 l -729 750 q -903 931 -903 750 l -903 1056 q -729 1236 -903 1236 l -271 1236 z "},"ု":{"ha":0,"x_min":-417,"x_max":-139,"o":"m -278 -243 q -174 -333 -278 -333 l -139 -333 l -139 -514 l -243 -514 q -417 -333 -417 -514 l -417 -28 l -278 -28 l -278 -243 z "},"ူ":{"ha":0,"x_min":-625,"x_max":-139,"o":"m -278 -243 q -174 -333 -278 -333 l -139 -333 l -139 -514 l -243 -514 q -417 -333 -417 -514 l -417 -28 l -278 -28 l -278 -243 m -625 -28 l -486 -28 l -486 -514 l -625 -514 l -625 -28 z "},"ေ":{"ha":1000,"x_min":69,"x_max":931,"o":"m 318 181 q 786 340 499 340 q 898 323 865 340 q 931 271 931 306 l 931 181 q 757 0 931 0 l 243 0 q 69 181 69 0 l 69 542 q 243 722 69 722 l 757 722 q 931 542 931 722 l 931 451 l 792 451 q 688 542 792 542 l 313 542 q 208 451 208 542 l 208 271 q 313 181 208 181 l 318 181 m 786 271 q 435 181 564 271 l 688 181 q 792 271 792 181 l 786 271 z "},"ဲ":{"ha":0,"x_min":-746,"x_max":-254,"o":"m -746 1143 l -647 1242 l -254 849 l -353 750 l -746 1143 z "},"ဳ":{"ha":0,"x_min":-903,"x_max":-97,"o":"m -500 1025 q -312 956 -312 1025 q -500 886 -312 886 q -687 956 -687 886 q -500 1025 -687 1025 m -660 1069 q -764 993 -764 1069 q -660 847 -764 847 l -340 847 q -236 993 -236 847 q -340 1069 -236 1069 l -660 1069 m -271 1236 q -97 1056 -97 1236 l -97 931 q -271 750 -97 750 l -729 750 q -903 931 -903 750 l -903 1056 q -729 1236 -903 1236 l -271 1236 z "},"ဴ":{"ha":0,"x_min":-746,"x_max":-254,"o":"m -647 750 l -746 849 l -353 1242 l -254 1143 l -647 750 z "},"ဵ":{"ha":0,"x_min":-903,"x_max":-97,"o":"m -733 878 q -660 847 -707 847 l -340 847 q -267 878 -293 847 q -500 918 -357 918 q -733 878 -643 918 m -169 869 q -312 750 -169 750 l -729 750 q -903 931 -903 750 l -903 1056 q -729 1236 -903 1236 l -271 1236 q -97 1056 -97 1236 l -236 993 q -340 1069 -236 1069 l -660 1069 q -764 993 -764 1069 q -761 949 -764 969 q -500 988 -656 988 q -239 949 -344 988 q -169 869 -169 924 z "},"ံ":{"ha":0,"x_min":-639,"x_max":-361,"o":"m -500 1028 q -361 889 -361 1028 q -500 750 -361 750 q -639 889 -639 750 q -500 1028 -639 1028 z "},"့":{"ha":0,"x_min":-639,"x_max":-361,"o":"m -500 -28 q -361 -167 -361 -28 q -500 -306 -361 -306 q -639 -167 -639 -306 q -500 -28 -639 -28 z "},"း":{"ha":417,"x_min":69,"x_max":347,"o":"m 208 306 q 347 167 347 306 q 208 28 347 28 q 69 167 69 28 q 208 306 69 306 m 208 694 q 347 556 347 694 q 208 417 347 417 q 69 556 69 417 q 208 694 69 694 z "},"္":{"ha":0,"x_min":-576,"x_max":-257,"o":"m -451 -222 l -576 -222 l -576 -153 l -451 -153 l -451 -28 l -382 -28 l -382 -153 l -257 -153 l -257 -222 l -382 -222 l -382 -347 l -451 -347 l -451 -222 z "},"်":{"ha":0,"x_min":-903,"x_max":-97,"o":"m -660 1069 q -764 993 -764 1069 q -660 917 -764 917 l -500 917 l -500 750 l -729 750 q -903 931 -903 750 l -903 1056 q -729 1236 -903 1236 l -271 1236 q -97 1056 -97 1236 l -236 993 q -340 1069 -236 1069 l -660 1069 z "},"ျ":{"ha":278,"x_min":-306,"x_max":208,"o":"m -167 -243 q -62 -333 -167 -333 l -35 -333 q 69 -243 69 -333 l 69 722 l 208 722 l 208 -333 q 35 -514 208 -514 l -132 -514 q -306 -333 -306 -514 l -306 -28 l -167 -28 l -167 -243 z "},"ြ":{"ha":278,"x_min":69,"x_max":1208,"o":"m 313 1056 q 208 965 208 1056 l 208 -243 q 313 -333 208 -333 l 965 -333 q 1069 -243 1069 -333 l 1069 0 l 1208 0 l 1208 -333 q 1035 -514 1208 -514 l 243 -514 q 69 -333 69 -514 l 69 1056 q 243 1236 69 1236 l 1035 1236 q 1208 1056 1208 1236 l 1208 764 l 1069 764 l 1069 965 q 965 1056 1069 1056 l 313 1056 z "},"ွ":{"ha":0,"x_min":-826,"x_max":-174,"o":"m -583 -178 q -687 -253 -687 -178 l -687 -287 q -583 -364 -687 -364 l -417 -364 q -312 -287 -312 -364 l -312 -253 q -417 -178 -312 -178 l -583 -178 m -347 -28 q -174 -178 -174 -28 l -174 -364 q -347 -514 -174 -514 l -653 -514 q -826 -364 -826 -514 l -826 -178 q -653 -28 -826 -28 l -347 -28 z "},"ှ":{"ha":0,"x_min":-556,"x_max":-278,"o":"m -417 -28 l -278 -28 l -278 -333 q -451 -514 -278 -514 l -556 -514 l -556 -333 l -521 -333 q -417 -243 -417 -333 l -417 -28 z "},"ဿ":{"ha":2444,"x_min":69,"x_max":2375,"o":"m 1583 25 q 1479 0 1543 0 l 965 0 q 861 25 901 0 q 757 0 821 0 l 243 0 q 69 181 69 0 l 69 271 l 208 271 q 313 181 208 181 l 688 181 q 792 271 792 181 l 792 451 q 688 542 792 542 l 313 542 q 208 451 208 542 l 69 451 l 69 542 q 243 722 69 722 l 757 722 q 931 542 931 722 l 931 271 q 1035 181 931 181 l 1410 181 q 1514 271 1514 181 l 1514 451 q 1410 542 1514 542 l 1153 542 l 1153 722 l 1479 722 q 1653 542 1653 722 l 1653 271 q 1757 181 1653 181 l 2132 181 q 2236 271 2236 181 l 2236 451 q 2132 542 2236 542 l 1875 542 l 1875 722 l 2201 722 q 2375 542 2375 722 l 2375 181 q 2201 0 2375 0 l 1688 0 q 1583 25 1624 0 z "},"၀":{"ha":1000,"x_min":69,"x_max":931,"o":"m 313 542 q 208 451 208 542 l 208 271 q 313 181 208 181 l 688 181 q 792 271 792 181 l 792 451 q 688 542 792 542 l 313 542 m 757 722 q 931 542 931 722 l 931 181 q 757 0 931 0 l 243 0 q 69 181 69 0 l 69 542 q 243 722 69 722 l 757 722 z "},"၁":{"ha":1000,"x_min":69,"x_max":931,"o":"m 313 542 q 208 451 208 542 l 69 451 l 69 542 q 243 722 69 722 l 757 722 q 931 542 931 722 l 931 181 q 757 0 931 0 l 243 0 q 69 181 69 0 l 69 271 l 208 271 q 313 181 208 181 l 688 181 q 792 271 792 181 l 792 451 q 688 542 792 542 l 313 542 z "},"၂":{"ha":1000,"x_min":69,"x_max":931,"o":"m 931 722 l 931 -333 q 757 -514 931 -514 l 243 -514 q 69 -333 69 -514 l 69 -69 l 208 -69 l 208 -243 q 313 -333 208 -333 l 688 -333 q 792 -243 792 -333 l 792 722 l 931 722 z "},"၃":{"ha":1000,"x_min":69,"x_max":931,"o":"m 160 14 q 69 181 69 50 l 69 271 l 208 271 q 313 181 208 181 l 688 181 q 792 271 792 181 l 792 451 q 688 542 792 542 l 313 542 q 208 451 208 542 l 69 451 l 69 542 q 243 722 69 722 l 757 722 q 931 542 931 722 l 931 181 q 757 0 931 0 l 372 0 l 746 -374 l 647 -472 l 451 -275 l 254 -79 l 160 14 z "},"၄":{"ha":1000,"x_min":69,"x_max":931,"o":"m 746 -79 l 549 -275 l 353 -472 l 254 -374 l 628 0 l 243 0 q 69 181 69 0 l 69 542 q 243 722 69 722 l 757 722 q 931 542 931 722 l 931 451 l 792 451 q 688 542 792 542 l 313 542 q 208 451 208 542 l 208 271 q 313 181 208 181 l 688 181 q 792 271 792 181 l 931 271 l 931 181 q 840 14 931 50 l 746 -79 z "},"၅":{"ha":1000,"x_min":69,"x_max":931,"o":"m 326 264 q 278 313 326 313 q 229 264 229 313 q 278 215 229 215 q 326 264 326 215 m 931 -333 q 757 -514 931 -514 l 243 -514 q 69 -333 69 -514 l 69 -69 l 208 -69 l 208 -243 q 313 -333 208 -333 l 688 -333 q 792 -243 792 -333 l 792 451 q 688 542 792 542 l 313 542 q 208 451 208 542 l 208 390 q 278 403 238 403 q 417 264 417 403 q 278 125 417 125 l 243 125 q 69 306 69 125 l 69 542 q 243 722 69 722 l 757 722 q 931 542 931 722 l 931 -333 z "},"၆":{"ha":1000,"x_min":69,"x_max":931,"o":"m 931 181 q 757 0 931 0 l 243 0 q 69 181 69 0 l 69 1056 q 243 1236 69 1236 l 757 1236 q 931 1056 931 1236 l 931 806 l 792 806 l 792 965 q 688 1056 792 1056 l 313 1056 q 208 965 208 1056 l 208 271 q 313 181 208 181 l 688 181 q 792 271 792 181 l 792 315 q 538 586 538 365 q 689 722 538 722 l 931 722 l 931 542 l 718 542 q 931 433 718 485 l 931 181 z "},"၇":{"ha":1000,"x_min":69,"x_max":931,"o":"m 285 -243 q 457 46 285 -87 q 792 378 792 304 l 792 451 q 688 542 792 542 l 313 542 q 208 451 208 542 l 208 410 q 313 319 208 319 l 393 319 l 393 139 l 243 139 q 69 319 69 139 l 69 542 q 243 722 69 722 l 757 722 q 931 542 931 722 l 931 378 q 543 -64 931 236 q 424 -243 424 -156 q 500 -333 424 -333 q 576 -243 576 -333 l 576 -167 l 715 -167 l 715 -333 q 542 -514 715 -514 l 458 -514 q 285 -333 285 -514 l 285 -243 z "},"၈":{"ha":1000,"x_min":69,"x_max":931,"o":"m 272 538 q 208 451 208 522 l 208 271 q 313 181 208 181 l 392 181 q 272 538 392 400 m 356 542 q 461 181 461 383 q 444 31 461 61 q 392 0 426 0 l 243 0 q 69 181 69 0 l 69 542 q 243 722 69 722 l 757 722 q 931 542 931 722 l 931 181 q 757 0 931 0 l 607 0 l 607 181 l 688 181 q 792 271 792 181 l 792 451 q 688 542 792 542 l 356 542 z "},"၉":{"ha":1000,"x_min":69,"x_max":931,"o":"m 931 289 q 718 181 718 238 l 931 181 l 931 0 l 689 0 q 538 136 538 0 q 792 407 538 357 l 792 451 q 688 542 792 542 l 313 542 q 208 451 208 542 l 208 -243 q 313 -333 208 -333 l 688 -333 q 792 -243 792 -333 l 792 -83 l 931 -83 l 931 -333 q 757 -514 931 -514 l 243 -514 q 69 -333 69 -514 l 69 542 q 243 722 69 722 l 757 722 q 931 542 931 722 l 931 289 z "},"၊":{"ha":278,"x_min":69,"x_max":208,"o":"m 208 722 l 208 0 l 69 0 l 69 722 l 208 722 z "},"။":{"ha":486,"x_min":69,"x_max":417,"o":"m 417 722 l 417 0 l 278 0 l 278 722 l 417 722 m 208 722 l 208 0 l 69 0 l 69 722 l 208 722 z "},"၌":{"ha":1000,"x_min":69,"x_max":931,"o":"m 340 1069 q 236 993 236 1069 q 340 917 236 917 l 500 917 l 500 750 l 271 750 q 97 931 97 750 l 97 1056 q 271 1236 97 1236 l 729 1236 q 903 1056 903 1236 l 764 993 q 660 1069 764 1069 l 340 1069 m 931 -333 q 757 -514 931 -514 l 243 -514 q 69 -333 69 -514 l 69 -243 l 208 -243 q 313 -333 208 -333 l 688 -333 q 792 -243 792 -333 l 792 -218 q 656 -236 688 -236 l 344 -236 q 69 -40 69 -236 l 69 271 l 208 271 q 313 181 208 181 l 688 181 q 792 271 792 181 l 792 451 q 688 542 792 542 l 313 542 q 208 451 208 542 l 69 451 l 69 542 q 243 722 69 722 l 757 722 q 931 542 931 722 l 931 181 q 757 0 931 0 l 243 0 q 208 1 225 0 l 208 -40 q 344 -111 208 -111 l 656 -111 q 931 -40 861 -111 l 931 -333 z "},"၍":{"ha":1278,"x_min":69,"x_max":1208,"o":"m 313 181 l 382 181 q 486 229 486 181 q 446 278 486 278 q 242 197 306 278 q 313 181 267 181 m 792 451 q 688 542 792 542 l 313 542 q 208 451 208 542 l 208 269 q 446 347 290 347 q 625 181 625 347 q 451 0 625 0 l 243 0 q 69 181 69 0 l 69 542 q 243 722 69 722 l 757 722 q 931 542 931 722 l 931 -236 l 792 -236 l 792 451 m 243 -514 q 69 -333 69 -514 l 69 -235 q 243 -82 69 -82 l 694 -82 l 694 -193 l 313 -193 q 208 -262 208 -193 q 313 -333 208 -333 l 965 -333 q 1069 -243 1069 -333 l 1069 535 q 896 750 1069 750 l 576 750 q 403 931 403 750 l 403 1056 q 576 1236 403 1236 l 1035 1236 q 1208 1056 1208 1236 l 1069 993 q 965 1069 1069 1069 l 646 1069 q 542 993 542 1069 q 646 917 542 917 l 896 917 q 1208 597 1208 917 l 1208 -333 q 1035 -514 1208 -514 l 243 -514 z "},"၎":{"ha":1000,"x_min":69,"x_max":931,"o":"m 931 -514 l 792 -514 l 792 1 q 757 0 775 0 l 243 0 q 69 181 69 0 l 69 542 q 243 722 69 722 l 757 722 q 931 542 931 722 l 931 451 l 792 451 q 688 542 792 542 l 313 542 q 208 451 208 542 l 208 271 q 313 181 208 181 l 688 181 q 792 271 792 181 l 931 271 l 931 -514 z "},"၏":{"ha":1556,"x_min":69,"x_max":1486,"o":"m 792 465 q 688 542 792 542 l 435 542 q 786 465 564 465 l 792 465 m 786 257 q 435 181 564 257 l 688 181 q 792 257 792 181 l 786 257 m 931 513 l 931 465 q 898 413 931 431 q 786 396 865 396 q 318 542 499 396 l 313 542 q 208 451 208 542 l 208 271 q 313 181 208 181 l 318 181 q 786 326 499 326 q 898 309 865 326 q 931 257 931 292 l 931 181 q 757 0 931 0 l 243 0 q 69 181 69 0 l 69 542 q 243 722 69 722 l 757 722 q 863 697 822 722 q 993 722 913 722 q 1208 542 1208 722 l 1208 0 l 1069 0 l 1069 451 q 993 542 1069 542 q 931 513 949 542 m 1347 535 q 1174 750 1347 750 l 854 750 q 681 931 681 750 l 681 1056 q 854 1236 681 1236 l 1313 1236 q 1486 1056 1486 1236 l 1347 993 q 1243 1069 1347 1069 l 924 1069 q 819 993 819 1069 q 924 917 819 917 l 1174 917 q 1486 597 1486 917 l 1486 0 l 1347 0 l 1347 535 z "},"ၐ":{"ha":1000,"x_min":69,"x_max":931,"o":"m 500 451 q 590 361 590 451 q 500 271 590 271 q 410 361 410 271 q 500 451 410 451 m 608 0 l 608 181 l 688 181 q 792 271 792 181 l 792 451 q 688 542 792 542 l 313 542 q 208 451 208 542 l 208 271 q 313 181 208 181 l 393 181 l 393 0 l 243 0 q 69 181 69 0 l 69 542 q 243 722 69 722 l 757 722 q 931 542 931 722 l 931 181 q 757 0 931 0 l 608 0 z "},"ၑ":{"ha":1000,"x_min":69,"x_max":931,"o":"m 500 271 q 410 361 410 271 q 500 451 410 451 q 590 361 590 451 q 500 271 590 271 m 757 722 q 931 542 931 722 l 931 181 q 757 0 931 0 l 243 0 q 69 181 69 0 l 69 542 q 243 722 69 722 l 393 722 l 393 542 l 313 542 q 208 451 208 542 l 208 271 q 313 181 208 181 l 688 181 q 792 271 792 181 l 792 451 q 688 542 792 542 l 608 542 l 608 722 l 757 722 z "},"ၒ":{"ha":1000,"x_min":69,"x_max":931,"o":"m 392 722 l 392 542 l 313 542 q 208 451 208 542 l 208 271 q 313 181 208 181 l 688 181 q 792 271 792 181 l 792 313 q 607 472 792 389 l 607 722 l 931 722 l 931 542 l 765 542 q 931 333 931 438 l 931 181 q 757 0 931 0 l 243 0 q 69 181 69 0 l 69 542 q 243 722 69 722 l 392 722 z "},"ၓ":{"ha":1000,"x_min":69,"x_max":931,"o":"m 243 0 q 69 181 69 0 l 69 333 q 235 542 69 438 l 69 542 l 69 722 l 393 722 l 393 472 q 208 313 208 389 l 208 271 q 313 181 208 181 l 688 181 q 792 271 792 181 l 792 313 q 607 472 792 389 l 607 722 l 931 722 l 931 542 l 765 542 q 931 333 931 438 l 931 181 q 757 0 931 0 l 243 0 z "},"ၔ":{"ha":1000,"x_min":69,"x_max":931,"o":"m 318 542 l 313 542 q 208 451 208 542 l 208 271 q 313 181 208 181 l 688 181 q 792 271 792 181 l 931 271 l 931 181 q 757 0 931 0 l 243 0 q 69 181 69 0 l 69 542 q 243 722 69 722 l 757 722 q 931 542 931 722 l 931 451 q 898 399 931 417 q 786 382 865 382 q 318 542 499 382 m 792 451 q 688 542 792 542 l 435 542 q 786 451 564 451 l 792 451 z "},"ၕ":{"ha":1000,"x_min":69,"x_max":931,"o":"m 318 542 l 313 542 q 208 451 208 542 l 208 271 q 313 181 208 181 q 446 271 421 181 l 554 271 q 688 181 581 181 q 792 271 792 181 l 931 271 l 931 181 q 757 0 931 0 l 688 0 q 500 153 588 0 q 313 0 414 0 l 243 0 q 69 181 69 0 l 69 542 q 243 722 69 722 l 757 722 q 931 542 931 722 l 931 451 q 898 399 931 417 q 786 382 865 382 q 318 542 499 382 m 792 451 q 688 542 792 542 l 435 542 q 786 451 564 451 l 792 451 z "},"ၖ":{"ha":722,"x_min":-208,"x_max":653,"o":"m -69 271 q 35 181 -69 181 l 410 181 q 514 271 514 181 l 514 313 q 329 472 514 389 l 329 722 l 653 722 l 653 542 l 488 542 q 653 333 653 438 l 653 181 q 479 0 653 0 l -35 0 q -208 181 -208 0 l -69 271 z "},"ၗ":{"ha":722,"x_min":-208,"x_max":653,"o":"m 514 313 q 329 472 514 389 l 329 722 l 653 722 l 653 542 l 488 542 q 653 333 653 438 l 653 181 q 479 0 653 0 l 410 0 q 222 153 310 0 q 35 0 136 0 l -35 0 q -208 181 -208 0 l -69 271 q 35 181 -69 181 q 168 271 143 181 l 276 271 q 410 181 303 181 q 514 271 514 181 l 514 313 z "},"ၘ":{"ha":0,"x_min":-826,"x_max":-174,"o":"m -657 -156 q -507 -196 -567 -196 q -343 -156 -433 -196 q -417 -125 -369 -125 l -583 -125 q -657 -156 -631 -125 m -246 -147 q -315 -226 -246 -201 q -507 -265 -421 -265 q -685 -226 -579 -265 q -687 -271 -687 -247 q -583 -347 -687 -347 l -417 -347 q -312 -271 -312 -347 l -174 -333 q -347 -514 -174 -514 l -653 -514 q -826 -333 -826 -514 l -826 -208 q -653 -28 -826 -28 l -389 -28 q -246 -147 -246 -28 z "},"ၙ":{"ha":0,"x_min":-826,"x_max":-174,"o":"m -657 -156 q -507 -196 -567 -196 q -343 -156 -433 -196 q -417 -125 -369 -125 l -583 -125 q -657 -156 -631 -125 m -246 -147 q -315 -226 -246 -201 q -507 -265 -421 -265 q -685 -226 -579 -265 q -687 -271 -687 -247 q -583 -347 -687 -347 l -500 -278 l -417 -347 q -312 -271 -312 -347 l -174 -333 q -347 -514 -174 -514 l -424 -514 l -500 -417 l -576 -514 l -653 -514 q -826 -333 -826 -514 l -826 -208 q -653 -28 -826 -28 l -389 -28 q -246 -147 -246 -28 z "},"ၚ":{"ha":1000,"x_min":69,"x_max":931,"o":"m 465 -267 q 507 -247 465 -267 q 549 -174 549 -226 q 500 -139 549 -139 q 451 -201 451 -139 l 313 -201 q 500 -28 313 -28 q 688 -174 688 -28 q 604 -306 688 -261 q 521 -376 521 -350 q 569 -403 521 -403 l 615 -403 l 615 -514 l 569 -514 q 382 -376 382 -514 q 465 -267 382 -307 m 313 542 q 208 451 208 542 l 208 271 q 313 181 208 181 l 688 181 q 792 271 792 181 l 931 271 l 931 181 q 757 0 931 0 l 243 0 q 69 181 69 0 l 69 542 q 243 722 69 722 l 757 722 q 931 542 931 722 l 931 451 l 792 451 q 688 542 792 542 l 313 542 z "},"ၛ":{"ha":1278,"x_min":69,"x_max":1208,"o":"m 575 503 q 682 419 575 419 q 789 503 789 419 q 682 586 789 586 q 575 503 575 586 m 556 0 l 243 0 q 69 181 69 0 l 69 542 q 243 722 69 722 l 757 722 q 931 542 931 722 l 931 451 l 890 451 q 1069 365 921 383 l 1069 722 l 1208 722 l 1208 -333 q 1035 -514 1208 -514 l 729 -514 q 556 -333 556 -514 l 556 0 m 1069 294 q 826 388 889 313 q 682 350 779 350 q 486 503 486 350 q 490 542 486 524 l 313 542 q 208 451 208 542 l 208 271 q 313 181 208 181 l 688 181 q 792 271 792 181 l 931 271 l 931 181 q 757 0 931 0 l 694 0 l 694 -243 q 799 -333 694 -333 l 965 -333 q 1069 -243 1069 -333 l 1069 294 z "},"ၜ":{"ha":1000,"x_min":69,"x_max":931,"o":"m 313 542 q 208 451 208 542 l 208 271 q 313 181 208 181 l 688 181 q 792 271 792 181 l 792 451 q 688 542 792 542 l 313 542 m 757 722 q 931 542 931 722 l 931 181 q 757 0 931 0 l 243 0 q 69 181 69 0 l 69 542 q 243 722 69 722 l 757 722 m 500 451 q 590 361 590 451 q 500 271 590 271 q 410 361 410 271 q 500 451 410 451 z "},"ၝ":{"ha":1000,"x_min":69,"x_max":931,"o":"m 218 224 q 313 181 240 181 l 688 181 q 782 224 760 181 q 500 292 686 292 q 218 224 314 292 m 792 1 q 757 0 775 0 l 243 0 q 69 181 69 0 l 69 542 q 243 722 69 722 l 393 722 l 393 542 l 313 542 q 208 451 208 542 l 208 310 q 500 361 321 361 q 792 310 679 361 l 792 451 q 688 542 792 542 l 608 542 l 608 722 l 757 722 q 931 542 931 722 l 931 -333 q 757 -514 931 -514 l 243 -514 q 69 -333 69 -514 l 69 -235 q 243 -82 69 -82 l 465 -82 l 465 -193 l 313 -193 q 208 -262 208 -193 q 313 -333 208 -333 l 688 -333 q 792 -243 792 -333 l 792 1 z "},"ၞ":{"ha":0,"x_min":-931,"x_max":69,"o":"m -208 -193 l -687 -193 q -792 -262 -792 -193 q -687 -333 -792 -333 l -312 -333 q -208 -243 -208 -333 l -208 -193 m -69 -82 l 69 -82 l 69 -193 l -69 -193 l -69 -333 q -243 -514 -69 -514 l -757 -514 q -931 -333 -931 -514 l -931 -235 q -757 -82 -931 -82 l -208 -82 l -208 69 l -69 69 l -69 -82 z "},"ၟ":{"ha":0,"x_min":-715,"x_max":-285,"o":"m -458 -210 q -576 -268 -576 -210 q -500 -354 -576 -354 q -424 -261 -424 -354 l -285 -261 q -500 -493 -285 -493 q -715 -268 -715 -493 q -475 -76 -715 -96 l -475 0 l -333 -1 l -333 -211 l -458 -210 z "},"ၠ":{"ha":0,"x_min":-707,"x_max":-293,"o":"m -482 -278 l -293 -278 l -293 -417 l -678 -417 l -707 -360 l -464 -64 l -340 -107 l -482 -278 z "},"ၡ":{"ha":1000,"x_min":69,"x_max":1115,"o":"m 313 181 l 382 181 q 486 229 486 181 q 446 278 486 278 q 242 197 306 278 q 313 181 267 181 m 486 1 q 451 0 469 0 l 243 0 q 69 181 69 0 l 69 542 q 243 722 69 722 l 757 722 q 931 542 931 722 l 931 -243 q 1035 -333 931 -333 l 1115 -333 l 1115 -514 l 965 -514 q 792 -333 792 -514 l 792 451 q 688 542 792 542 l 313 542 q 208 451 208 542 l 208 269 q 446 347 290 347 q 625 181 625 347 l 625 -333 q 451 -514 625 -514 l 347 -514 l 347 -333 l 382 -333 q 486 -243 486 -333 l 486 1 z "},"ၢ":{"ha":278,"x_min":-69,"x_max":208,"o":"m 208 0 l 69 0 l 69 542 l -69 542 l -69 722 l 208 722 l 208 0 z "},"ၣ":{"ha":1000,"x_min":69,"x_max":931,"o":"m 69 271 l 208 271 q 313 181 208 181 l 688 181 q 792 271 792 181 l 792 451 q 688 542 792 542 l 313 542 q 208 451 208 542 l 69 451 l 69 542 q 243 722 69 722 l 757 722 q 931 542 931 722 l 931 181 q 757 0 931 0 l 243 0 q 208 1 225 0 l 208 -514 l 69 -514 l 69 271 z "},"ၤ":{"ha":417,"x_min":0,"x_max":417,"o":"m 278 181 l 417 181 l 417 0 l 139 0 l 139 542 l 0 542 l 0 722 l 278 722 l 278 181 z "},"ၥ":{"ha":1000,"x_min":69,"x_max":931,"o":"m 313 542 q 208 451 208 542 l 69 451 l 69 542 q 243 722 69 722 l 757 722 q 931 542 931 722 l 931 181 q 757 0 931 0 l 243 0 q 69 181 69 0 l 69 271 l 208 271 q 313 181 208 181 l 688 181 q 792 271 792 181 l 792 451 q 688 542 792 542 l 313 542 z "},"ၦ":{"ha":1000,"x_min":69,"x_max":931,"o":"m 694 0 l 694 -333 q 521 -514 694 -514 l 417 -514 l 417 -333 l 451 -333 q 556 -243 556 -333 l 556 0 l 243 0 q 69 181 69 0 l 69 542 q 243 722 69 722 l 393 722 l 393 542 l 313 542 q 208 451 208 542 l 208 271 q 313 181 208 181 l 688 181 q 792 271 792 181 l 792 451 q 688 542 792 542 l 608 542 l 608 722 l 757 722 q 931 542 931 722 l 931 181 q 757 0 931 0 l 694 0 z "},"ၧ":{"ha":389,"x_min":-28,"x_max":319,"o":"m 160 139 q 111 188 160 188 q 63 139 63 188 q 111 90 63 90 q 160 139 160 90 m 319 208 q 111 0 319 0 q -28 139 -28 0 q 111 278 -28 278 q 181 265 151 278 l 181 722 l 319 722 l 319 208 z "},"ၨ":{"ha":278,"x_min":-69,"x_max":278,"o":"m 208 0 l -69 0 l -69 181 l 69 181 l 69 722 l 208 722 l 208 0 m 139 1028 q 278 889 278 1028 q 139 750 278 750 q 0 889 0 750 q 139 1028 0 1028 m 188 889 q 139 938 188 938 q 90 889 90 938 q 139 840 90 840 q 188 889 188 840 z "},"ၩ":{"ha":433,"x_min":69,"x_max":364,"o":"m 286 345 q 247 311 286 345 q 208 226 208 278 q 301 181 208 181 l 364 181 l 364 0 l 301 0 q 69 185 69 0 q 147 376 69 308 q 225 494 225 443 q 132 542 225 542 l 69 542 l 69 722 l 132 722 q 364 536 364 722 q 286 345 364 413 z "},"ၪ":{"ha":500,"x_min":0,"x_max":431,"o":"m 215 181 q 292 282 292 181 l 292 722 l 431 722 l 431 282 q 215 0 431 0 q 0 282 0 0 l 139 282 q 215 181 139 181 z "},"ၫ":{"ha":500,"x_min":0,"x_max":431,"o":"m 215 542 q 139 440 139 542 l 0 440 q 215 722 0 722 q 431 440 431 722 l 431 0 l 292 0 l 292 440 q 215 542 292 542 z "},"ၬ":{"ha":500,"x_min":69,"x_max":500,"o":"m 285 181 q 361 282 361 181 l 500 282 q 285 0 500 0 q 69 282 69 0 l 69 722 l 208 722 l 208 282 q 285 181 208 181 z "},"ၭ":{"ha":433,"x_min":69,"x_max":364,"o":"m 147 345 q 108 379 147 345 q 69 536 69 413 q 301 722 69 722 l 364 722 l 364 542 l 301 542 q 208 494 208 542 q 286 376 208 443 q 364 185 364 308 q 132 0 364 0 l 69 0 l 69 181 l 132 181 q 225 226 225 181 q 147 345 225 278 z "},"ၮ":{"ha":2014,"x_min":69,"x_max":1944,"o":"m 1049 722 q 1153 697 1113 722 q 1257 722 1193 722 l 1771 722 q 1944 542 1944 722 l 1944 181 q 1771 0 1944 0 l 1444 0 l 1444 181 l 1701 181 q 1806 271 1806 181 l 1806 451 q 1701 542 1806 542 l 1326 542 q 1222 451 1222 542 l 1222 181 q 1049 0 1222 0 l 979 0 l 979 181 q 1083 271 1083 181 l 1083 451 q 979 542 1083 542 l 931 542 l 931 181 q 757 0 931 0 l 608 0 l 608 181 l 688 181 q 792 271 792 181 l 792 451 q 688 542 792 542 l 313 542 q 208 451 208 542 l 208 271 q 313 181 208 181 l 393 181 l 393 0 l 243 0 q 69 181 69 0 l 69 542 q 243 722 69 722 l 1049 722 z "},"ၯ":{"ha":1722,"x_min":69,"x_max":1653,"o":"m 1250 0 l 1153 0 l 1153 181 l 1410 181 q 1514 271 1514 181 l 1514 451 q 1410 542 1514 542 l 1035 542 q 931 451 931 542 l 931 181 q 757 0 931 0 l 243 0 q 69 181 69 0 l 69 542 q 243 722 69 722 l 393 722 l 393 542 l 313 542 q 208 451 208 542 l 208 271 q 313 181 208 181 l 688 181 q 792 271 792 181 l 792 451 q 688 542 792 542 l 608 542 l 608 722 l 757 722 q 861 697 821 722 q 965 722 901 722 l 1479 722 q 1653 542 1653 722 l 1653 181 q 1479 0 1653 0 l 1389 0 l 1389 -333 q 1215 -514 1389 -514 l 1111 -514 l 1111 -333 l 1146 -333 q 1250 -243 1250 -333 l 1250 0 z "},"ၰ":{"ha":1722,"x_min":69,"x_max":1653,"o":"m 1250 0 l 965 0 q 861 25 901 0 q 757 0 821 0 l 243 0 q 69 181 69 0 l 69 333 q 235 542 69 438 l 69 542 l 69 722 l 393 722 l 393 472 q 208 313 208 389 l 208 271 q 313 181 208 181 l 688 181 q 792 271 792 181 l 792 451 q 688 542 792 542 l 608 542 l 608 722 l 757 722 q 931 542 931 722 l 931 271 q 1035 181 931 181 l 1410 181 q 1514 271 1514 181 l 1514 451 q 1410 542 1514 542 l 1153 542 l 1153 722 l 1479 722 q 1653 542 1653 722 l 1653 181 q 1479 0 1653 0 l 1389 0 l 1389 -333 q 1215 -514 1389 -514 l 1111 -514 l 1111 -333 l 1146 -333 q 1250 -243 1250 -333 l 1250 0 z "},"ၱ":{"ha":0,"x_min":-778,"x_max":-222,"o":"m -351 1146 q -222 1007 -222 1146 q -351 868 -222 868 q -481 1007 -481 868 q -351 1146 -481 1146 m -649 1146 q -519 1007 -519 1146 q -649 868 -519 868 q -778 1007 -778 868 q -649 1146 -778 1146 z "},"ၲ":{"ha":0,"x_min":-903,"x_max":-97,"o":"m -97 917 q -271 750 -97 750 l -729 750 q -903 931 -903 750 l -903 1056 q -729 1236 -903 1236 l -271 1236 q -97 1056 -97 1236 l -236 993 q -340 1069 -236 1069 l -660 1069 q -764 993 -764 1069 q -660 917 -764 917 l -97 917 z "},"ၳ":{"ha":0,"x_min":-867,"x_max":-133,"o":"m -500 1179 l -133 813 l -253 764 l -500 1011 l -749 764 l -867 813 l -500 1179 z "},"ၴ":{"ha":0,"x_min":-903,"x_max":-97,"o":"m -660 1069 q -764 993 -764 1069 q -660 917 -764 917 l -340 917 q -236 993 -236 917 q -340 1069 -236 1069 l -419 1069 l -419 1236 l -271 1236 q -97 1056 -97 1236 l -97 931 q -271 750 -97 750 l -729 750 q -903 931 -903 750 l -903 1056 q -729 1236 -903 1236 l -579 1236 l -579 1069 l -660 1069 z "},"ၵ":{"ha":1000,"x_min":69,"x_max":931,"o":"m 608 0 l 608 181 l 688 181 q 792 271 792 181 l 792 451 q 688 542 792 542 l 313 542 q 208 451 208 542 l 208 410 q 393 250 208 333 l 393 0 l 69 0 l 69 181 l 235 181 q 69 389 69 285 l 69 542 q 243 722 69 722 l 757 722 q 931 542 931 722 l 931 181 q 757 0 931 0 l 608 0 z "},"ၶ":{"ha":1000,"x_min":-111,"x_max":931,"o":"m 208 271 q 313 181 208 181 l 565 181 q 214 271 436 271 l 208 271 m 69 451 q -111 668 -111 468 l -111 722 l 28 722 l 28 668 q 71 574 28 592 q 243 722 85 722 l 757 722 q 931 542 931 722 l 931 181 q 757 0 931 0 l 243 0 q 69 181 69 0 l 69 271 q 102 323 69 306 q 214 340 135 340 q 682 181 501 340 l 688 181 q 792 271 792 181 l 792 451 q 688 542 792 542 l 313 542 q 208 451 208 542 l 69 451 z "},"ၷ":{"ha":1000,"x_min":69,"x_max":931,"o":"m 608 181 l 688 181 q 792 271 792 181 l 792 451 q 728 538 792 522 q 608 181 608 400 m 313 542 q 208 451 208 542 l 208 410 q 393 250 208 333 l 393 0 l 69 0 l 69 181 l 235 181 q 69 389 69 285 l 69 542 q 243 722 69 722 l 757 722 q 931 542 931 722 l 931 181 q 757 0 931 0 l 608 0 q 556 31 574 0 q 539 181 539 61 q 644 542 539 383 l 313 542 z "},"ၸ":{"ha":1722,"x_min":69,"x_max":1653,"o":"m 1035 542 q 931 451 931 542 l 931 271 q 1035 181 931 181 l 1410 181 q 1514 271 1514 181 l 1514 451 q 1410 542 1514 542 l 1035 542 m 792 451 q 688 542 792 542 l 313 542 q 208 451 208 542 l 208 271 q 313 181 208 181 l 569 181 l 569 0 l 243 0 q 69 181 69 0 l 69 542 q 243 722 69 722 l 757 722 q 861 697 821 722 q 965 722 901 722 l 1479 722 q 1653 542 1653 722 l 1653 181 q 1479 0 1653 0 l 965 0 q 792 181 792 0 l 792 451 z "},"ၹ":{"ha":1722,"x_min":69,"x_max":1653,"o":"m 1035 542 q 931 451 931 542 l 931 271 q 1035 181 931 181 l 1410 181 q 1514 271 1514 181 l 1514 451 q 1410 542 1514 542 l 1035 542 m 313 181 l 382 181 q 486 229 486 181 q 446 278 486 278 q 242 197 306 278 q 313 181 267 181 m 757 722 q 861 697 821 722 q 965 722 901 722 l 1479 722 q 1653 542 1653 722 l 1653 181 q 1479 0 1653 0 l 965 0 q 792 181 792 0 l 792 451 q 688 542 792 542 l 313 542 q 208 451 208 542 l 208 269 q 446 347 290 347 q 625 181 625 347 q 451 0 625 0 l 243 0 q 69 181 69 0 l 69 542 q 243 722 69 722 l 757 722 z "},"ၺ":{"ha":1722,"x_min":69,"x_max":1653,"o":"m 792 451 q 688 542 792 542 l 313 542 q 208 451 208 542 l 208 271 q 313 181 208 181 l 569 181 l 569 0 l 243 0 q 69 181 69 0 l 69 542 q 243 722 69 722 l 757 722 q 931 542 931 722 l 931 271 q 1035 181 931 181 l 1410 181 q 1514 271 1514 181 l 1514 451 q 1410 542 1514 542 l 1153 542 l 1153 722 l 1479 722 q 1653 542 1653 722 l 1653 181 q 1479 0 1653 0 l 965 0 q 931 1 947 0 l 931 -243 q 1035 -333 931 -333 l 1069 -333 l 1069 -514 l 965 -514 q 792 -333 792 -514 l 792 451 z "},"ၻ":{"ha":1722,"x_min":69,"x_max":1653,"o":"m 313 542 q 208 451 208 542 l 208 271 q 313 181 208 181 l 688 181 q 792 271 792 181 l 792 451 q 688 542 792 542 l 313 542 m 1410 181 q 1481 197 1456 181 q 1276 278 1417 278 q 1236 229 1236 278 q 1340 181 1236 181 l 1410 181 m 1479 722 q 1653 542 1653 722 l 1653 181 q 1479 0 1653 0 l 1271 0 q 1097 181 1097 0 q 1276 347 1097 347 q 1514 269 1432 347 l 1514 451 q 1410 542 1514 542 l 1035 542 q 931 451 931 542 l 931 181 q 757 0 931 0 l 243 0 q 69 181 69 0 l 69 542 q 243 722 69 722 l 757 722 q 861 697 821 722 q 965 722 901 722 l 1479 722 z "},"ၼ":{"ha":1722,"x_min":69,"x_max":1653,"o":"m 1508 271 q 1157 181 1286 271 l 1410 181 q 1514 271 1514 181 l 1508 271 m 208 271 q 313 181 208 181 l 565 181 q 214 271 436 271 l 208 271 m 931 271 q 1035 181 931 181 l 1040 181 q 1508 340 1221 340 q 1620 323 1588 340 q 1653 271 1653 306 l 1653 181 q 1479 0 1653 0 l 965 0 q 861 25 901 0 q 757 0 821 0 l 243 0 q 69 181 69 0 l 69 271 q 102 323 69 306 q 214 340 135 340 q 682 181 501 340 l 688 181 q 792 271 792 181 l 792 451 q 688 542 792 542 l 313 542 q 208 451 208 542 l 69 451 l 69 542 q 243 722 69 722 l 757 722 q 861 697 821 722 q 965 722 901 722 l 1479 722 q 1653 542 1653 722 l 1653 451 l 1514 451 q 1410 542 1514 542 l 1035 542 q 931 451 931 542 l 931 271 z "},"ၽ":{"ha":1722,"x_min":69,"x_max":1653,"o":"m 1508 271 q 1157 181 1286 271 l 1410 181 q 1514 271 1514 181 l 1508 271 m 861 25 q 757 0 821 0 l 243 0 q 69 181 69 0 l 69 333 q 235 542 69 438 l 69 542 l 69 722 l 393 722 l 393 472 q 208 313 208 389 l 208 271 q 313 181 208 181 l 688 181 q 792 271 792 181 l 792 542 q 965 722 792 722 l 1479 722 q 1653 542 1653 722 l 1653 451 l 1514 451 q 1410 542 1514 542 l 1035 542 q 931 451 931 542 l 931 271 q 1035 181 931 181 l 1040 181 q 1508 340 1221 340 q 1620 323 1588 340 q 1653 271 1653 306 l 1653 181 q 1479 0 1653 0 l 965 0 q 861 25 901 0 z "},"ၾ":{"ha":1722,"x_min":69,"x_max":1653,"o":"m 1508 271 q 1157 181 1286 271 l 1410 181 q 1514 271 1514 181 l 1508 271 m 1250 0 l 965 0 q 861 25 901 0 q 757 0 821 0 l 243 0 q 69 181 69 0 l 69 333 q 235 542 69 438 l 69 542 l 69 722 l 393 722 l 393 472 q 208 313 208 389 l 208 271 q 313 181 208 181 l 688 181 q 792 271 792 181 l 792 542 q 965 722 792 722 l 1479 722 q 1653 542 1653 722 l 1653 451 l 1514 451 q 1410 542 1514 542 l 1035 542 q 931 451 931 542 l 931 271 q 1035 181 931 181 l 1040 181 q 1508 340 1221 340 q 1620 323 1588 340 q 1653 271 1653 306 l 1653 181 q 1479 0 1653 0 l 1389 0 l 1389 -333 q 1215 -514 1389 -514 l 1111 -514 l 1111 -333 l 1146 -333 q 1250 -243 1250 -333 l 1250 0 z "},"ၿ":{"ha":1000,"x_min":69,"x_max":931,"o":"m 272 185 q 392 542 392 322 l 313 542 q 208 451 208 542 l 208 271 q 272 185 208 200 m 688 181 q 792 271 792 181 l 792 451 q 688 542 792 542 l 607 542 l 607 722 l 757 722 q 931 542 931 722 l 931 181 q 757 0 931 0 l 243 0 q 69 181 69 0 l 69 542 q 243 722 69 722 l 392 722 q 444 692 426 722 q 461 542 461 661 q 356 181 461 339 l 688 181 z "},"ႀ":{"ha":1722,"x_min":69,"x_max":1653,"o":"m 208 271 q 313 181 208 181 l 565 181 q 214 271 436 271 l 208 271 m 861 25 q 757 0 821 0 l 243 0 q 69 181 69 0 l 69 271 q 102 323 69 306 q 214 340 135 340 q 682 181 501 340 l 688 181 q 792 271 792 181 l 792 451 q 688 542 792 542 l 313 542 q 208 451 208 542 l 69 451 l 69 542 q 243 722 69 722 l 757 722 q 931 542 931 722 l 931 271 q 1035 181 931 181 l 1410 181 q 1514 271 1514 181 l 1514 451 q 1410 542 1514 542 l 1153 542 l 1153 722 l 1479 722 q 1653 542 1653 722 l 1653 181 q 1479 0 1653 0 l 965 0 q 861 25 901 0 z "},"ႁ":{"ha":1000,"x_min":69,"x_max":931,"o":"m 254 0 l 243 0 q 69 181 69 0 l 69 542 q 243 722 69 722 l 757 722 q 931 542 931 722 l 931 181 q 757 0 931 0 l 608 0 l 608 181 l 688 181 q 792 271 792 181 l 792 451 q 688 542 792 542 l 313 542 q 208 451 208 542 l 208 271 q 313 181 208 181 l 393 181 l 393 -333 q 219 -514 393 -514 l 115 -514 l 115 -333 l 150 -333 q 254 -243 254 -333 l 254 0 z "},"ႂ":{"ha":0,"x_min":-826,"x_max":-174,"o":"m -583 -178 q -687 -253 -687 -178 l -687 -287 q -583 -364 -687 -364 l -417 -364 q -312 -287 -312 -364 l -174 -287 l -174 -364 q -347 -514 -174 -514 l -653 -514 q -826 -364 -826 -514 l -826 -178 q -653 -28 -826 -28 l -347 -28 q -174 -178 -174 -28 l -583 -178 z "},"ႃ":{"ha":417,"x_min":0,"x_max":417,"o":"m 139 542 l 0 542 l 0 722 l 278 722 l 278 -333 l 417 -333 l 417 -514 l 139 -514 l 139 542 z "},"ႄ":{"ha":1000,"x_min":69,"x_max":931,"o":"m 313 542 q 285 532 285 542 q 486 407 285 506 l 486 317 q 285 190 285 218 q 313 181 285 181 l 688 181 q 792 271 792 181 l 931 271 l 931 181 q 757 0 931 0 l 243 0 q 69 181 69 0 q 319 361 69 271 q 69 542 69 451 q 243 722 69 722 l 757 722 q 931 542 931 722 l 931 451 l 792 451 q 688 542 792 542 l 313 542 z "},"ႅ":{"ha":0,"x_min":-808,"x_max":-190,"o":"m -565 1115 q -593 1108 -593 1115 q -392 1024 -593 1090 l -392 963 q -593 878 -593 897 q -565 872 -593 872 l -190 872 l -190 750 l -635 750 q -808 872 -808 750 q -558 993 -808 932 q -808 1115 -808 1054 q -635 1236 -808 1236 l -190 1236 l -190 1115 l -565 1115 z "},"ႆ":{"ha":0,"x_min":-556,"x_max":-208,"o":"m -368 1056 q -417 1104 -368 1104 q -465 1056 -465 1104 q -417 1007 -465 1007 q -368 1056 -368 1007 m -208 1011 q -487 710 -208 768 l -510 846 q -358 925 -389 881 q -417 917 -383 917 q -556 1056 -556 917 q -417 1194 -556 1194 q -208 1011 -208 1194 z "},"ႇ":{"ha":486,"x_min":69,"x_max":417,"o":"m 257 139 q 208 188 257 188 q 160 139 160 188 q 208 90 160 90 q 257 139 257 90 m 417 94 q 138 -207 417 -149 l 115 -71 q 267 8 236 -36 q 208 0 242 0 q 69 139 69 0 q 208 278 69 278 q 417 139 417 278 l 417 94 z "},"ႈ":{"ha":486,"x_min":69,"x_max":417,"o":"m 208 722 q 347 583 347 722 q 208 444 347 444 q 69 583 69 444 q 208 722 69 722 m 417 94 q 138 -207 417 -149 l 115 -71 q 267 8 236 -36 q 208 0 242 0 q 69 139 69 0 q 208 278 69 278 q 417 139 417 278 l 417 94 m 271 139 q 222 188 271 188 q 174 139 174 188 q 222 90 174 90 q 271 139 271 90 z "},"ႉ":{"ha":417,"x_min":69,"x_max":347,"o":"m 208 278 q 347 139 347 278 q 208 0 347 0 q 69 139 69 0 q 208 278 69 278 z "},"ႊ":{"ha":625,"x_min":69,"x_max":556,"o":"m 210 535 q 258 583 258 535 q 210 632 258 632 q 161 583 161 632 q 210 535 161 535 m 210 444 q 71 583 71 444 q 210 722 71 722 q 349 583 349 722 q 419 704 385 596 l 556 654 q 254 444 497 444 l 210 444 m 208 90 q 257 139 257 90 q 208 188 257 188 q 160 139 160 188 q 208 90 160 90 m 208 0 q 69 139 69 0 q 208 278 69 278 q 347 139 347 278 q 418 260 383 151 l 554 210 q 253 0 496 0 l 208 0 z "},"ႋ":{"ha":417,"x_min":69,"x_max":347,"o":"m 208 500 q 347 361 347 500 q 208 222 347 222 q 69 361 69 222 q 208 500 69 500 z "},"ႌ":{"ha":750,"x_min":69,"x_max":681,"o":"m 542 500 q 681 361 681 500 q 542 222 681 222 q 403 361 403 222 q 542 500 403 500 m 208 500 q 347 361 347 500 q 208 222 347 222 q 69 361 69 222 q 208 500 69 500 z "},"ႍ":{"ha":0,"x_min":-812,"x_max":-187,"o":"m -187 -78 l -187 -217 l -812 -217 l -812 -78 l -187 -78 z "},"ႎ":{"ha":1000,"x_min":69,"x_max":931,"o":"m 218 499 q 500 431 314 431 q 782 499 686 431 q 688 542 760 542 l 313 542 q 218 499 240 542 m 792 413 q 500 361 679 361 q 208 413 321 361 l 208 271 q 313 181 208 181 l 688 181 q 792 271 792 181 l 792 413 m 243 0 q 69 181 69 0 l 69 542 q 243 722 69 722 l 757 722 q 931 542 931 722 l 931 181 q 757 0 931 0 l 243 0 z "},"ႏ":{"ha":486,"x_min":69,"x_max":417,"o":"m 278 722 q 417 583 417 722 q 278 444 417 444 q 139 583 139 444 q 278 722 139 722 m 69 139 q 278 278 69 278 q 417 139 417 278 q 278 0 417 0 q 219 8 244 0 q 371 -71 250 -36 l 349 -207 q 69 94 69 -149 l 69 139 m 215 139 q 264 90 215 90 q 313 139 313 90 q 264 188 313 188 q 215 139 215 188 z "},"႐":{"ha":1000,"x_min":69,"x_max":931,"o":"m 313 542 q 208 451 208 542 l 208 271 q 313 181 208 181 l 688 181 q 792 271 792 181 l 792 451 q 688 542 792 542 l 313 542 m 757 722 q 931 542 931 722 l 931 181 q 757 0 931 0 l 243 0 q 69 181 69 0 l 69 542 q 243 722 69 722 l 757 722 z "},"႑":{"ha":417,"x_min":0,"x_max":417,"o":"m 278 181 l 417 306 l 417 125 l 278 0 l 139 0 l 139 542 l 0 417 l 0 597 l 139 722 l 278 722 l 278 181 z "},"႒":{"ha":1000,"x_min":69,"x_max":931,"o":"m 208 721 q 243 722 225 722 l 757 722 q 931 542 931 722 l 931 378 q 543 -64 931 236 q 424 -243 424 -156 l 424 -333 l 285 -333 l 285 -243 q 457 46 285 -87 q 792 378 792 304 l 792 451 q 688 542 792 542 l 313 542 q 208 451 208 542 l 208 319 l 69 319 l 69 833 l 208 833 l 208 721 z "},"႓":{"ha":771,"x_min":69,"x_max":701,"o":"m 526 722 l 556 722 q 701 482 701 722 l 701 0 l 563 0 l 563 482 q 486 542 563 542 l 453 542 l 203 0 l 69 28 l 524 1043 l 657 1015 l 526 722 z "},"႔":{"ha":719,"x_min":69,"x_max":650,"o":"m 381 722 l 518 722 l 518 165 l 614 222 l 650 93 l 494 0 l 379 0 l 379 383 l 217 0 l 69 28 l 381 722 z "},"႕":{"ha":764,"x_min":69,"x_max":764,"o":"m 556 403 l 382 403 q 208 292 208 403 q 382 181 208 181 q 556 361 556 181 l 556 403 m 694 583 l 764 583 l 764 403 l 694 403 l 694 361 q 382 0 694 0 q 69 292 69 0 q 382 583 69 583 l 556 583 l 556 972 l 694 972 l 694 583 z "},"႖":{"ha":764,"x_min":69,"x_max":764,"o":"m 556 361 q 382 542 556 542 q 208 431 208 542 q 382 319 208 319 l 556 319 l 556 361 m 694 -250 l 556 -250 l 556 139 l 382 139 q 69 431 69 139 q 382 722 69 722 q 694 361 694 722 l 694 319 l 764 319 l 764 139 l 694 139 l 694 -250 z "},"႗":{"ha":694,"x_min":69,"x_max":625,"o":"m 625 538 l 244 181 l 625 181 l 625 0 l 69 0 l 69 182 l 453 542 l 69 542 l 69 722 l 625 722 l 625 538 z "},"႘":{"ha":1000,"x_min":69,"x_max":931,"o":"m 688 542 l 313 542 q 208 451 208 542 l 208 271 q 313 181 208 181 l 688 181 q 792 271 792 181 l 792 451 q 688 542 792 542 m 688 722 q 792 813 792 722 l 792 993 l 931 993 l 931 722 q 915 632 931 669 q 931 542 931 594 l 931 181 q 757 0 931 0 l 243 0 q 69 181 69 0 l 69 542 q 85 632 69 594 q 69 722 69 669 l 69 993 l 208 993 l 208 813 q 313 722 208 722 l 688 722 z "},"႙":{"ha":1000,"x_min":69,"x_max":931,"o":"m 688 451 q 792 542 792 451 l 792 722 q 688 813 792 813 l 313 813 q 208 722 208 813 l 208 542 q 313 451 208 451 l 688 451 m 313 271 q 208 181 208 271 l 208 0 l 69 0 l 69 271 q 85 361 69 324 q 69 451 69 399 l 69 813 q 243 993 69 993 l 757 993 q 931 813 931 993 l 931 451 q 915 361 931 399 q 931 271 931 324 l 931 0 l 792 0 l 792 181 q 688 271 792 271 l 313 271 z "},"ႚ":{"ha":417,"x_min":69,"x_max":347,"o":"m 208 722 q 347 583 347 722 q 208 444 347 444 q 69 583 69 444 q 208 722 69 722 z "},"ႛ":{"ha":486,"x_min":69,"x_max":417,"o":"m 257 583 q 208 632 257 632 q 160 583 160 632 q 208 535 160 535 q 257 583 257 535 m 417 539 q 138 238 417 296 l 115 374 q 267 453 236 408 q 208 444 242 444 q 69 583 69 444 q 208 722 69 722 q 417 583 417 722 l 417 539 z "},"ႜ":{"ha":625,"x_min":69,"x_max":556,"o":"m 210 188 q 161 139 161 188 q 210 90 161 90 q 258 139 258 90 q 210 188 258 188 m 254 278 q 556 68 497 278 l 419 18 q 349 139 385 126 q 210 0 349 0 q 71 139 71 0 q 210 278 71 278 l 254 278 m 208 632 q 160 583 160 632 q 208 535 160 535 q 257 583 257 535 q 208 632 257 632 m 253 722 q 554 513 496 722 l 418 463 q 347 583 383 571 q 208 444 347 444 q 69 583 69 444 q 208 722 69 722 l 253 722 z "},"ႝ":{"ha":0,"x_min":-472,"x_max":-69,"o":"m -271 847 q -333 788 -333 847 l -472 788 q -271 1028 -472 1028 q -69 774 -69 1028 l -69 556 l -208 556 l -208 774 q -271 847 -208 847 z "},"႞":{"ha":417,"x_min":0,"x_max":417,"o":"m 139 542 l 0 542 l 0 722 l 278 722 l 278 -333 l 417 -333 l 417 -514 l 139 -514 l 139 542 m 208 1028 q 347 889 347 1028 q 208 750 347 750 q 69 889 69 750 q 208 1028 69 1028 z "},"႟":{"ha":1278,"x_min":69,"x_max":1208,"o":"m 1208 -333 q 1000 -514 1208 -514 q 792 -333 792 -514 l 792 451 q 688 542 792 542 l 313 542 q 208 451 208 542 l 208 271 q 313 181 208 181 l 569 181 l 569 0 l 243 0 q 69 181 69 0 l 69 542 q 243 722 69 722 l 757 722 q 931 542 931 722 l 931 -243 q 1000 -333 931 -333 q 1069 -243 1069 -333 l 1069 535 q 896 750 1069 750 l 576 750 q 403 931 403 750 l 403 1056 q 576 1236 403 1236 l 1035 1236 q 1208 1056 1208 1236 l 1069 993 q 965 1069 1069 1069 l 646 1069 q 542 993 542 1069 q 646 917 542 917 l 896 917 q 1208 597 1208 917 l 1208 -333 z "},"ꩠ":{"ha":1722,"x_min":69,"x_max":1653,"o":"m 1481 197 q 1276 278 1417 278 q 1236 229 1236 278 q 1340 181 1236 181 l 1410 181 q 1481 197 1456 181 m 931 181 q 757 0 931 0 l 608 0 l 608 181 l 688 181 q 792 271 792 181 l 792 451 q 688 542 792 542 l 313 542 q 208 451 208 542 l 208 271 q 313 181 208 181 l 393 181 l 393 0 l 243 0 q 69 181 69 0 l 69 542 q 243 722 69 722 l 757 722 q 861 697 821 722 q 965 722 901 722 l 1479 722 q 1653 542 1653 722 l 1653 181 q 1479 0 1653 0 l 1271 0 q 1097 181 1097 0 q 1276 347 1097 347 q 1514 269 1432 347 l 1514 451 q 1410 542 1514 542 l 1035 542 q 931 451 931 542 l 931 181 z "},"ꩡ":{"ha":1722,"x_min":69,"x_max":1653,"o":"m 931 451 l 931 271 q 1035 181 931 181 l 1410 181 q 1514 271 1514 181 l 1514 451 q 1410 542 1514 542 l 1035 542 q 931 451 931 542 m 861 25 q 757 0 821 0 l 608 0 l 608 181 l 688 181 q 792 271 792 181 l 792 451 q 688 542 792 542 l 313 542 q 208 451 208 542 l 208 410 q 393 250 208 333 l 393 0 l 69 0 l 69 181 l 235 181 q 69 389 69 285 l 69 542 q 243 722 69 722 l 757 722 q 861 697 821 722 q 965 722 901 722 l 1479 722 q 1653 542 1653 722 l 1653 181 q 1479 0 1653 0 l 965 0 q 861 25 901 0 z "},"ꩢ":{"ha":1319,"x_min":69,"x_max":1250,"o":"m 390 147 l 204 0 l 69 0 l 69 722 l 208 722 l 208 175 l 449 361 l 528 271 q 632 181 528 181 l 1007 181 q 1111 271 1111 181 l 1111 451 q 1007 542 1111 542 l 750 542 l 750 722 l 1076 722 q 1250 542 1250 722 l 1250 181 q 1076 0 1250 0 l 563 0 q 390 147 406 0 z "},"ꩣ":{"ha":1722,"x_min":69,"x_max":1653,"o":"m 931 451 l 931 271 q 1035 181 931 181 l 1410 181 q 1514 271 1514 181 l 1514 451 q 1410 542 1514 542 l 1035 542 q 931 451 931 542 m 792 451 q 728 538 792 522 q 608 181 608 400 l 688 181 q 792 271 792 181 l 792 451 m 861 25 q 757 0 821 0 l 608 0 q 556 31 574 0 q 539 181 539 61 q 644 542 539 383 l 313 542 q 208 451 208 542 l 208 410 q 393 250 208 333 l 393 0 l 69 0 l 69 181 l 235 181 q 69 389 69 285 l 69 542 q 243 722 69 722 l 757 722 q 861 697 821 722 q 965 722 901 722 l 1479 722 q 1653 542 1653 722 l 1653 181 q 1479 0 1653 0 l 965 0 q 861 25 901 0 z "},"ꩤ":{"ha":1722,"x_min":69,"x_max":1653,"o":"m 931 451 l 931 271 q 1035 181 931 181 l 1410 181 q 1514 271 1514 181 l 1514 451 q 1410 542 1514 542 l 1035 542 q 931 451 931 542 m 792 451 q 688 542 792 542 l 608 542 l 608 722 l 757 722 q 861 697 821 722 q 965 722 901 722 l 1479 722 q 1653 542 1653 722 l 1653 181 q 1479 0 1653 0 l 965 0 q 861 25 901 0 q 757 0 821 0 l 243 0 q 69 181 69 0 l 69 542 q 243 722 69 722 l 393 722 l 393 542 l 313 542 q 208 451 208 542 l 208 271 q 313 181 208 181 l 688 181 q 792 271 792 181 l 792 451 z "},"ꩥ":{"ha":1722,"x_min":69,"x_max":1653,"o":"m 931 -333 q 757 -514 931 -514 l 653 -514 l 653 -333 l 688 -333 q 792 -243 792 -333 l 792 1 q 757 0 775 0 l 243 0 q 69 181 69 0 l 69 542 q 243 722 69 722 l 569 722 l 569 542 l 313 542 q 208 451 208 542 l 208 271 q 313 181 208 181 l 688 181 q 792 271 792 181 l 792 542 q 965 722 792 722 l 1479 722 q 1653 542 1653 722 l 1653 181 q 1479 0 1653 0 l 1153 0 l 1153 181 l 1410 181 q 1514 271 1514 181 l 1514 451 q 1410 542 1514 542 l 1035 542 q 931 451 931 542 l 931 -333 z "},"ꩦ":{"ha":1722,"x_min":69,"x_max":1653,"o":"m 313 542 q 208 451 208 542 l 208 271 q 313 181 208 181 l 688 181 q 792 271 792 181 l 792 451 q 688 542 792 542 l 313 542 m 931 451 l 931 181 q 757 0 931 0 l 243 0 q 69 181 69 0 l 69 542 q 243 722 69 722 l 757 722 q 861 697 821 722 q 965 722 901 722 l 1479 722 q 1653 542 1653 722 l 1653 181 q 1479 0 1653 0 l 1153 0 l 1153 181 l 1410 181 q 1514 271 1514 181 l 1514 451 q 1410 542 1514 542 l 1035 542 q 931 451 931 542 m 500 451 q 590 361 590 451 q 500 271 590 271 q 410 361 410 271 q 500 451 410 451 z "},"ꩧ":{"ha":1722,"x_min":69,"x_max":1653,"o":"m 792 271 l 792 451 q 688 542 792 542 l 313 542 q 208 451 208 542 l 208 271 q 313 181 208 181 l 688 181 q 792 271 792 181 m 931 271 q 1035 181 931 181 l 1410 181 q 1514 271 1514 181 l 1514 451 q 1410 542 1514 542 l 1035 542 q 931 451 931 542 l 931 271 m 861 697 q 965 722 901 722 l 1479 722 q 1653 542 1653 722 l 1653 181 q 1479 0 1653 0 l 965 0 q 861 25 901 0 q 757 0 821 0 l 243 0 q 69 181 69 0 l 69 542 q 243 722 69 722 l 757 722 q 861 697 821 722 m 500 451 q 590 361 590 451 q 500 271 590 271 q 410 361 410 271 q 500 451 410 451 z "},"ꩨ":{"ha":1722,"x_min":69,"x_max":1653,"o":"m 313 542 q 208 451 208 542 l 208 271 q 313 181 208 181 l 688 181 q 792 271 792 181 l 792 451 q 688 542 792 542 l 313 542 m 1410 181 q 1481 197 1456 181 q 1276 278 1417 278 q 1236 229 1236 278 q 1340 181 1236 181 l 1410 181 m 1479 722 q 1653 542 1653 722 l 1653 181 q 1479 0 1653 0 l 1271 0 q 1097 181 1097 0 q 1276 347 1097 347 q 1514 269 1432 347 l 1514 451 q 1410 542 1514 542 l 1035 542 q 931 451 931 542 l 931 181 q 757 0 931 0 l 243 0 q 69 181 69 0 l 69 542 q 243 722 69 722 l 757 722 q 861 697 821 722 q 965 722 901 722 l 1479 722 m 500 451 q 590 361 590 451 q 500 271 590 271 q 410 361 410 271 q 500 451 410 451 z "},"ꩩ":{"ha":1722,"x_min":69,"x_max":1653,"o":"m 500 451 q 590 361 590 451 q 500 271 590 271 q 410 361 410 271 q 500 451 410 451 m 792 271 l 792 451 q 688 542 792 542 l 313 542 q 208 451 208 542 l 208 271 q 313 181 208 181 l 688 181 q 792 271 792 181 m 1183 181 l 1410 181 q 1514 271 1514 181 l 1514 451 q 1410 542 1514 542 l 1035 542 q 931 451 931 542 l 931 435 q 1183 181 1164 413 m 931 364 l 931 271 q 1035 181 931 181 l 1113 181 q 931 364 1094 343 m 861 697 q 965 722 901 722 l 1479 722 q 1653 542 1653 722 l 1653 181 q 1479 0 1653 0 l 965 0 q 861 25 901 0 q 757 0 821 0 l 243 0 q 69 181 69 0 l 69 542 q 243 722 69 722 l 757 722 q 861 697 821 722 z "},"ꩪ":{"ha":1722,"x_min":69,"x_max":1653,"o":"m 792 271 l 792 451 q 688 542 792 542 l 313 542 q 208 451 208 542 l 208 271 q 313 181 208 181 l 688 181 q 792 271 792 181 m 1183 181 l 1410 181 q 1514 271 1514 181 l 1514 451 q 1410 542 1514 542 l 1035 542 q 931 451 931 542 l 931 435 q 1183 181 1164 413 m 931 364 l 931 271 q 1035 181 931 181 l 1113 181 q 931 364 1094 343 m 861 697 q 965 722 901 722 l 1479 722 q 1653 542 1653 722 l 1653 181 q 1479 0 1653 0 l 965 0 q 861 25 901 0 q 757 0 821 0 l 243 0 q 69 181 69 0 l 69 542 q 243 722 69 722 l 757 722 q 861 697 821 722 z "},"ꩫ":{"ha":1000,"x_min":69,"x_max":931,"o":"m 272 538 q 208 451 208 522 l 208 271 q 313 181 208 181 l 392 181 q 272 538 392 400 m 114 678 q 69 833 69 743 l 139 833 q 176 714 139 764 q 243 722 206 722 l 757 722 q 931 542 931 722 l 931 181 q 757 0 931 0 l 607 0 l 607 181 l 688 181 q 792 271 792 181 l 792 451 q 688 542 792 542 l 356 542 q 461 181 461 383 q 444 31 461 61 q 392 0 426 0 l 243 0 q 69 181 69 0 l 69 542 q 114 678 69 633 z "},"ꩬ":{"ha":1722,"x_min":69,"x_max":1653,"o":"m 800 643 q 819 542 819 603 l 819 181 q 646 0 819 0 l 243 0 q 69 181 69 0 l 69 542 q 243 722 69 722 l 393 722 l 393 542 l 313 542 q 208 451 208 542 l 208 271 q 313 181 208 181 l 576 181 q 681 271 681 181 l 681 451 q 576 542 681 542 l 646 722 l 1076 722 l 1146 542 q 1042 451 1042 542 l 1042 271 q 1146 181 1042 181 l 1410 181 q 1514 271 1514 181 l 1514 451 q 1410 542 1514 542 l 1329 542 l 1329 722 l 1479 722 q 1653 542 1653 722 l 1653 181 q 1479 0 1653 0 l 1076 0 q 903 181 903 0 l 903 542 q 922 643 903 603 l 800 643 z "},"ꩭ":{"ha":1097,"x_min":-208,"x_max":1028,"o":"m 232 694 q 340 722 272 722 l 854 722 q 1028 542 1028 722 l 1028 181 q 854 0 1028 0 l 528 0 l 528 181 l 785 181 q 889 271 889 181 l 889 451 q 785 542 889 542 l 410 542 q 306 451 306 542 l 306 -333 q 132 -514 306 -514 l -35 -514 q -208 -333 -208 -514 l -208 -181 l -69 -181 l -69 -243 q 35 -333 -69 -333 l 63 -333 q 167 -243 167 -333 l 167 446 q 136 444 153 444 q -3 583 -3 444 q 136 722 -3 722 q 232 694 197 722 z "},"ꩮ":{"ha":1722,"x_min":69,"x_max":1653,"o":"m 313 181 l 382 181 q 486 229 486 181 q 446 278 486 278 q 242 197 306 278 q 313 181 267 181 m 757 722 q 931 542 931 722 l 931 271 q 1035 181 931 181 l 1410 181 q 1514 271 1514 181 l 1514 451 q 1410 542 1514 542 l 1153 542 l 1153 722 l 1479 722 q 1653 542 1653 722 l 1653 181 q 1479 0 1653 0 l 965 0 q 792 181 792 0 l 792 451 q 688 542 792 542 l 313 542 q 208 451 208 542 l 208 269 q 446 347 290 347 q 625 181 625 347 q 451 0 625 0 l 243 0 q 69 181 69 0 l 69 542 q 243 722 69 722 l 757 722 z "},"ꩯ":{"ha":1264,"x_min":69,"x_max":1194,"o":"m 576 542 q 472 451 472 542 l 472 271 q 576 181 472 181 l 951 181 q 1056 271 1056 181 l 1056 451 q 951 542 1056 542 l 576 542 m 333 428 l 208 547 l 208 0 l 69 0 l 69 722 l 204 722 l 338 592 q 507 722 360 722 l 1021 722 q 1194 542 1194 722 l 1194 181 q 1021 0 1194 0 l 507 0 q 333 181 333 0 l 333 428 z "},"ꩰ":{"ha":0,"x_min":-703,"x_max":-296,"o":"m -499 819 q -647 776 -604 819 l -703 881 q -499 944 -642 944 q -296 881 -357 944 l -351 776 q -499 819 -394 819 m -499 1028 q -647 985 -604 1028 l -703 1089 q -499 1153 -642 1153 q -296 1089 -357 1153 l -351 985 q -499 1028 -394 1028 z "},"ꩱ":{"ha":1722,"x_min":69,"x_max":1653,"o":"m 272 538 q 208 451 208 522 l 208 271 q 313 181 208 181 l 392 181 q 272 538 392 400 m 931 451 l 931 181 q 757 0 931 0 l 607 0 l 607 181 l 688 181 q 792 271 792 181 l 792 451 q 688 542 792 542 l 356 542 q 461 181 461 383 q 444 31 461 61 q 392 0 426 0 l 243 0 q 69 181 69 0 l 69 542 q 243 722 69 722 l 757 722 q 861 697 821 722 q 965 722 901 722 l 1479 722 q 1653 542 1653 722 l 1653 181 q 1479 0 1653 0 l 1153 0 l 1153 181 l 1410 181 q 1514 271 1514 181 l 1514 451 q 1410 542 1514 542 l 1035 542 q 931 451 931 542 z "},"ꩲ":{"ha":1722,"x_min":-69,"x_max":1653,"o":"m 861 25 q 757 0 821 0 l 608 0 l 608 181 l 688 181 q 792 271 792 181 l 792 451 q 688 542 792 542 l 313 542 q 208 451 208 542 l 208 271 q 313 181 208 181 l 243 0 l 69 0 q -69 139 -69 0 q 69 278 -69 278 l 69 542 q 243 722 69 722 l 757 722 q 861 697 821 722 q 965 722 901 722 l 1479 722 q 1653 542 1653 722 l 1653 181 q 1479 0 1653 0 l 965 0 q 861 25 901 0 m 931 271 q 1035 181 931 181 l 1410 181 q 1514 271 1514 181 l 1514 451 q 1410 542 1514 542 l 1035 542 q 931 451 931 542 l 931 271 z "},"ꩳ":{"ha":1083,"x_min":69,"x_max":1014,"o":"m 208 436 l 208 0 l 69 0 l 69 722 l 206 722 q 579 181 410 181 l 771 181 q 875 271 875 181 l 875 451 q 771 542 875 542 l 514 542 l 514 722 l 840 722 q 1014 542 1014 722 l 1014 181 q 840 0 1014 0 l 579 0 q 208 436 404 0 z "},"ꩴ":{"ha":1278,"x_min":69,"x_max":1208,"o":"m 678 542 l 678 181 l 688 181 q 792 271 792 181 l 792 451 q 688 542 792 542 l 678 542 m 451 -375 q 500 -424 451 -424 q 549 -375 549 -424 q 500 -326 549 -326 q 451 -375 451 -326 m 1208 -333 q 1035 -514 1208 -514 l 713 -514 q 600 -483 642 -514 q 500 -514 565 -514 q 361 -375 361 -514 q 500 -236 361 -236 q 539 -239 521 -236 l 539 0 l 243 0 q 69 181 69 0 l 69 542 q 243 722 69 722 l 393 722 l 393 542 l 313 542 q 208 451 208 542 l 208 271 q 313 181 208 181 l 539 181 l 539 542 q 556 692 539 661 q 608 722 574 722 l 757 722 q 931 542 931 722 l 931 181 q 757 0 931 0 l 678 0 l 678 -243 q 782 -333 678 -333 l 965 -333 q 1069 -243 1069 -333 l 1069 535 q 896 750 1069 750 l 576 750 q 403 931 403 750 l 403 1056 q 576 1236 403 1236 l 1035 1236 q 1208 1056 1208 1236 l 1069 993 q 965 1069 1069 1069 l 646 1069 q 542 993 542 1069 q 646 917 542 917 l 896 917 q 1208 597 1208 917 l 1208 -333 z "},"ꩵ":{"ha":2000,"x_min":69,"x_max":1931,"o":"m 1174 -375 q 1222 -424 1174 -424 q 1271 -375 1271 -424 q 1222 -326 1271 -326 q 1174 -375 1174 -326 m 1261 0 l 1153 0 l 1153 181 l 1410 181 q 1514 271 1514 181 l 1514 451 q 1410 542 1514 542 l 1035 542 q 931 451 931 542 l 931 181 q 757 0 931 0 l 608 0 l 608 181 l 688 181 q 792 271 792 181 l 792 451 q 688 542 792 542 l 313 542 q 208 451 208 542 l 208 410 q 393 250 208 333 l 393 0 l 69 0 l 69 181 l 235 181 q 69 389 69 285 l 69 542 q 243 722 69 722 l 757 722 q 861 697 821 722 q 965 722 901 722 l 1479 722 q 1653 542 1653 722 l 1653 181 q 1479 0 1653 0 l 1400 0 l 1400 -243 q 1504 -333 1400 -333 l 1688 -333 q 1792 -243 1792 -333 l 1792 535 q 1618 750 1792 750 l 1299 750 q 1125 931 1125 750 l 1125 1056 q 1299 1236 1125 1236 l 1757 1236 q 1931 1056 1931 1236 l 1792 993 q 1688 1069 1792 1069 l 1368 1069 q 1264 993 1264 1069 q 1368 917 1264 917 l 1618 917 q 1931 597 1931 917 l 1931 -333 q 1757 -514 1931 -514 l 1435 -514 q 1322 -483 1364 -514 q 1222 -514 1288 -514 q 1083 -375 1083 -514 q 1222 -236 1083 -236 q 1261 -239 1243 -236 l 1261 0 z "},"ꩶ":{"ha":1361,"x_min":-208,"x_max":1292,"o":"m 535 -375 q 583 -424 535 -424 q 632 -375 632 -424 q 583 -326 632 -326 q 535 -375 535 -326 m 622 0 l 514 0 l 514 181 l 771 181 q 875 271 875 181 l 875 451 q 771 542 875 542 l 396 542 q 292 451 292 542 l 292 -333 q 118 -514 292 -514 l -35 -514 q -208 -333 -208 -514 l -208 -235 q -35 -82 -208 -82 l 63 -82 l 63 -193 l 35 -193 q -69 -262 -69 -193 q 42 -333 -69 -333 q 153 -243 153 -333 l 153 440 q 76 542 153 542 q 0 440 0 542 l -139 440 q 76 722 -139 722 q 204 685 154 722 q 326 722 247 722 l 840 722 q 1014 542 1014 722 l 1014 181 q 840 0 1014 0 l 761 0 l 761 -243 q 865 -333 761 -333 l 1049 -333 q 1153 -243 1153 -333 l 1153 535 q 979 750 1153 750 l 660 750 q 486 931 486 750 l 486 1056 q 660 1236 486 1236 l 1118 1236 q 1292 1056 1292 1236 l 1153 993 q 1049 1069 1153 1069 l 729 1069 q 625 993 625 1069 q 729 917 625 917 l 979 917 q 1292 597 1292 917 l 1292 -333 q 1118 -514 1292 -514 l 796 -514 q 683 -483 725 -514 q 583 -514 649 -514 q 444 -375 444 -514 q 583 -236 444 -236 q 622 -239 604 -236 l 622 0 z "},"꩷":{"ha":1000,"x_min":69,"x_max":1140,"o":"m 810 4 l 901 -196 q 975 -250 926 -250 q 1033 -235 1001 -250 l 1065 -219 l 1140 -383 l 1046 -428 q 957 -450 997 -450 q 813 -336 864 -450 l 658 0 l 611 0 l 611 -243 q 715 -333 611 -333 l 750 -333 l 750 -514 l 646 -514 q 472 -333 472 -514 l 472 0 l 608 181 l 688 181 q 792 271 792 181 l 792 451 q 688 542 792 542 l 313 542 q 208 451 208 542 l 208 410 q 393 250 208 333 l 393 0 l 69 0 l 69 181 l 235 181 q 69 389 69 285 l 69 542 q 243 722 69 722 l 757 722 q 931 542 931 722 l 931 181 q 810 4 931 29 m 340 1069 q 236 993 236 1069 q 340 917 236 917 l 500 917 l 500 750 l 271 750 q 97 931 97 750 l 97 1056 q 271 1236 97 1236 l 729 1236 q 903 1056 903 1236 l 764 993 q 660 1069 764 1069 l 340 1069 z "},"꩸":{"ha":1236,"x_min":56,"x_max":1292,"o":"m 56 567 l 250 615 q 347 338 347 525 q 256 65 347 156 l 64 117 q 139 338 139 189 q 56 567 139 493 m 954 32 q 971 15 963 24 l 811 -139 q 583 -56 739 -56 q 363 -131 435 -56 l 311 61 q 583 153 401 153 q 783 113 703 153 l 940 596 q 1144 722 982 722 q 1201 713 1171 722 q 1292 639 1269 690 l 1226 464 q 1179 507 1217 496 q 1151 513 1164 513 q 1076 435 1101 513 l 954 32 m 811 819 l 860 625 q 583 528 769 528 q 311 619 401 528 l 363 811 q 583 736 435 736 q 811 819 739 736 z "},"꩹":{"ha":1000,"x_min":69,"x_max":931,"o":"m 608 181 l 688 181 q 792 271 792 181 l 792 451 q 688 542 792 542 l 313 542 q 208 451 208 542 l 208 410 q 393 250 208 333 l 393 0 l 69 0 l 69 181 l 235 181 q 69 389 69 285 l 69 542 q 243 722 69 722 l 757 722 q 931 542 931 722 l 931 181 q 757 0 931 0 l 611 0 l 611 -243 q 715 -333 611 -333 l 750 -333 l 750 -514 l 646 -514 q 472 -333 472 -514 l 472 0 l 608 181 z "},"ꩺ":{"ha":2000,"x_min":69,"x_max":1931,"o":"m 1069 451 q 965 542 1069 542 l 590 542 q 486 451 486 542 l 486 271 q 590 181 486 181 l 847 181 l 847 0 l 521 0 q 347 181 347 0 l 347 542 q 521 722 347 722 l 1035 722 q 1208 542 1208 722 l 1208 271 q 1313 181 1208 181 l 1688 181 q 1792 271 1792 181 l 1792 451 q 1688 542 1792 542 l 1431 542 l 1431 722 l 1757 722 q 1931 542 1931 722 l 1931 181 q 1757 0 1931 0 l 1243 0 q 1208 1 1225 0 l 1208 -333 q 1035 -514 1208 -514 l 243 -514 q 69 -333 69 -514 l 69 965 q 243 1146 69 1146 l 965 1146 q 1069 1236 1069 1146 l 1208 1236 l 1208 1146 q 1035 965 1208 965 l 313 965 q 208 875 208 965 l 208 -243 q 313 -333 208 -333 l 965 -333 q 1069 -243 1069 -333 l 1069 451 z "},"ꩻ":{"ha":486,"x_min":69,"x_max":417,"o":"m 69 139 q 278 278 69 278 q 417 139 417 278 q 278 0 417 0 q 219 8 244 0 q 371 -71 250 -36 l 349 -207 q 69 94 69 -149 l 69 139 m 215 139 q 264 90 215 90 q 313 139 313 90 q 264 188 313 188 q 215 139 215 188 z "},"◌":{"ha":826,"x_min":69,"x_max":757,"o":"m 665 581 q 632 547 665 547 q 597 581 597 547 q 632 615 597 615 q 665 581 665 615 m 564 647 q 532 614 564 614 q 497 647 497 614 q 532 682 497 682 q 564 647 564 682 m 732 481 q 697 446 732 446 q 664 481 664 446 q 699 514 664 514 q 732 481 732 514 m 757 363 q 724 329 757 329 q 689 363 689 329 q 724 396 689 396 q 757 363 757 396 m 446 672 q 413 638 446 638 q 379 672 379 638 q 413 706 379 706 q 446 672 446 706 m 329 647 q 294 614 329 614 q 261 647 261 614 q 294 682 261 682 q 329 647 329 682 m 732 244 q 697 211 732 211 q 664 244 664 211 q 697 279 664 279 q 732 244 732 279 m 229 581 q 194 547 229 547 q 161 579 161 547 q 194 615 161 615 q 229 581 229 615 m 665 143 q 632 110 665 110 q 597 143 597 110 q 632 178 597 178 q 665 143 665 178 m 564 76 q 532 44 564 44 q 497 76 497 44 q 532 111 497 111 q 564 76 564 111 m 161 481 q 129 446 161 446 q 94 481 94 446 q 128 514 94 514 q 161 481 161 514 m 138 363 q 104 329 138 329 q 69 363 69 329 q 104 396 69 396 q 138 363 138 396 m 446 54 q 413 19 446 19 q 379 54 379 19 q 413 88 379 88 q 446 54 446 88 m 161 244 q 128 211 161 211 q 94 244 94 211 q 128 279 94 279 q 161 244 161 279 m 329 79 q 294 44 329 44 q 261 76 261 44 q 294 111 261 111 q 329 79 329 111 m 229 143 q 194 110 229 110 q 161 143 161 110 q 194 178 161 178 q 229 143 229 178 z "},"!":{"ha":410,"x_min":103,"x_max":310,"o":"m 108 994 l 303 994 l 303 815 l 261 314 l 150 314 l 108 815 l 108 994 m 206 -11 q 185 -11 206 -11 q 133 19 164 -11 q 103 92 103 50 q 133 165 103 135 q 206 196 164 196 q 279 165 249 196 q 310 92 310 135 q 279 19 310 50 q 206 -11 249 -11 z "},"\"":{"ha":519,"x_min":107,"x_max":413,"o":"m 107 629 l 107 971 l 215 971 l 215 629 l 107 629 m 304 629 l 304 971 l 413 971 l 413 629 l 304 629 z "},"#":{"ha":1021,"x_min":60,"x_max":963,"o":"m 932 606 l 782 606 l 742 375 l 913 375 l 882 222 l 717 222 l 678 0 l 524 0 l 563 222 l 358 222 l 319 0 l 164 0 l 203 222 l 60 222 l 90 375 l 229 375 l 269 606 l 111 606 l 142 758 l 296 758 l 336 994 l 490 994 l 450 758 l 654 758 l 694 994 l 850 994 l 807 758 l 963 758 l 932 606 m 629 606 l 425 606 l 383 375 l 588 375 l 629 606 z "},"$":{"ha":860,"x_min":51,"x_max":796,"o":"m 393 -100 l 393 1 q 51 153 203 21 l 153 274 q 393 153 269 172 l 393 422 q 163 521 236 460 q 90 702 90 582 q 174 899 90 822 q 393 982 258 975 l 393 1051 l 482 1051 l 482 981 q 771 876 635 969 l 681 749 q 482 829 589 814 l 482 568 l 486 568 q 721 467 646 531 q 796 281 796 403 q 710 83 796 160 q 482 0 624 7 l 482 -100 l 393 -100 m 482 149 q 588 188 549 156 q 626 268 626 219 q 596 345 626 317 q 482 399 565 374 l 482 149 m 393 833 q 295 797 331 828 q 260 719 260 765 q 288 645 260 672 q 393 593 315 618 l 393 833 z "},"%":{"ha":1092,"x_min":61,"x_max":1032,"o":"m 421 930 q 451 898 421 930 q 481 774 481 865 q 420 617 481 682 q 270 551 360 551 q 121 616 181 551 q 61 772 61 681 q 122 929 61 864 q 272 994 182 994 q 421 930 361 994 m 986 971 l 275 0 l 96 0 l 807 971 l 986 971 m 328 701 q 339 715 328 701 q 350 771 350 729 q 326 841 350 813 q 269 869 303 869 q 213 841 235 869 q 190 771 190 813 q 214 701 190 729 q 272 672 238 672 q 328 701 306 672 m 972 367 q 1002 335 972 367 q 1032 211 1032 303 q 972 54 1032 119 q 822 -11 911 -11 q 672 53 732 -11 q 613 210 613 118 q 673 367 613 301 q 823 432 733 432 q 972 367 913 432 m 882 135 q 893 150 882 135 q 904 206 904 164 q 881 276 904 247 q 823 304 857 304 q 767 276 789 304 q 744 206 744 247 q 768 135 744 164 q 826 107 792 107 q 882 135 860 107 z "},"&":{"ha":964,"x_min":68,"x_max":933,"o":"m 396 -11 q 164 65 260 -11 q 68 272 68 140 q 296 551 68 429 q 216 658 239 617 q 193 764 193 700 q 275 935 193 875 q 468 994 357 994 q 657 938 579 994 q 735 778 735 881 q 513 518 735 640 q 693 310 624 382 q 760 458 736 374 l 874 378 q 792 210 838 282 q 933 72 847 153 l 829 -25 l 701 101 q 396 -11 579 -11 m 222 265 q 275 163 222 203 q 415 124 328 124 q 601 204 503 124 q 379 451 461 351 q 222 265 222 367 m 467 871 q 444 871 467 871 q 384 842 421 871 q 347 774 347 813 q 366 703 347 735 q 431 617 385 672 q 588 761 588 694 q 551 844 588 817 q 467 871 514 871 z "},"'":{"ha":322,"x_min":107,"x_max":215,"o":"m 107 629 l 107 971 l 215 971 l 215 629 l 107 629 z "},"(":{"ha":461,"x_min":69,"x_max":415,"o":"m 279 766 q 251 680 279 766 q 224 433 224 593 q 279 101 224 274 q 415 -185 335 -72 l 250 -185 q 126 85 182 -90 q 69 433 69 260 q 126 782 69 607 q 250 1051 182 957 l 415 1051 q 279 766 335 939 z "},")":{"ha":461,"x_min":46,"x_max":392,"o":"m 182 101 q 210 187 182 101 q 238 433 238 274 q 182 766 238 593 q 46 1051 126 939 l 211 1051 q 335 782 279 957 q 392 433 392 607 q 335 85 392 260 q 211 -185 279 -90 l 46 -185 q 182 101 126 -72 z "},"*":{"ha":600,"x_min":85,"x_max":515,"o":"m 468 597 l 336 686 l 347 528 l 253 528 l 264 688 l 132 599 l 85 679 l 226 750 l 85 819 l 132 901 l 263 814 l 253 971 l 347 971 l 338 814 l 468 900 l 515 819 l 372 750 l 515 679 l 468 597 z "},"+":{"ha":789,"x_min":67,"x_max":722,"o":"m 332 208 l 332 472 l 67 472 l 67 603 l 332 603 l 332 864 l 457 864 l 457 603 l 722 603 l 722 472 l 457 472 l 457 208 l 332 208 z "},",":{"ha":390,"x_min":92,"x_max":299,"o":"m 92 90 q 122 165 92 135 q 194 194 153 194 q 267 165 236 194 q 299 93 299 135 q 261 -8 299 51 l 178 -146 l 97 -146 l 149 -1 q 92 90 92 25 z "},"-":{"ha":661,"x_min":100,"x_max":561,"o":"m 100 342 l 100 488 l 561 488 l 561 342 l 100 342 z "},".":{"ha":389,"x_min":92,"x_max":299,"o":"m 122 19 q 107 35 122 19 q 92 93 92 50 q 122 166 92 136 q 194 196 151 196 q 268 166 238 196 q 299 93 299 136 q 268 19 299 50 q 194 -11 238 -11 q 122 19 151 -11 z "},"/":{"ha":815,"x_min":39,"x_max":779,"o":"m 640 1126 l 779 1126 l 178 -162 l 39 -162 l 640 1126 z "},":":{"ha":407,"x_min":100,"x_max":307,"o":"m 130 19 q 115 35 130 19 q 100 93 100 50 q 130 166 100 136 q 203 196 160 196 q 276 166 246 196 q 307 93 307 136 q 276 19 307 50 q 203 -11 246 -11 q 130 19 160 -11 m 130 360 q 115 375 130 360 q 100 433 100 390 q 130 506 100 476 q 203 536 160 536 q 276 506 246 536 q 307 433 307 476 q 276 360 307 390 q 203 329 246 329 q 130 360 160 329 z "},";":{"ha":411,"x_min":101,"x_max":310,"o":"m 101 92 q 132 166 101 136 q 205 196 163 196 q 278 166 247 196 q 310 96 310 136 q 272 -8 310 56 l 188 -146 l 107 -146 l 158 -1 q 101 92 101 28 m 131 360 q 116 375 131 360 q 101 433 101 390 q 131 506 101 476 q 204 536 161 536 q 278 506 247 536 q 308 433 308 476 q 278 360 308 390 q 204 329 247 329 q 131 360 161 329 z "},"<":{"ha":822,"x_min":63,"x_max":717,"o":"m 63 464 l 63 639 l 717 942 l 717 783 l 228 563 l 228 547 l 717 321 l 717 163 l 63 464 z "},"=":{"ha":867,"x_min":83,"x_max":783,"o":"m 83 733 l 783 733 l 783 603 l 83 603 l 83 733 m 83 472 l 783 472 l 783 342 l 83 342 l 83 472 z "},">":{"ha":822,"x_min":106,"x_max":760,"o":"m 760 639 l 760 464 l 106 163 l 106 321 l 594 547 l 594 563 l 106 783 l 106 942 l 760 639 z "},"?":{"ha":706,"x_min":50,"x_max":632,"o":"m 419 301 l 263 301 l 263 386 q 276 469 263 442 q 333 540 289 496 l 435 642 q 467 728 467 676 q 433 813 467 779 q 347 847 400 847 q 259 815 294 847 q 218 728 224 782 l 50 728 q 147 922 64 851 q 353 992 229 992 q 554 924 476 992 q 632 736 632 857 q 586 597 632 653 q 546 550 560 564 q 509 515 532 536 q 470 477 486 493 q 444 450 454 461 q 419 364 419 419 l 419 301 m 344 -7 q 322 -7 344 -7 q 268 23 300 -7 q 236 95 236 53 q 267 168 236 138 q 342 199 299 199 q 418 169 386 199 q 450 97 450 139 q 419 24 450 54 q 344 -7 388 -7 z "},"@":{"ha":1256,"x_min":71,"x_max":1190,"o":"m 619 -175 q 228 -19 386 -175 q 71 369 71 136 q 236 769 71 603 q 635 935 401 935 q 1030 769 869 935 q 1190 364 1190 603 q 1133 122 1190 214 q 982 29 1076 29 q 874 76 914 29 q 831 208 833 122 q 582 29 753 29 q 372 125 463 29 q 281 368 281 221 q 367 615 281 515 q 594 715 453 715 q 715 682 658 715 q 797 603 772 649 l 797 696 l 931 696 l 931 211 q 1007 114 931 114 q 1085 177 1050 114 q 1121 343 1121 240 q 987 719 1121 565 q 641 874 853 874 q 281 725 429 874 q 132 369 132 576 q 272 24 132 163 q 619 -114 413 -114 q 875 -31 786 -114 l 906 -82 q 776 -149 857 -124 q 619 -175 696 -175 m 799 374 q 799 419 799 374 q 746 522 799 464 q 608 581 693 581 q 472 521 524 581 q 421 374 421 461 q 472 223 421 288 q 610 158 522 158 q 748 222 697 158 q 799 374 799 285 z "},"A":{"ha":1031,"x_min":0,"x_max":1031,"o":"m 272 221 l 175 0 l 0 0 l 428 971 l 603 971 l 1031 0 l 856 0 l 758 221 l 272 221 m 692 372 l 515 772 l 339 372 l 692 372 z "},"B":{"ha":981,"x_min":135,"x_max":910,"o":"m 560 0 l 135 0 l 135 971 l 513 971 q 683 947 611 971 q 789 883 754 924 q 856 714 856 808 q 783 544 856 600 q 747 520 757 525 q 713 504 738 515 q 856 423 803 485 q 910 269 910 361 q 840 90 910 168 q 560 0 758 0 m 299 568 l 507 568 q 685 689 685 568 q 642 789 685 758 q 508 819 599 819 l 299 819 l 299 568 m 299 151 l 556 151 q 694 180 646 151 q 742 288 742 208 q 535 417 742 417 l 299 417 l 299 151 z "},"C":{"ha":1022,"x_min":72,"x_max":971,"o":"m 578 149 q 724 177 663 149 q 851 268 785 206 l 957 160 q 583 -11 803 -11 q 217 131 363 -11 q 72 489 72 272 q 220 850 72 706 q 594 994 368 994 q 971 828 819 994 l 867 714 q 735 807 797 781 q 590 833 674 833 q 343 738 443 833 q 243 495 243 643 q 342 248 243 347 q 578 149 442 149 z "},"D":{"ha":1086,"x_min":135,"x_max":1010,"o":"m 468 971 q 869 844 729 971 q 1010 490 1010 717 q 874 132 1010 264 q 457 0 738 0 l 135 0 l 135 971 l 468 971 m 844 486 q 463 819 844 819 l 299 819 l 299 154 l 481 154 q 751 238 657 154 q 844 486 844 322 z "},"E":{"ha":908,"x_min":135,"x_max":833,"o":"m 817 971 l 817 817 l 299 817 l 299 560 l 764 560 l 764 414 l 299 414 l 299 154 l 833 154 l 833 0 l 135 0 l 135 971 l 817 971 z "},"F":{"ha":839,"x_min":135,"x_max":782,"o":"m 299 818 l 299 551 l 729 551 l 729 400 l 299 400 l 299 0 l 135 0 l 135 971 l 782 971 l 781 818 l 299 818 z "},"G":{"ha":1051,"x_min":72,"x_max":971,"o":"m 807 472 l 971 472 l 971 140 q 578 -11 833 -11 q 217 131 363 -11 q 72 489 72 272 q 220 850 72 706 q 578 994 368 994 q 926 872 788 994 l 839 747 q 724 815 782 796 q 590 833 667 833 q 343 738 443 833 q 243 488 243 643 q 340 240 243 333 q 576 146 438 146 q 807 206 714 146 l 807 472 z "},"H":{"ha":1079,"x_min":135,"x_max":944,"o":"m 135 0 l 135 971 l 299 971 l 299 550 l 781 550 l 781 971 l 944 971 l 944 0 l 781 0 l 781 397 l 299 397 l 299 0 l 135 0 z "},"I":{"ha":433,"x_min":135,"x_max":299,"o":"m 135 971 l 299 971 l 299 0 l 135 0 l 135 971 z "},"J":{"ha":765,"x_min":43,"x_max":639,"o":"m 167 824 l 167 971 l 639 971 l 639 331 q 553 76 639 161 q 332 -8 467 -8 q 43 111 163 -8 l 136 240 q 321 150 231 150 q 430 193 385 150 q 475 322 475 236 l 475 824 l 167 824 z "},"K":{"ha":978,"x_min":135,"x_max":957,"o":"m 135 971 l 299 971 l 299 497 l 743 971 l 951 971 l 561 546 l 957 0 l 763 0 l 440 425 l 299 272 l 299 0 l 135 0 l 135 971 z "},"L":{"ha":786,"x_min":135,"x_max":742,"o":"m 135 0 l 135 971 l 299 971 l 299 156 l 742 156 l 742 0 l 135 0 z "},"M":{"ha":1365,"x_min":135,"x_max":1231,"o":"m 299 0 l 135 0 l 135 971 l 390 971 l 683 361 l 976 971 l 1231 971 l 1231 0 l 1067 0 l 1067 758 l 728 85 l 636 85 l 299 758 l 299 0 z "},"N":{"ha":1161,"x_min":135,"x_max":1026,"o":"m 863 971 l 1026 971 l 1026 0 l 849 0 l 299 708 l 299 0 l 135 0 l 135 971 l 299 971 l 863 246 l 863 971 z "},"O":{"ha":1167,"x_min":72,"x_max":1094,"o":"m 827 742 q 777 793 827 742 q 583 844 728 844 q 340 742 439 844 q 240 492 240 639 q 340 243 240 346 q 583 140 439 140 q 827 243 728 140 q 926 492 926 346 q 827 742 926 639 m 947 134 q 874 62 947 134 q 583 -10 800 -10 q 219 134 367 -10 q 72 492 72 278 q 219 851 72 707 q 583 994 367 994 q 947 851 800 994 q 1094 492 1094 707 q 947 134 1094 278 z "},"P":{"ha":950,"x_min":135,"x_max":892,"o":"m 468 971 q 790 886 689 971 q 892 625 892 801 q 788 367 892 449 q 471 285 685 285 l 299 285 l 299 0 l 135 0 l 135 971 l 468 971 m 489 433 q 674 485 625 433 q 724 638 724 538 q 661 781 724 739 q 465 822 599 822 l 299 822 l 299 433 l 489 433 z "},"Q":{"ha":1167,"x_min":72,"x_max":1167,"o":"m 604 -8 l 583 -10 q 219 134 367 -10 q 72 492 72 278 q 219 851 72 707 q 583 994 367 994 q 947 851 800 994 q 1094 493 1094 707 q 1007 205 1094 331 q 774 24 919 79 q 893 -39 821 -39 q 997 -11 946 -39 q 1074 61 1047 17 l 1167 -68 q 890 -196 1046 -196 q 719 -146 801 -196 q 604 -8 638 -96 m 827 742 q 777 793 827 742 q 583 844 728 844 q 340 742 439 844 q 240 492 240 639 q 340 243 240 346 q 583 140 439 140 q 827 243 728 140 q 926 492 926 346 q 827 742 926 639 z "},"R":{"ha":1011,"x_min":135,"x_max":954,"o":"m 910 656 q 700 353 910 415 l 954 0 l 746 0 l 514 326 l 299 326 l 299 0 l 135 0 l 135 971 l 496 971 q 814 896 718 971 q 910 656 910 821 m 503 475 q 692 518 642 475 q 742 656 742 561 q 690 787 742 751 q 507 822 639 822 l 299 822 l 299 475 l 503 475 z "},"S":{"ha":875,"x_min":56,"x_max":807,"o":"m 428 843 q 393 843 428 843 q 311 814 357 843 q 265 726 265 785 q 311 635 265 667 q 506 568 357 604 q 731 467 656 532 q 807 274 807 401 q 711 68 807 147 q 460 -11 615 -11 q 56 146 232 -11 l 158 269 q 464 142 306 142 q 590 176 543 142 q 636 266 636 210 q 592 353 636 322 q 442 410 549 385 q 279 458 335 436 q 181 514 224 479 q 94 714 94 579 q 192 922 94 849 q 435 994 290 994 q 619 964 528 994 q 778 878 711 933 l 690 754 q 574 818 647 793 q 428 843 500 843 z "},"T":{"ha":839,"x_min":43,"x_max":796,"o":"m 501 821 l 501 0 l 338 0 l 338 821 l 43 821 l 43 971 l 796 971 l 796 821 l 501 821 z "},"U":{"ha":1067,"x_min":122,"x_max":944,"o":"m 353 222 q 386 183 353 222 q 533 144 419 144 q 714 222 647 144 q 781 433 781 300 l 781 971 l 944 971 l 944 426 q 829 103 944 217 q 533 -10 714 -10 q 238 103 353 -10 q 122 426 122 217 l 122 971 l 286 971 l 286 433 q 353 222 286 300 z "},"V":{"ha":972,"x_min":4,"x_max":968,"o":"m 578 0 l 394 0 l 4 971 l 188 971 l 486 246 l 785 971 l 968 971 l 578 0 z "},"W":{"ha":1456,"x_min":17,"x_max":1439,"o":"m 438 272 l 654 971 l 801 971 l 1018 272 l 1263 971 l 1439 971 l 1100 0 l 938 0 l 733 665 l 722 665 l 518 0 l 356 0 l 17 971 l 193 971 l 438 272 z "},"X":{"ha":935,"x_min":21,"x_max":914,"o":"m 710 0 l 471 365 l 464 365 l 225 0 l 21 0 l 354 499 l 44 971 l 247 971 l 464 643 l 471 643 l 688 971 l 890 971 l 581 499 l 914 0 l 710 0 z "},"Y":{"ha":867,"x_min":-11,"x_max":878,"o":"m 517 0 l 350 0 l 350 383 l -11 971 l 168 971 l 433 529 l 699 971 l 878 971 l 517 383 l 517 0 z "},"Z":{"ha":938,"x_min":65,"x_max":867,"o":"m 631 821 l 83 821 l 83 971 l 858 971 l 858 843 l 294 156 l 294 151 l 867 151 l 867 0 l 65 0 l 65 126 l 631 817 l 631 821 z "},"[":{"ha":493,"x_min":122,"x_max":436,"o":"m 436 1051 l 436 935 l 244 935 l 244 -78 l 436 -78 l 436 -194 l 122 -194 l 122 1051 l 436 1051 z "},"\\":{"ha":725,"x_min":39,"x_max":683,"o":"m 39 1051 l 178 1051 l 683 0 l 544 0 l 39 1051 z "},"]":{"ha":493,"x_min":57,"x_max":371,"o":"m 57 935 l 57 1051 l 371 1051 l 371 -194 l 57 -194 l 57 -78 l 249 -78 l 249 935 l 57 935 z "},"^":{"ha":547,"x_min":31,"x_max":510,"o":"m 379 1031 l 272 1146 l 165 1031 l 31 1031 l 200 1247 l 342 1247 l 510 1031 l 379 1031 z "},"_":{"ha":1003,"x_min":100,"x_max":903,"o":"m 100 -192 l 100 -112 l 903 -112 l 903 -192 l 100 -192 z "},"`":{"ha":1157,"x_min":439,"x_max":750,"o":"m 750 833 l 608 833 l 439 967 l 603 1035 l 750 833 z "},"a":{"ha":815,"x_min":57,"x_max":711,"o":"m 711 0 l 569 0 l 569 99 q 324 -11 478 -11 q 133 54 208 -11 q 57 228 57 119 q 138 392 57 338 q 356 446 218 446 l 557 446 l 557 474 q 393 621 557 621 q 179 546 290 621 l 110 643 q 415 750 244 750 q 628 684 546 750 q 711 476 711 618 l 711 0 m 556 275 l 556 338 l 381 338 q 213 232 213 338 q 254 149 213 178 q 370 121 296 121 q 500 163 444 121 q 556 275 556 204 z "},"b":{"ha":933,"x_min":113,"x_max":868,"o":"m 508 750 q 583 750 508 750 q 763 647 657 750 q 868 374 868 544 q 763 96 868 203 q 519 -11 658 -11 q 268 111 379 -11 l 268 0 l 113 0 l 113 1031 l 268 1031 l 268 610 q 508 750 360 750 m 265 368 q 265 315 265 368 q 329 195 265 263 q 485 128 393 128 q 644 194 576 128 q 713 367 713 261 q 646 544 713 474 q 486 614 579 614 q 329 544 393 614 q 265 368 265 474 z "},"c":{"ha":800,"x_min":64,"x_max":751,"o":"m 440 -11 q 175 94 286 -11 q 64 368 64 199 q 180 644 64 538 q 463 750 296 750 q 744 635 629 750 l 653 522 q 460 606 557 606 q 291 541 363 606 q 219 374 219 476 q 290 201 219 272 q 465 131 361 131 q 660 225 568 131 l 751 125 q 440 -11 617 -11 z "},"d":{"ha":933,"x_min":65,"x_max":821,"o":"m 414 -11 q 169 94 274 -11 q 65 372 65 200 q 172 647 65 544 q 427 750 279 750 q 665 625 575 750 l 665 1031 l 821 1031 l 821 0 l 665 0 l 665 111 q 414 -11 579 -11 m 221 366 q 221 313 221 366 q 289 193 221 260 q 449 126 357 126 q 604 194 540 126 q 668 367 668 261 q 604 543 668 472 q 447 614 540 614 q 288 543 354 614 q 221 366 221 472 z "},"e":{"ha":858,"x_min":65,"x_max":800,"o":"m 800 301 l 221 301 q 294 172 226 221 q 450 122 363 122 q 661 210 589 122 l 750 113 q 439 -11 631 -11 q 174 92 283 -11 q 65 370 65 196 q 176 647 65 544 q 438 750 288 750 q 694 659 589 750 q 800 408 800 568 l 800 301 m 221 424 l 644 424 q 586 567 644 517 q 442 617 528 617 q 289 565 357 617 q 221 424 221 513 z "},"f":{"ha":536,"x_min":56,"x_max":569,"o":"m 304 800 l 304 739 l 499 739 l 499 614 l 304 614 l 304 0 l 149 0 l 149 614 l 56 614 l 56 739 l 149 739 l 149 796 q 219 981 149 913 q 388 1050 289 1050 q 569 976 488 1050 l 506 867 q 410 915 460 915 q 332 884 360 915 q 304 800 304 853 z "},"g":{"ha":908,"x_min":67,"x_max":796,"o":"m 796 739 l 796 94 q 690 -199 796 -101 q 417 -297 583 -297 q 115 -193 250 -297 l 189 -75 q 408 -157 297 -157 q 583 -100 518 -157 q 647 82 647 -43 l 647 176 q 548 72 613 111 q 403 33 483 33 q 161 136 256 33 q 67 392 67 239 q 161 647 67 544 q 402 750 256 750 q 640 629 549 750 l 640 739 l 796 739 m 219 398 q 219 352 219 398 q 276 241 219 307 q 427 175 332 175 q 581 239 522 175 q 640 398 640 303 q 581 559 640 493 q 426 625 521 625 q 276 557 332 625 q 219 398 219 489 z "},"h":{"ha":897,"x_min":113,"x_max":793,"o":"m 268 400 l 268 0 l 113 0 l 113 1029 l 268 1029 l 268 604 q 369 711 301 672 q 514 750 436 750 q 716 674 639 750 q 793 453 793 597 l 793 0 l 638 0 l 638 406 q 468 610 638 610 q 328 556 388 610 q 268 400 268 503 z "},"i":{"ha":381,"x_min":93,"x_max":290,"o":"m 268 0 l 113 0 l 113 739 l 268 739 l 268 0 m 122 886 q 108 901 122 886 q 93 956 93 915 q 122 1025 93 996 q 192 1054 151 1054 q 261 1025 232 1054 q 290 956 290 996 q 261 886 290 915 q 192 857 232 857 q 122 886 151 857 z "},"j":{"ha":381,"x_min":-153,"x_max":288,"o":"m 113 -35 l 113 739 l 268 739 l 268 -40 q 198 -226 268 -157 q 28 -294 128 -294 q -153 -221 -71 -294 l -81 -104 q 15 -150 -33 -150 q 88 -119 63 -150 q 113 -35 113 -89 m 119 886 q 105 901 119 886 q 90 956 90 915 q 119 1025 90 996 q 189 1054 149 1054 q 258 1025 229 1054 q 288 956 288 996 q 258 886 288 915 q 189 857 229 857 q 119 886 149 857 z "},"k":{"ha":807,"x_min":113,"x_max":789,"o":"m 268 0 l 113 0 l 113 1031 l 268 1031 l 268 425 l 568 739 l 768 739 l 488 446 l 789 0 l 600 0 l 381 324 l 268 210 l 268 0 z "},"l":{"ha":381,"x_min":113,"x_max":268,"o":"m 268 0 l 113 0 l 113 1031 l 268 1031 l 268 0 z "},"m":{"ha":1408,"x_min":113,"x_max":1304,"o":"m 268 400 l 268 0 l 113 0 l 113 739 l 268 739 l 268 604 q 369 711 301 672 q 514 750 436 750 q 751 606 689 750 q 1025 750 861 750 q 1227 674 1150 750 q 1304 453 1304 597 l 1304 0 l 1149 0 l 1149 406 q 979 610 1149 610 q 841 559 900 610 q 779 411 782 508 l 779 0 l 624 0 l 624 406 q 586 560 624 511 q 468 610 549 610 q 328 556 388 610 q 268 400 268 503 z "},"n":{"ha":897,"x_min":113,"x_max":793,"o":"m 268 400 l 268 0 l 113 0 l 113 739 l 268 739 l 268 604 q 372 711 306 672 q 514 750 438 750 q 716 674 639 750 q 793 453 793 597 l 793 0 l 638 0 l 638 406 q 468 610 638 610 q 328 556 388 610 q 268 400 268 503 z "},"o":{"ha":906,"x_min":64,"x_max":842,"o":"m 285 195 q 318 161 285 195 q 453 128 351 128 q 620 195 554 128 q 686 369 686 263 q 620 544 686 476 q 453 611 554 611 q 285 544 351 611 q 219 369 219 476 q 285 195 219 263 m 731 99 q 675 44 731 99 q 453 -11 619 -11 q 175 99 286 -11 q 64 369 64 210 q 175 640 64 529 q 453 750 286 750 q 731 640 619 750 q 842 369 842 529 q 731 99 842 210 z "},"p":{"ha":933,"x_min":113,"x_max":868,"o":"m 508 750 q 583 750 508 750 q 763 647 657 750 q 868 374 868 544 q 763 96 868 203 q 519 -11 658 -11 q 268 111 379 -11 l 268 -269 l 113 -269 l 113 739 l 268 739 l 268 610 q 508 750 360 750 m 265 368 q 265 315 265 368 q 329 195 265 263 q 485 128 393 128 q 644 194 576 128 q 713 367 713 261 q 646 544 713 474 q 486 614 579 614 q 329 544 393 614 q 265 368 265 474 z "},"q":{"ha":933,"x_min":65,"x_max":821,"o":"m 415 -11 q 345 -11 415 -11 q 170 96 275 -11 q 65 374 65 203 q 171 647 65 544 q 425 750 276 750 q 665 610 574 750 l 665 739 l 821 739 l 821 -269 l 665 -269 l 665 111 q 415 -11 554 -11 m 221 367 q 221 314 221 367 q 289 194 221 261 q 449 128 357 128 q 604 195 540 128 q 668 368 668 263 q 604 544 668 474 q 447 614 540 614 q 288 544 354 614 q 221 367 221 474 z "},"r":{"ha":551,"x_min":113,"x_max":508,"o":"m 500 593 q 326 518 385 593 q 268 317 268 443 l 268 0 l 113 0 l 113 739 l 268 739 l 268 590 q 370 704 306 660 q 507 750 435 749 l 508 593 q 500 593 504 593 z "},"s":{"ha":703,"x_min":46,"x_max":639,"o":"m 639 221 q 639 168 639 221 q 563 52 639 115 q 367 -11 486 -11 q 199 18 286 -11 q 46 100 113 47 l 121 221 q 371 124 250 124 q 454 148 424 124 q 485 210 485 172 q 338 310 485 265 q 321 315 326 314 q 90 524 90 378 q 170 688 90 626 q 378 750 250 750 q 619 675 506 750 l 561 560 q 365 619 471 619 q 275 599 310 619 q 240 539 240 579 q 276 486 240 503 q 347 463 301 474 q 426 440 392 451 q 494 415 461 429 q 564 376 526 401 q 639 221 639 326 z "},"t":{"ha":581,"x_min":56,"x_max":569,"o":"m 304 614 l 304 239 q 332 155 304 186 q 410 124 360 124 q 506 172 460 124 l 569 63 q 388 -11 488 -11 q 219 58 289 -11 q 149 243 149 126 l 149 614 l 56 614 l 56 739 l 149 739 l 149 971 l 304 971 l 304 739 l 499 739 l 499 614 l 304 614 z "},"u":{"ha":897,"x_min":104,"x_max":785,"o":"m 629 339 l 629 739 l 785 739 l 785 0 l 629 0 l 629 135 q 526 28 592 67 q 383 -11 460 -11 q 181 65 258 -11 q 104 286 104 142 l 104 739 l 260 739 l 260 333 q 429 129 260 129 q 569 183 510 129 q 629 339 629 236 z "},"v":{"ha":794,"x_min":11,"x_max":783,"o":"m 308 0 l 11 739 l 172 739 l 397 181 l 622 739 l 783 739 l 486 0 l 308 0 z "},"w":{"ha":1267,"x_min":25,"x_max":1242,"o":"m 458 0 l 281 0 l 25 739 l 186 739 l 369 181 l 553 739 l 714 739 l 897 181 l 1081 739 l 1242 739 l 986 0 l 808 0 l 633 506 l 458 0 z "},"x":{"ha":775,"x_min":26,"x_max":749,"o":"m 231 739 l 389 496 l 553 739 l 738 739 l 479 378 l 749 0 l 557 0 l 381 246 l 208 0 l 26 0 l 289 376 l 40 739 l 231 739 z "},"y":{"ha":797,"x_min":13,"x_max":788,"o":"m 206 -294 q 22 -221 104 -294 l 93 -94 q 194 -140 142 -140 q 278 -103 246 -140 q 311 -21 311 -65 q 13 739 311 -1 l 179 739 l 400 194 l 621 739 l 788 739 l 429 -139 q 338 -253 397 -211 q 206 -294 278 -294 z "},"z":{"ha":751,"x_min":61,"x_max":689,"o":"m 89 603 l 89 736 l 667 736 l 667 596 l 251 135 l 689 135 l 689 0 l 61 0 l 61 151 l 465 603 l 89 603 z "},"{":{"ha":467,"x_min":56,"x_max":394,"o":"m 383 924 q 297 844 297 924 l 297 543 q 206 429 297 446 q 297 317 297 414 l 297 -10 q 317 -60 297 -46 q 394 -74 338 -74 l 394 -203 l 347 -203 q 158 -19 158 -203 l 158 281 q 142 345 158 326 q 89 364 125 364 l 56 364 l 56 493 l 89 493 q 142 513 125 493 q 158 579 158 532 l 158 868 q 347 1051 158 1051 l 394 1051 l 394 922 q 383 924 390 924 z "},"|":{"ha":357,"x_min":121,"x_max":236,"o":"m 121 -212 l 121 1086 l 236 1086 l 236 -212 l 121 -212 z "},"}":{"ha":467,"x_min":72,"x_max":411,"o":"m 119 -203 l 72 -203 l 72 -74 q 149 -60 129 -74 q 169 -10 169 -46 l 169 317 q 261 429 169 414 q 169 543 169 446 l 169 844 q 147 906 169 888 q 101 925 124 925 l 97 925 l 72 922 l 72 1051 l 119 1051 q 308 868 308 1051 l 308 579 q 325 513 308 532 q 378 493 342 493 l 411 493 l 411 364 l 378 364 q 325 345 342 364 q 308 281 308 326 l 308 -19 q 119 -203 308 -203 z "},"~":{"ha":785,"x_min":69,"x_max":715,"o":"m 256 514 q 190 424 200 514 l 69 458 q 128 605 78 556 q 257 654 178 654 q 425 597 319 654 q 528 561 494 561 q 593 651 583 561 l 715 617 q 656 469 707 519 q 526 419 606 419 q 358 478 467 419 q 256 514 289 514 z "},"¡":{"ha":408,"x_min":101,"x_max":308,"o":"m 300 -11 l 107 -11 l 107 164 l 149 665 l 260 665 l 300 164 l 300 -11 m 205 783 q 184 783 205 783 q 132 814 163 783 q 101 887 101 844 q 132 960 101 929 q 205 990 163 990 q 278 960 247 990 q 308 887 308 929 q 278 814 308 844 q 205 783 247 783 z "},"¢":{"ha":814,"x_min":68,"x_max":756,"o":"m 401 -169 l 401 -8 q 165 109 261 7 q 68 367 68 211 q 164 624 68 522 q 401 746 260 726 l 401 911 l 490 911 l 490 749 q 749 635 647 736 l 657 522 q 490 603 572 594 l 490 132 q 664 225 582 142 l 756 125 q 490 -8 640 7 l 490 -169 l 401 -169 m 401 597 q 274 519 325 579 q 224 373 224 458 q 273 224 224 288 q 401 139 322 160 l 401 597 z "},"£":{"ha":856,"x_min":82,"x_max":782,"o":"m 365 717 l 365 535 l 597 535 l 597 399 l 365 399 l 365 146 l 779 146 l 779 0 l 88 0 l 88 146 l 201 146 l 201 399 l 82 399 l 82 535 l 201 535 l 201 708 q 286 953 201 876 q 508 1031 371 1031 q 782 875 690 1031 l 667 783 q 519 878 610 878 q 409 840 453 878 q 365 717 365 801 z "},"¤":{"ha":1049,"x_min":83,"x_max":965,"o":"m 208 211 q 135 439 135 311 q 206 664 135 567 l 83 786 l 182 883 l 307 760 q 522 821 401 821 q 742 758 643 821 l 867 883 l 965 786 l 842 663 q 913 438 913 563 q 838 213 913 314 l 965 86 l 868 -11 l 736 118 q 524 60 643 60 q 311 118 404 60 l 181 -11 l 83 86 l 208 211 m 363 272 q 394 240 363 272 q 524 207 426 207 q 685 272 621 207 q 749 440 749 338 q 685 608 749 543 q 524 672 621 672 q 363 608 426 672 q 299 440 299 543 q 363 272 299 338 z "},"¥":{"ha":993,"x_min":49,"x_max":949,"o":"m 142 294 l 406 294 l 406 369 l 400 378 l 142 378 l 142 500 l 328 500 l 49 971 l 228 971 l 490 525 l 500 525 l 772 971 l 949 971 l 660 500 l 842 500 l 842 378 l 585 378 l 581 369 l 581 294 l 842 294 l 842 172 l 579 172 l 579 0 l 406 0 l 406 172 l 142 172 l 142 294 z "},"¦":{"ha":383,"x_min":126,"x_max":257,"o":"m 126 597 l 126 1051 l 257 1051 l 257 597 l 126 597 m 126 -33 l 126 421 l 257 421 l 257 -33 l 126 -33 z "},"§":{"ha":847,"x_min":71,"x_max":788,"o":"m 201 440 q 283 332 201 375 q 490 289 364 289 q 610 319 563 289 q 658 395 658 350 q 626 469 658 440 q 544 514 594 499 q 367 543 444 543 q 246 516 290 543 q 201 440 201 489 m 418 900 q 317 871 354 900 q 281 795 281 842 q 321 721 281 749 q 503 659 361 693 q 717 571 646 625 q 788 415 788 517 q 743 290 788 346 q 604 211 699 233 q 700 139 668 188 q 732 39 732 90 q 651 -124 732 -57 q 433 -192 569 -192 q 82 -56 235 -192 l 171 50 q 438 -62 307 -62 q 586 32 586 -62 q 540 106 586 76 q 358 174 493 135 q 147 270 222 214 q 71 435 71 326 q 117 557 71 501 q 244 628 163 613 q 132 783 132 672 q 213 963 132 894 q 421 1031 294 1031 q 579 1008 511 1031 q 718 935 647 986 l 639 824 q 418 900 536 900 z "},"¨":{"ha":847,"x_min":231,"x_max":658,"o":"m 315 835 q 297 835 315 835 q 255 860 279 835 q 231 920 231 885 q 256 981 231 956 q 316 1006 281 1006 q 376 981 351 1006 q 401 922 401 957 q 376 860 401 886 q 315 835 350 835 m 573 835 q 555 835 573 835 q 513 860 538 835 q 488 920 488 885 q 513 981 488 956 q 573 1006 538 1006 q 633 981 608 1006 q 658 922 658 957 q 633 860 658 886 q 573 835 608 835 z "},"©":{"ha":1156,"x_min":75,"x_max":1081,"o":"m 933 842 q 1007 768 933 842 q 1081 488 1081 694 q 933 132 1081 281 q 576 -17 786 -17 q 221 131 367 -17 q 75 485 75 278 q 222 840 75 692 q 578 989 369 989 q 933 842 786 989 m 891 174 q 955 239 891 174 q 1019 486 1019 304 q 892 797 1019 668 q 581 926 765 926 q 268 797 396 926 q 140 484 140 667 q 267 172 140 301 q 578 43 393 43 q 891 174 763 43 m 810 311 q 594 213 715 213 q 393 288 474 213 q 313 488 313 364 q 396 688 313 611 q 603 764 479 764 q 806 681 726 764 l 739 599 q 597 660 667 660 q 476 613 528 660 q 424 492 424 567 q 476 367 424 418 q 603 315 528 315 q 743 383 679 315 l 810 311 z "},"ª":{"ha":489,"x_min":82,"x_max":385,"o":"m 385 647 l 319 647 l 319 693 q 215 642 276 642 q 117 672 153 642 q 82 753 82 703 q 219 854 82 854 l 314 854 l 314 867 q 238 935 314 935 q 139 900 192 935 l 107 946 q 239 994 168 994 q 385 868 385 994 l 385 647 m 313 775 l 313 804 l 232 804 q 154 754 154 804 q 174 716 154 729 q 227 703 193 703 q 287 723 261 703 q 313 775 313 743 z "},"«":{"ha":760,"x_min":78,"x_max":668,"o":"m 393 578 l 233 333 l 393 89 l 243 89 l 78 333 l 243 578 l 393 578 m 668 578 l 508 333 l 668 89 l 518 89 l 353 333 l 518 578 l 668 578 z "},"¬":{"ha":1150,"x_min":93,"x_max":1022,"o":"m 93 618 l 1022 618 l 1022 122 l 908 122 l 908 496 l 93 496 l 93 618 z "},"®":{"ha":1156,"x_min":75,"x_max":1081,"o":"m 933 842 q 1007 768 933 842 q 1081 488 1081 694 q 933 132 1081 281 q 576 -17 786 -17 q 221 131 367 -17 q 75 485 75 278 q 222 840 75 692 q 578 989 369 989 q 933 842 786 989 m 891 174 q 955 239 891 174 q 1019 486 1019 304 q 892 797 1019 668 q 581 926 765 926 q 268 797 396 926 q 140 484 140 667 q 267 172 140 301 q 578 43 393 43 q 891 174 763 43 m 821 583 q 703 414 821 449 l 847 218 l 731 218 l 600 400 l 481 400 l 481 218 l 386 218 l 386 761 l 590 761 q 767 719 714 761 q 821 583 821 676 m 593 483 q 699 507 671 483 q 728 584 728 531 q 699 658 728 638 q 596 679 669 679 l 481 679 l 481 483 l 593 483 z "},"¯":{"ha":589,"x_min":82,"x_max":508,"o":"m 508 954 l 508 833 l 82 833 l 82 954 l 508 954 z "},"°":{"ha":578,"x_min":75,"x_max":503,"o":"m 138 931 q 169 962 138 931 q 289 993 200 993 q 440 931 378 993 q 503 779 503 868 q 440 628 503 690 q 289 567 378 567 q 138 628 200 567 q 75 779 75 690 q 138 931 75 868 m 147 779 q 147 750 147 779 q 188 679 147 721 q 288 638 229 638 q 388 679 347 638 q 429 779 429 721 q 388 878 429 838 q 288 919 347 919 q 188 878 229 919 q 147 779 147 838 z "},"±":{"ha":789,"x_min":67,"x_max":722,"o":"m 332 383 l 332 571 l 67 571 l 67 701 l 332 701 l 332 886 l 457 886 l 457 701 l 722 701 l 722 571 l 457 571 l 457 383 l 332 383 m 67 306 l 722 306 l 722 189 l 67 189 l 67 306 z "},"²":{"ha":582,"x_min":92,"x_max":486,"o":"m 269 668 q 352 760 328 726 q 376 827 376 793 q 351 885 376 861 q 285 908 325 908 q 168 838 214 908 l 92 882 q 286 994 165 994 q 415 949 361 994 q 468 826 468 904 q 445 744 468 783 q 361 640 422 704 l 229 506 l 486 506 l 486 414 l 99 414 l 99 494 l 269 668 z "},"³":{"ha":550,"x_min":75,"x_max":471,"o":"m 107 885 l 107 971 l 443 971 l 443 894 l 304 739 q 427 690 383 738 q 471 565 471 642 q 412 439 471 489 q 258 389 353 389 q 75 449 164 389 l 117 526 q 264 478 185 478 q 347 501 314 478 q 379 568 379 524 q 343 639 379 613 q 259 665 307 665 q 181 656 211 665 l 181 729 l 314 885 l 107 885 z "},"´":{"ha":1157,"x_min":469,"x_max":781,"o":"m 611 872 l 469 872 l 617 1074 l 781 1006 l 611 872 z "},"µ":{"ha":892,"x_min":119,"x_max":800,"o":"m 119 -269 l 119 739 l 275 739 l 275 333 q 444 129 275 129 q 585 183 525 129 q 644 339 644 236 l 644 739 l 800 739 l 800 0 l 644 0 l 644 135 q 541 28 607 67 q 403 -11 475 -11 q 275 13 331 -11 l 275 -269 l 119 -269 z "},"¶":{"ha":932,"x_min":49,"x_max":794,"o":"m 49 772 q 131 971 49 890 q 379 1051 213 1051 l 794 1051 l 794 -156 l 665 -156 l 665 919 l 510 919 l 510 -156 l 385 -156 l 385 510 q 321 506 351 506 q 188 532 244 506 q 103 600 131 558 q 49 772 49 681 z "},"·":{"ha":404,"x_min":99,"x_max":306,"o":"m 128 369 q 114 385 128 369 q 99 443 99 400 q 128 516 99 486 q 201 546 158 546 q 275 516 244 546 q 306 443 306 486 q 275 369 306 400 q 201 339 244 339 q 128 369 158 339 z "},"¸":{"ha":390,"x_min":58,"x_max":326,"o":"m 326 -162 q 283 -255 326 -215 q 174 -294 240 -294 q 58 -264 108 -294 l 94 -185 q 148 -199 121 -199 q 190 -183 175 -199 q 206 -144 206 -167 q 190 -105 206 -122 q 149 -87 174 -87 q 108 -94 125 -87 l 158 0 l 257 0 l 229 -53 q 326 -162 326 -65 z "},"¹":{"ha":372,"x_min":57,"x_max":263,"o":"m 57 971 l 263 971 l 263 403 l 172 403 l 172 886 l 57 886 l 57 971 z "},"º":{"ha":525,"x_min":78,"x_max":447,"o":"m 183 732 q 198 716 183 732 q 263 700 214 700 q 342 732 311 700 q 374 815 374 764 q 342 897 374 865 q 263 929 311 929 q 183 897 214 929 q 151 815 151 865 q 183 732 151 764 m 394 685 q 368 659 394 685 q 263 633 342 633 q 131 685 183 633 q 78 814 78 738 q 131 942 78 890 q 263 994 183 994 q 394 942 342 994 q 447 814 447 890 q 394 685 447 738 z "},"»":{"ha":760,"x_min":92,"x_max":682,"o":"m 526 333 l 367 578 l 517 578 l 682 333 l 517 89 l 367 89 l 526 333 m 251 333 l 92 578 l 242 578 l 407 333 l 242 89 l 92 89 l 251 333 z "},"¼":{"ha":1199,"x_min":49,"x_max":1144,"o":"m 821 1051 l 921 1051 l 403 -11 l 303 -11 l 821 1051 m 985 231 l 985 335 l 1075 335 l 1075 231 l 1144 231 l 1144 143 l 1075 143 l 1075 0 l 985 0 l 985 143 l 742 143 l 742 228 l 949 568 l 1054 568 l 849 231 l 985 231 m 49 971 l 254 971 l 254 403 l 164 403 l 164 886 l 49 886 l 49 971 z "},"½":{"ha":1289,"x_min":49,"x_max":1228,"o":"m 865 1051 l 965 1051 l 447 -11 l 347 -11 l 865 1051 m 1013 254 q 1094 346 1069 313 q 1118 413 1118 379 q 1092 471 1118 447 q 1026 494 1067 494 q 910 424 958 494 l 835 468 q 1028 581 908 581 q 1157 535 1103 581 q 1211 413 1211 490 q 1188 329 1211 369 q 1104 226 1165 289 l 971 92 l 1228 92 l 1228 0 l 840 0 l 840 81 l 1013 254 m 49 971 l 254 971 l 254 403 l 164 403 l 164 886 l 49 886 l 49 971 z "},"¾":{"ha":1251,"x_min":56,"x_max":1201,"o":"m 878 1051 l 978 1051 l 460 -11 l 360 -11 l 878 1051 m 1042 231 l 1042 335 l 1132 335 l 1132 231 l 1201 231 l 1201 143 l 1132 143 l 1132 0 l 1042 0 l 1042 143 l 799 143 l 799 228 l 1006 568 l 1111 568 l 906 231 l 1042 231 m 88 885 l 88 971 l 424 971 l 424 894 l 285 739 q 408 690 364 738 q 451 565 451 642 q 392 439 451 489 q 239 389 333 389 q 56 449 144 389 l 97 526 q 244 478 165 478 q 327 501 294 478 q 360 568 360 524 q 324 639 360 613 q 240 665 288 665 q 161 656 192 665 l 161 729 l 294 885 l 88 885 z "},"¿":{"ha":706,"x_min":74,"x_max":656,"o":"m 286 681 l 443 681 l 443 596 q 430 513 443 540 q 372 442 417 486 l 271 340 q 239 254 239 306 q 272 169 239 203 q 358 135 306 135 q 447 167 411 135 q 488 254 482 200 l 656 254 q 559 60 642 131 q 353 -10 476 -10 q 151 58 229 -10 q 74 246 74 125 q 119 385 74 329 q 160 432 146 418 q 197 467 174 446 q 235 505 219 489 q 261 533 251 521 q 286 618 286 563 l 286 681 m 362 989 q 384 989 362 989 q 438 959 406 989 q 469 887 469 929 q 438 814 469 844 q 363 783 407 783 q 288 813 319 783 q 256 885 256 843 q 287 958 256 928 q 362 989 318 989 z "},"À":{"ha":1014,"x_min":0,"x_max":1014,"o":"m 586 971 l 1014 0 l 833 0 l 735 221 l 269 221 l 175 0 l 0 0 l 428 971 l 586 971 m 669 372 l 503 746 l 338 372 l 669 372 m 583 1051 l 442 1051 l 272 1185 l 436 1253 l 583 1051 z "},"Á":{"ha":1031,"x_min":0,"x_max":1031,"o":"m 272 221 l 175 0 l 0 0 l 428 971 l 603 971 l 1031 0 l 856 0 l 758 221 l 272 221 m 692 372 l 515 772 l 339 372 l 692 372 m 590 1053 l 449 1053 l 596 1254 l 760 1186 l 590 1053 z "},"Â":{"ha":1014,"x_min":0,"x_max":1014,"o":"m 586 971 l 1014 0 l 833 0 l 735 221 l 269 221 l 175 0 l 0 0 l 428 971 l 586 971 m 669 372 l 503 746 l 338 372 l 669 372 m 429 1238 l 574 1238 l 743 1051 l 608 1051 l 501 1129 l 394 1051 l 260 1051 l 429 1238 z "},"Ã":{"ha":1014,"x_min":0,"x_max":1014,"o":"m 586 971 l 1014 0 l 833 0 l 735 221 l 269 221 l 175 0 l 0 0 l 428 971 l 586 971 m 669 372 l 503 746 l 338 372 l 669 372 m 608 1047 q 508 1080 572 1047 q 425 1113 443 1113 q 378 1051 379 1113 l 275 1051 q 308 1182 275 1132 q 399 1232 340 1232 q 503 1199 436 1232 q 590 1167 569 1167 q 632 1228 632 1167 l 736 1228 q 608 1047 732 1047 z "},"Ä":{"ha":1014,"x_min":0,"x_max":1014,"o":"m 586 971 l 1014 0 l 833 0 l 735 221 l 269 221 l 175 0 l 0 0 l 428 971 l 586 971 m 669 372 l 503 746 l 338 372 l 669 372 m 378 1046 q 360 1046 378 1046 q 317 1071 342 1046 q 293 1131 293 1096 q 317 1192 293 1167 q 378 1217 342 1217 q 439 1192 414 1217 q 464 1133 464 1168 q 439 1072 464 1097 q 378 1046 414 1046 m 635 1046 q 617 1046 635 1046 q 575 1071 600 1046 q 550 1131 550 1096 q 575 1192 550 1167 q 635 1217 600 1217 q 696 1192 671 1217 q 721 1133 721 1168 q 695 1072 721 1097 q 635 1046 669 1046 z "},"Å":{"ha":1014,"x_min":0,"x_max":1014,"o":"m 507 1217 q 537 1217 507 1217 q 613 1173 567 1217 q 658 1063 658 1129 q 593 953 658 997 l 1014 0 l 833 0 l 735 221 l 269 221 l 175 0 l 0 0 l 419 954 q 357 1064 357 999 q 402 1173 357 1129 q 507 1217 447 1217 m 669 372 l 503 746 l 338 372 l 669 372 m 508 994 q 525 994 508 994 q 563 1016 542 994 q 583 1072 583 1038 q 563 1127 583 1106 q 508 1149 542 1149 q 452 1127 474 1149 q 431 1072 431 1106 q 452 1016 431 1038 q 508 994 474 994 z "},"Æ":{"ha":1444,"x_min":-15,"x_max":1369,"o":"m 1353 971 l 1353 818 l 835 818 l 835 551 l 1300 551 l 1300 408 l 835 408 l 835 153 l 1369 153 l 1369 0 l 656 0 l 656 221 l 304 221 l 186 0 l -15 0 l 493 971 l 1353 971 m 656 378 l 656 818 l 615 818 l 383 378 l 656 378 z "},"Ç":{"ha":1022,"x_min":72,"x_max":971,"o":"m 578 149 q 724 177 663 149 q 851 268 785 206 l 957 160 q 604 -10 813 -1 l 582 -53 q 679 -162 679 -65 q 636 -255 679 -215 q 527 -294 593 -294 q 411 -264 461 -294 l 447 -185 q 501 -199 474 -199 q 543 -183 528 -199 q 558 -144 558 -167 q 542 -105 558 -122 q 502 -87 526 -87 q 461 -94 478 -87 l 507 -7 q 194 154 317 17 q 72 499 72 292 q 220 850 72 706 q 594 994 368 994 q 971 828 819 994 l 867 714 q 735 807 797 781 q 590 833 674 833 q 343 738 443 833 q 243 495 243 643 q 342 248 243 347 q 578 149 442 149 z "},"È":{"ha":908,"x_min":135,"x_max":833,"o":"m 585 1051 l 443 1051 l 274 1185 l 438 1253 l 585 1051 m 817 971 l 817 817 l 299 817 l 299 560 l 764 560 l 764 414 l 299 414 l 299 154 l 833 154 l 833 0 l 135 0 l 135 971 l 817 971 z "},"É":{"ha":908,"x_min":135,"x_max":833,"o":"m 817 971 l 817 817 l 299 817 l 299 560 l 764 560 l 764 414 l 299 414 l 299 154 l 833 154 l 833 0 l 135 0 l 135 971 l 817 971 m 550 1051 l 408 1051 l 556 1253 l 719 1185 l 550 1051 z "},"Ê":{"ha":908,"x_min":135,"x_max":833,"o":"m 404 1238 l 549 1238 l 718 1051 l 583 1051 l 476 1129 l 369 1051 l 235 1051 l 404 1238 m 817 971 l 817 817 l 299 817 l 299 560 l 764 560 l 764 414 l 299 414 l 299 154 l 833 154 l 833 0 l 135 0 l 135 971 l 817 971 z "},"Ë":{"ha":908,"x_min":135,"x_max":833,"o":"m 348 1046 q 330 1046 348 1046 q 288 1071 313 1046 q 264 1131 264 1096 q 289 1192 264 1167 q 349 1217 314 1217 q 410 1192 385 1217 q 435 1133 435 1168 q 409 1072 435 1097 q 348 1046 383 1046 m 606 1046 q 589 1046 606 1046 q 546 1071 571 1046 q 521 1131 521 1096 q 546 1192 521 1167 q 606 1217 571 1217 q 667 1192 642 1217 q 692 1133 692 1168 q 667 1072 692 1097 q 606 1046 642 1046 m 817 971 l 817 817 l 299 817 l 299 560 l 764 560 l 764 414 l 299 414 l 299 154 l 833 154 l 833 0 l 135 0 l 135 971 l 817 971 z "},"Ì":{"ha":433,"x_min":-21,"x_max":299,"o":"m 290 1051 l 149 1051 l -21 1185 l 143 1253 l 290 1051 m 135 971 l 299 971 l 299 0 l 135 0 l 135 971 z "},"Í":{"ha":433,"x_min":135,"x_max":454,"o":"m 135 971 l 299 971 l 299 0 l 135 0 l 135 971 m 285 1051 l 143 1051 l 290 1253 l 454 1185 l 285 1051 z "},"Î":{"ha":433,"x_min":-10,"x_max":474,"o":"m 135 971 l 299 971 l 299 0 l 135 0 l 135 971 m 160 1238 l 304 1238 l 474 1051 l 339 1051 l 232 1129 l 125 1051 l -10 1051 l 160 1238 z "},"Ï":{"ha":433,"x_min":4,"x_max":432,"o":"m 89 1046 q 71 1046 89 1046 q 28 1071 53 1046 q 4 1131 4 1096 q 28 1192 4 1167 q 89 1217 53 1217 q 150 1192 125 1217 q 175 1133 175 1168 q 150 1072 175 1097 q 89 1046 125 1046 m 346 1046 q 328 1046 346 1046 q 286 1071 311 1046 q 261 1131 261 1096 q 286 1192 261 1167 q 347 1217 311 1217 q 407 1192 382 1217 q 432 1133 432 1168 q 406 1072 432 1097 q 346 1046 381 1046 m 135 971 l 299 971 l 299 0 l 135 0 l 135 971 z "},"Ð":{"ha":1097,"x_min":36,"x_max":1021,"o":"m 36 408 l 36 554 l 146 554 l 146 971 l 479 971 q 881 844 740 971 q 1021 490 1021 717 q 885 132 1021 264 q 468 0 749 0 l 146 0 l 146 408 l 36 408 m 856 486 q 474 819 856 819 l 310 819 l 310 554 l 657 554 l 657 408 l 310 408 l 310 154 l 492 154 q 762 238 668 154 q 856 486 856 322 z "},"Ñ":{"ha":1161,"x_min":135,"x_max":1026,"o":"m 863 971 l 1026 971 l 1026 0 l 849 0 l 299 708 l 299 0 l 135 0 l 135 971 l 299 971 l 863 246 l 863 971 m 679 1047 q 578 1080 643 1047 q 496 1113 514 1113 q 449 1051 450 1113 l 346 1051 q 378 1182 346 1132 q 469 1232 411 1232 q 574 1199 507 1232 q 661 1167 640 1167 q 703 1228 703 1167 l 807 1228 q 679 1047 803 1047 z "},"Ò":{"ha":1167,"x_min":72,"x_max":1094,"o":"m 689 1051 l 547 1051 l 378 1185 l 542 1253 l 689 1051 m 827 742 q 777 793 827 742 q 583 844 728 844 q 340 742 439 844 q 240 492 240 639 q 340 243 240 346 q 583 140 439 140 q 827 243 728 140 q 926 492 926 346 q 827 742 926 639 m 947 134 q 874 62 947 134 q 583 -10 800 -10 q 219 134 367 -10 q 72 492 72 278 q 219 851 72 707 q 583 994 367 994 q 947 851 800 994 q 1094 492 1094 707 q 947 134 1094 278 z "},"Ó":{"ha":1167,"x_min":72,"x_max":1094,"o":"m 827 742 q 777 793 827 742 q 583 844 728 844 q 340 742 439 844 q 240 492 240 639 q 340 243 240 346 q 583 140 439 140 q 827 243 728 140 q 926 492 926 346 q 827 742 926 639 m 947 134 q 874 62 947 134 q 583 -10 800 -10 q 219 134 367 -10 q 72 492 72 278 q 219 851 72 707 q 583 994 367 994 q 947 851 800 994 q 1094 492 1094 707 q 947 134 1094 278 m 608 1051 l 467 1051 l 614 1253 l 778 1185 l 608 1051 z "},"Ô":{"ha":1167,"x_min":72,"x_max":1094,"o":"m 827 742 q 777 793 827 742 q 583 844 728 844 q 340 742 439 844 q 240 492 240 639 q 340 243 240 346 q 583 140 439 140 q 827 243 728 140 q 926 492 926 346 q 827 742 926 639 m 947 134 q 874 62 947 134 q 583 -10 800 -10 q 219 134 367 -10 q 72 492 72 278 q 219 851 72 707 q 583 994 367 994 q 947 851 800 994 q 1094 492 1094 707 q 947 134 1094 278 m 508 1238 l 653 1238 l 822 1051 l 688 1051 l 581 1129 l 474 1051 l 339 1051 l 508 1238 z "},"Õ":{"ha":1167,"x_min":72,"x_max":1094,"o":"m 827 742 q 777 793 827 742 q 583 844 728 844 q 340 742 439 844 q 240 492 240 639 q 340 243 240 346 q 583 140 439 140 q 827 243 728 140 q 926 492 926 346 q 827 742 926 639 m 947 134 q 874 62 947 134 q 583 -10 800 -10 q 219 134 367 -10 q 72 492 72 278 q 219 851 72 707 q 583 994 367 994 q 947 851 800 994 q 1094 492 1094 707 q 947 134 1094 278 m 683 1047 q 583 1080 647 1047 q 500 1113 518 1113 q 453 1051 454 1113 l 350 1051 q 383 1182 350 1132 q 474 1232 415 1232 q 578 1199 511 1232 q 665 1167 644 1167 q 707 1228 707 1167 l 811 1228 q 683 1047 807 1047 z "},"Ö":{"ha":1167,"x_min":72,"x_max":1094,"o":"m 447 1046 q 429 1046 447 1046 q 387 1071 411 1046 q 363 1131 363 1096 q 387 1192 363 1167 q 447 1217 411 1217 q 508 1192 483 1217 q 533 1133 533 1168 q 508 1072 533 1097 q 447 1046 483 1046 m 704 1046 q 687 1046 704 1046 q 644 1071 669 1046 q 619 1131 619 1096 q 644 1192 619 1167 q 705 1217 669 1217 q 765 1192 740 1217 q 790 1133 790 1168 q 765 1072 790 1097 q 704 1046 739 1046 m 827 742 q 777 793 827 742 q 583 844 728 844 q 340 742 439 844 q 240 492 240 639 q 340 243 240 346 q 583 140 439 140 q 827 243 728 140 q 926 492 926 346 q 827 742 926 639 m 947 134 q 874 62 947 134 q 583 -10 800 -10 q 219 134 367 -10 q 72 492 72 278 q 219 851 72 707 q 583 994 367 994 q 947 851 800 994 q 1094 492 1094 707 q 947 134 1094 278 z "},"×":{"ha":785,"x_min":67,"x_max":718,"o":"m 393 615 l 629 853 l 717 764 l 482 529 l 718 292 l 631 203 l 393 440 l 156 203 l 67 292 l 304 529 l 68 764 l 157 853 l 393 615 z "},"Ø":{"ha":1167,"x_min":72,"x_max":1094,"o":"m 1094 493 q 947 134 1094 278 q 583 -10 800 -10 q 443 7 510 -10 l 364 -162 l 225 -162 l 326 54 q 140 234 208 118 q 72 493 72 350 q 219 851 72 707 q 583 994 367 994 q 751 968 668 994 l 826 1126 l 965 1126 l 867 914 q 1033 737 972 847 q 1094 493 1094 626 m 583 844 q 340 742 439 844 q 240 492 240 639 q 281 324 240 401 q 393 197 322 246 l 688 828 q 583 844 638 844 m 926 492 q 799 768 926 661 l 508 147 q 583 140 547 140 q 827 243 728 140 q 926 492 926 346 z "},"Ù":{"ha":1067,"x_min":122,"x_max":944,"o":"m 657 1051 l 515 1051 l 346 1185 l 510 1253 l 657 1051 m 353 222 q 386 183 353 222 q 533 144 419 144 q 714 222 647 144 q 781 433 781 300 l 781 971 l 944 971 l 944 426 q 829 103 944 217 q 533 -10 714 -10 q 238 103 353 -10 q 122 426 122 217 l 122 971 l 286 971 l 286 433 q 353 222 286 300 z "},"Ú":{"ha":1067,"x_min":122,"x_max":944,"o":"m 353 222 q 386 183 353 222 q 533 144 419 144 q 714 222 647 144 q 781 433 781 300 l 781 971 l 944 971 l 944 426 q 829 103 944 217 q 533 -10 714 -10 q 238 103 353 -10 q 122 426 122 217 l 122 971 l 286 971 l 286 433 q 353 222 286 300 m 578 1053 l 436 1053 l 583 1254 l 747 1186 l 578 1053 z "},"Û":{"ha":1067,"x_min":122,"x_max":944,"o":"m 353 222 q 386 183 353 222 q 533 144 419 144 q 714 222 647 144 q 781 433 781 300 l 781 971 l 944 971 l 944 426 q 829 103 944 217 q 533 -10 714 -10 q 238 103 353 -10 q 122 426 122 217 l 122 971 l 286 971 l 286 433 q 353 222 286 300 m 467 1238 l 611 1238 l 781 1051 l 646 1051 l 539 1129 l 432 1051 l 297 1051 l 467 1238 z "},"Ü":{"ha":1067,"x_min":122,"x_max":944,"o":"m 406 1046 q 389 1046 406 1046 q 347 1071 371 1046 q 322 1131 322 1096 q 347 1192 322 1167 q 408 1217 372 1217 q 468 1192 443 1217 q 493 1133 493 1168 q 467 1072 493 1097 q 406 1046 442 1046 m 665 1046 q 647 1046 665 1046 q 604 1071 629 1046 q 579 1131 579 1096 q 604 1192 579 1167 q 665 1217 629 1217 q 725 1192 700 1217 q 750 1133 750 1168 q 725 1072 750 1097 q 665 1046 700 1046 m 353 222 q 386 183 353 222 q 533 144 419 144 q 714 222 647 144 q 781 433 781 300 l 781 971 l 944 971 l 944 426 q 829 103 944 217 q 533 -10 714 -10 q 238 103 353 -10 q 122 426 122 217 l 122 971 l 286 971 l 286 433 q 353 222 286 300 z "},"Ý":{"ha":867,"x_min":-11,"x_max":878,"o":"m 517 0 l 350 0 l 350 383 l -11 971 l 168 971 l 433 529 l 699 971 l 878 971 l 517 383 l 517 0 m 540 1031 l 399 1031 l 546 1232 l 710 1164 l 540 1031 z "},"Þ":{"ha":953,"x_min":135,"x_max":892,"o":"m 892 513 q 782 245 892 328 q 457 163 672 163 l 299 163 l 299 0 l 135 0 l 135 971 l 299 971 l 299 849 l 454 849 q 892 513 892 849 m 475 311 q 668 365 613 311 q 724 517 724 418 q 656 658 724 615 q 451 700 588 700 l 299 700 l 299 311 l 475 311 z "},"ß":{"ha":904,"x_min":113,"x_max":840,"o":"m 424 576 q 572 640 524 592 q 621 751 621 688 q 584 860 621 814 q 468 906 547 906 q 319 840 363 906 q 276 647 276 775 l 276 0 l 113 0 l 113 633 q 122 774 113 733 q 142 851 131 815 q 171 913 154 888 q 214 967 188 939 q 272 1011 240 994 q 447 1051 347 1051 q 615 1024 547 1051 q 717 950 683 996 q 779 769 779 867 q 635 536 779 626 q 789 453 738 525 q 840 286 840 381 q 749 78 840 156 q 486 0 657 0 l 429 0 l 429 136 l 460 136 q 620 170 564 136 q 676 287 676 204 q 621 409 676 369 q 472 449 565 449 q 424 447 440 449 l 424 576 z "},"à":{"ha":815,"x_min":57,"x_max":711,"o":"m 711 0 l 569 0 l 569 99 q 324 -11 478 -11 q 133 54 208 -11 q 57 228 57 119 q 138 392 57 338 q 356 446 218 446 l 557 446 l 557 474 q 393 621 557 621 q 179 546 290 621 l 110 643 q 415 750 244 750 q 628 684 546 750 q 711 476 711 618 l 711 0 m 556 275 l 556 338 l 381 338 q 213 232 213 338 q 254 149 213 178 q 370 121 296 121 q 500 163 444 121 q 556 275 556 204 m 533 833 l 392 833 l 222 967 l 386 1035 l 533 833 z "},"á":{"ha":815,"x_min":57,"x_max":711,"o":"m 711 0 l 569 0 l 569 99 q 324 -11 478 -11 q 133 54 208 -11 q 57 228 57 119 q 138 392 57 338 q 356 446 218 446 l 557 446 l 557 474 q 393 621 557 621 q 179 546 290 621 l 110 643 q 415 750 244 750 q 628 684 546 750 q 711 476 711 618 l 711 0 m 556 275 l 556 338 l 381 338 q 213 232 213 338 q 254 149 213 178 q 370 121 296 121 q 500 163 444 121 q 556 275 556 204 m 488 833 l 346 833 l 493 1035 l 657 967 l 488 833 z "},"â":{"ha":815,"x_min":57,"x_max":711,"o":"m 711 0 l 569 0 l 569 99 q 324 -11 478 -11 q 133 54 208 -11 q 57 228 57 119 q 138 392 57 338 q 356 446 218 446 l 557 446 l 557 474 q 393 621 557 621 q 179 546 290 621 l 110 643 q 415 750 244 750 q 628 684 546 750 q 711 476 711 618 l 711 0 m 556 275 l 556 338 l 381 338 q 213 232 213 338 q 254 149 213 178 q 370 121 296 121 q 500 163 444 121 q 556 275 556 204 m 332 1019 l 476 1019 l 646 833 l 511 833 l 404 911 l 297 833 l 163 833 l 332 1019 z "},"ã":{"ha":815,"x_min":57,"x_max":711,"o":"m 711 0 l 569 0 l 569 99 q 324 -11 478 -11 q 133 54 208 -11 q 57 228 57 119 q 138 392 57 338 q 356 446 218 446 l 557 446 l 557 474 q 393 621 557 621 q 179 546 290 621 l 110 643 q 415 750 244 750 q 628 684 546 750 q 711 476 711 618 l 711 0 m 556 275 l 556 338 l 381 338 q 213 232 213 338 q 254 149 213 178 q 370 121 296 121 q 500 163 444 121 q 556 275 556 204 m 507 829 q 406 862 471 829 q 324 894 342 894 q 276 833 278 894 l 174 833 q 206 964 174 914 q 297 1014 239 1014 q 401 981 335 1014 q 489 949 468 949 q 531 1010 531 949 l 635 1010 q 507 829 631 829 z "},"ä":{"ha":815,"x_min":57,"x_max":711,"o":"m 711 0 l 569 0 l 569 99 q 324 -11 478 -11 q 133 54 208 -11 q 57 228 57 119 q 138 392 57 338 q 356 446 218 446 l 557 446 l 557 474 q 393 621 557 621 q 179 546 290 621 l 110 643 q 415 750 244 750 q 628 684 546 750 q 711 476 711 618 l 711 0 m 556 275 l 556 338 l 381 338 q 213 232 213 338 q 254 149 213 178 q 370 121 296 121 q 500 163 444 121 q 556 275 556 204 m 217 858 q 205 871 217 858 q 193 919 193 883 q 217 980 193 956 q 278 1004 242 1004 q 339 980 314 1004 q 364 919 364 956 q 339 858 364 883 q 278 833 314 833 q 217 858 242 833 m 535 833 q 517 833 535 833 q 475 858 500 833 q 450 919 450 883 q 475 979 450 954 q 535 1004 500 1004 q 596 980 571 1004 q 621 919 621 956 q 595 858 621 883 q 535 833 569 833 z "},"å":{"ha":815,"x_min":57,"x_max":711,"o":"m 711 0 l 569 0 l 569 99 q 324 -11 478 -11 q 133 54 208 -11 q 57 228 57 119 q 138 392 57 338 q 356 446 218 446 l 557 446 l 557 474 q 393 621 557 621 q 179 546 290 621 l 110 643 q 415 750 244 750 q 628 684 546 750 q 711 476 711 618 l 711 0 m 514 1056 q 537 1034 514 1056 q 560 954 560 1013 q 514 853 560 896 q 408 810 468 810 q 303 853 349 810 q 258 954 258 896 q 303 1056 258 1013 q 408 1100 349 1100 q 514 1056 468 1100 m 556 275 l 556 338 l 381 338 q 213 232 213 338 q 254 149 213 178 q 370 121 296 121 q 500 163 444 121 q 556 275 556 204 m 409 878 q 426 878 409 878 q 464 899 443 878 q 485 955 485 921 q 464 1010 485 989 q 409 1032 443 1032 q 353 1010 375 1032 q 332 955 332 989 q 353 899 332 921 q 409 878 375 878 z "},"æ":{"ha":1322,"x_min":57,"x_max":1264,"o":"m 1264 319 l 713 319 q 777 176 714 231 q 928 122 840 122 q 1125 210 1053 122 l 1214 113 q 915 -11 1094 -11 q 633 122 735 -11 q 338 -11 522 -11 q 139 55 221 -11 q 57 229 57 121 q 137 389 57 338 q 356 440 217 440 l 557 440 l 557 474 q 393 621 557 621 q 179 546 290 621 l 110 643 q 415 750 244 750 q 661 647 586 750 q 913 750 761 750 q 1165 659 1065 750 q 1264 408 1264 568 l 1264 319 m 556 275 l 556 319 l 381 319 q 225 281 251 319 q 213 232 213 261 q 254 149 213 178 q 370 121 296 121 q 500 163 444 121 q 556 275 556 204 m 1108 439 q 1051 572 1103 526 q 921 617 1000 617 q 781 569 842 617 q 714 440 721 522 l 1108 439 z "},"ç":{"ha":801,"x_min":65,"x_max":753,"o":"m 568 -162 q 525 -255 568 -215 q 416 -294 482 -294 q 300 -264 350 -294 l 336 -185 q 390 -199 363 -199 q 432 -183 417 -199 q 447 -144 447 -167 q 431 -105 447 -122 q 391 -87 415 -87 q 350 -94 367 -87 l 396 -8 q 160 110 256 8 q 65 375 65 213 q 181 644 65 538 q 464 750 297 750 q 746 635 631 750 l 654 522 q 461 606 558 606 q 292 541 364 606 q 221 374 221 476 q 291 201 221 272 q 465 131 361 131 q 661 225 569 131 l 753 125 q 494 -7 639 11 l 471 -53 q 568 -162 568 -65 z "},"è":{"ha":858,"x_min":65,"x_max":800,"o":"m 572 833 l 431 833 l 261 967 l 425 1035 l 572 833 m 800 301 l 221 301 q 294 172 226 221 q 450 122 363 122 q 661 210 589 122 l 750 113 q 439 -11 631 -11 q 174 92 283 -11 q 65 370 65 196 q 176 647 65 544 q 438 750 288 750 q 694 659 589 750 q 800 408 800 568 l 800 301 m 221 424 l 644 424 q 586 567 644 517 q 442 617 528 617 q 289 565 357 617 q 221 424 221 513 z "},"é":{"ha":858,"x_min":65,"x_max":800,"o":"m 800 301 l 221 301 q 294 172 226 221 q 450 122 363 122 q 661 210 589 122 l 750 113 q 439 -11 631 -11 q 174 92 283 -11 q 65 370 65 196 q 176 647 65 544 q 438 750 288 750 q 694 659 589 750 q 800 408 800 568 l 800 301 m 221 424 l 644 424 q 586 567 644 517 q 442 617 528 617 q 289 565 357 617 q 221 424 221 513 m 522 836 l 381 836 l 528 1038 l 692 969 l 522 836 z "},"ê":{"ha":858,"x_min":65,"x_max":800,"o":"m 800 301 l 221 301 q 294 172 226 221 q 450 122 363 122 q 661 210 589 122 l 750 113 q 439 -11 631 -11 q 174 92 283 -11 q 65 370 65 196 q 176 647 65 544 q 438 750 288 750 q 694 659 589 750 q 800 408 800 568 l 800 301 m 221 424 l 644 424 q 586 567 644 517 q 442 617 528 617 q 289 565 357 617 q 221 424 221 513 m 368 1019 l 513 1019 l 682 833 l 547 833 l 440 911 l 333 833 l 199 833 l 368 1019 z "},"ë":{"ha":858,"x_min":65,"x_max":800,"o":"m 249 858 q 237 871 249 858 q 225 919 225 883 q 250 980 225 956 q 310 1004 275 1004 q 371 980 346 1004 q 396 919 396 956 q 370 858 396 883 q 309 833 344 833 q 249 858 274 833 m 567 833 q 550 833 567 833 q 507 858 532 833 q 482 919 482 883 q 507 979 482 954 q 567 1004 532 1004 q 628 980 603 1004 q 653 919 653 956 q 628 858 653 883 q 567 833 603 833 m 800 301 l 221 301 q 294 172 226 221 q 450 122 363 122 q 661 210 589 122 l 750 113 q 439 -11 631 -11 q 174 92 283 -11 q 65 370 65 196 q 176 647 65 544 q 438 750 288 750 q 694 659 589 750 q 800 408 800 568 l 800 301 m 221 424 l 644 424 q 586 567 644 517 q 442 617 528 617 q 289 565 357 617 q 221 424 221 513 z "},"ì":{"ha":381,"x_min":-33,"x_max":278,"o":"m 278 833 l 136 833 l -33 967 l 131 1035 l 278 833 m 113 739 l 268 739 l 268 0 l 113 0 l 113 739 z "},"í":{"ha":381,"x_min":113,"x_max":433,"o":"m 264 833 l 133 833 l 281 1028 l 433 960 l 264 833 m 113 739 l 268 739 l 268 0 l 113 0 l 113 739 z "},"î":{"ha":381,"x_min":-44,"x_max":439,"o":"m 113 739 l 268 739 l 268 0 l 113 0 l 113 739 m 125 1019 l 269 1019 l 439 833 l 304 833 l 197 911 l 90 833 l -44 833 l 125 1019 z "},"ï":{"ha":381,"x_min":-11,"x_max":417,"o":"m 13 858 q 1 871 13 858 q -11 919 -11 883 q 14 980 -11 956 q 74 1004 39 1004 q 135 980 110 1004 q 160 919 160 956 q 134 858 160 883 q 73 833 108 833 q 13 858 38 833 m 331 833 q 314 833 331 833 q 271 858 296 833 q 246 919 246 883 q 271 979 246 954 q 331 1004 296 1004 q 392 980 367 1004 q 417 919 417 956 q 392 858 417 883 q 331 833 367 833 m 113 739 l 268 739 l 268 0 l 113 0 l 113 739 z "},"ð":{"ha":828,"x_min":69,"x_max":760,"o":"m 554 607 q 383 813 501 694 l 254 731 l 175 806 l 306 889 q 204 975 303 893 l 336 1051 q 438 964 386 1013 l 556 1039 l 638 964 l 515 885 q 760 371 760 619 q 669 94 760 200 q 424 -11 579 -11 q 169 82 268 -11 q 69 322 69 175 q 167 562 69 468 q 401 656 264 656 q 551 604 500 656 l 554 607 m 221 322 q 221 281 221 322 q 274 183 221 240 q 415 125 328 125 q 555 183 501 125 q 608 322 608 240 q 555 461 608 403 q 415 519 501 519 q 274 461 328 519 q 221 322 221 403 z "},"ñ":{"ha":897,"x_min":113,"x_max":793,"o":"m 268 400 l 268 0 l 113 0 l 113 739 l 268 739 l 268 604 q 372 711 306 672 q 514 750 438 750 q 716 674 639 750 q 793 453 793 597 l 793 0 l 638 0 l 638 406 q 468 610 638 610 q 328 556 388 610 q 268 400 268 503 m 563 829 q 462 862 526 829 q 379 894 397 894 q 332 833 333 894 l 229 833 q 262 964 229 914 q 353 1014 294 1014 q 457 981 390 1014 q 544 949 524 949 q 586 1010 586 949 l 690 1010 q 563 829 686 829 z "},"ò":{"ha":906,"x_min":64,"x_max":842,"o":"m 549 833 l 407 833 l 238 967 l 401 1035 l 549 833 m 285 195 q 318 161 285 195 q 453 128 351 128 q 620 195 554 128 q 686 369 686 263 q 620 544 686 476 q 453 611 554 611 q 285 544 351 611 q 219 369 219 476 q 285 195 219 263 m 731 99 q 675 44 731 99 q 453 -11 619 -11 q 175 99 286 -11 q 64 369 64 210 q 175 640 64 529 q 453 750 286 750 q 731 640 619 750 q 842 369 842 529 q 731 99 842 210 z "},"ó":{"ha":906,"x_min":64,"x_max":842,"o":"m 285 195 q 318 161 285 195 q 453 128 351 128 q 620 195 554 128 q 686 369 686 263 q 620 544 686 476 q 453 611 554 611 q 285 544 351 611 q 219 369 219 476 q 285 195 219 263 m 731 99 q 675 44 731 99 q 453 -11 619 -11 q 175 99 286 -11 q 64 369 64 210 q 175 640 64 529 q 453 750 286 750 q 731 640 619 750 q 842 369 842 529 q 731 99 842 210 m 524 833 l 382 833 l 529 1035 l 693 967 l 524 833 z "},"ô":{"ha":906,"x_min":64,"x_max":842,"o":"m 285 195 q 318 161 285 195 q 453 128 351 128 q 620 195 554 128 q 686 369 686 263 q 620 544 686 476 q 453 611 554 611 q 285 544 351 611 q 219 369 219 476 q 285 195 219 263 m 731 99 q 675 44 731 99 q 453 -11 619 -11 q 175 99 286 -11 q 64 369 64 210 q 175 640 64 529 q 453 750 286 750 q 731 640 619 750 q 842 369 842 529 q 731 99 842 210 m 382 1019 l 526 1019 l 696 833 l 561 833 l 454 911 l 347 833 l 213 833 l 382 1019 z "},"õ":{"ha":906,"x_min":64,"x_max":842,"o":"m 285 195 q 318 161 285 195 q 453 128 351 128 q 620 195 554 128 q 686 369 686 263 q 620 544 686 476 q 453 611 554 611 q 285 544 351 611 q 219 369 219 476 q 285 195 219 263 m 731 99 q 675 44 731 99 q 453 -11 619 -11 q 175 99 286 -11 q 64 369 64 210 q 175 640 64 529 q 453 750 286 750 q 731 640 619 750 q 842 369 842 529 q 731 99 842 210 m 556 829 q 455 862 519 829 q 372 894 390 894 q 325 833 326 894 l 222 833 q 255 964 222 914 q 346 1014 288 1014 q 450 981 383 1014 q 538 949 517 949 q 579 1010 579 949 l 683 1010 q 556 829 679 829 z "},"ö":{"ha":906,"x_min":64,"x_max":842,"o":"m 258 858 q 245 871 258 858 q 233 919 233 883 q 258 980 233 956 q 319 1004 283 1004 q 379 980 354 1004 q 404 919 404 956 q 378 858 404 883 q 317 833 353 833 q 258 858 282 833 m 576 833 q 558 833 576 833 q 515 858 540 833 q 490 919 490 883 q 515 979 490 954 q 576 1004 540 1004 q 636 980 611 1004 q 661 919 661 956 q 636 858 661 883 q 576 833 611 833 m 285 195 q 318 161 285 195 q 453 128 351 128 q 620 195 554 128 q 686 369 686 263 q 620 544 686 476 q 453 611 554 611 q 285 544 351 611 q 219 369 219 476 q 285 195 219 263 m 731 99 q 675 44 731 99 q 453 -11 619 -11 q 175 99 286 -11 q 64 369 64 210 q 175 640 64 529 q 453 750 286 750 q 731 640 619 750 q 842 369 842 529 q 731 99 842 210 z "},"÷":{"ha":789,"x_min":67,"x_max":722,"o":"m 322 219 q 307 235 322 219 q 292 293 292 250 q 322 366 292 336 q 394 396 351 396 q 468 366 438 396 q 499 293 499 336 q 468 219 499 250 q 394 189 438 189 q 322 219 351 189 m 322 713 q 307 728 322 713 q 292 786 292 743 q 322 859 292 829 q 394 889 351 889 q 468 859 438 889 q 499 786 499 829 q 468 713 499 743 q 394 682 438 682 q 322 713 351 682 m 67 603 l 722 603 l 722 472 l 67 472 l 67 603 z "},"ø":{"ha":906,"x_min":64,"x_max":842,"o":"m 453 -11 q 363 -1 414 -11 l 296 -146 l 157 -146 l 246 44 q 113 181 161 94 q 64 369 64 267 q 175 640 64 529 q 453 750 286 750 q 568 733 514 750 l 629 864 l 768 864 l 682 681 q 799 547 757 628 q 842 369 842 465 q 731 99 842 210 q 453 -11 619 -11 m 453 611 q 285 544 351 611 q 219 360 219 476 q 307 175 219 244 l 508 606 q 453 611 485 611 m 453 128 q 620 195 554 128 q 686 371 686 263 q 618 544 686 479 l 424 129 q 453 128 433 128 z "},"ù":{"ha":897,"x_min":104,"x_max":785,"o":"m 546 833 l 404 833 l 235 967 l 399 1035 l 546 833 m 629 339 l 629 739 l 785 739 l 785 0 l 629 0 l 629 135 q 526 28 592 67 q 383 -11 460 -11 q 181 65 258 -11 q 104 286 104 142 l 104 739 l 260 739 l 260 333 q 429 129 260 129 q 569 183 510 129 q 629 339 629 236 z "},"ú":{"ha":897,"x_min":104,"x_max":785,"o":"m 629 339 l 629 739 l 785 739 l 785 0 l 629 0 l 629 135 q 526 28 592 67 q 383 -11 460 -11 q 181 65 258 -11 q 104 286 104 142 l 104 739 l 260 739 l 260 333 q 429 129 260 129 q 569 183 510 129 q 629 339 629 236 m 486 836 l 344 836 l 492 1038 l 656 969 l 486 836 z "},"û":{"ha":897,"x_min":104,"x_max":785,"o":"m 629 339 l 629 739 l 785 739 l 785 0 l 629 0 l 629 135 q 526 28 592 67 q 383 -11 460 -11 q 181 65 258 -11 q 104 286 104 142 l 104 739 l 260 739 l 260 333 q 429 129 260 129 q 569 183 510 129 q 629 339 629 236 m 375 1019 l 519 1019 l 689 833 l 554 833 l 447 911 l 340 833 l 206 833 l 375 1019 z "},"ü":{"ha":897,"x_min":104,"x_max":785,"o":"m 249 858 q 237 871 249 858 q 225 919 225 883 q 250 980 225 956 q 310 1004 275 1004 q 371 980 346 1004 q 396 919 396 956 q 370 858 396 883 q 309 833 344 833 q 249 858 274 833 m 567 833 q 550 833 567 833 q 507 858 532 833 q 482 919 482 883 q 507 979 482 954 q 567 1004 532 1004 q 628 980 603 1004 q 653 919 653 956 q 628 858 653 883 q 567 833 603 833 m 629 339 l 629 739 l 785 739 l 785 0 l 629 0 l 629 135 q 526 28 592 67 q 383 -11 460 -11 q 181 65 258 -11 q 104 286 104 142 l 104 739 l 260 739 l 260 333 q 429 129 260 129 q 569 183 510 129 q 629 339 629 236 z "},"ý":{"ha":797,"x_min":13,"x_max":788,"o":"m 206 -294 q 22 -221 104 -294 l 93 -94 q 194 -140 142 -140 q 278 -103 246 -140 q 311 -21 311 -65 q 13 739 311 -1 l 179 739 l 400 194 l 621 739 l 788 739 l 429 -139 q 338 -253 397 -211 q 206 -294 278 -294 m 461 872 l 319 872 l 467 1074 l 631 1006 l 461 872 z "},"þ":{"ha":933,"x_min":113,"x_max":868,"o":"m 507 750 q 768 642 668 750 q 868 367 868 533 q 769 95 868 201 q 504 -11 669 -11 q 306 61 390 -11 q 278 89 286 78 l 268 101 l 268 -269 l 113 -269 l 113 1031 l 268 1031 l 268 638 q 278 649 272 642 q 308 676 285 657 q 358 711 332 696 q 507 750 428 750 m 478 126 q 525 126 478 126 q 637 199 572 126 q 701 370 701 272 q 638 541 701 468 q 479 614 574 614 q 325 542 385 614 q 265 369 265 469 q 325 198 265 269 q 478 126 385 126 z "},"ÿ":{"ha":797,"x_min":13,"x_max":788,"o":"m 216 858 q 204 871 216 858 q 192 919 192 883 q 217 980 192 956 q 277 1004 242 1004 q 338 980 313 1004 q 363 919 363 956 q 337 858 363 883 q 276 833 311 833 q 216 858 240 833 m 534 833 q 516 833 534 833 q 474 858 499 833 q 449 919 449 883 q 474 979 449 954 q 534 1004 499 1004 q 594 980 569 1004 q 619 919 619 956 q 594 858 619 883 q 534 833 569 833 m 206 -294 q 22 -221 104 -294 l 93 -94 q 194 -140 142 -140 q 278 -103 246 -140 q 311 -21 311 -65 q 13 739 311 -1 l 179 739 l 400 194 l 621 739 l 788 739 l 429 -139 q 338 -253 397 -211 q 206 -294 278 -294 z "},"ħ":{"ha":897,"x_min":61,"x_max":793,"o":"m 488 918 l 488 797 l 268 797 l 268 604 q 369 711 301 672 q 514 750 436 750 q 716 674 639 750 q 793 453 793 597 l 793 0 l 638 0 l 638 406 q 468 610 638 610 q 328 556 388 610 q 268 400 268 503 l 268 0 l 113 0 l 113 797 l 61 797 l 61 918 l 113 918 l 113 1029 l 268 1029 l 268 918 l 488 918 z "},"Ĩ":{"ha":433,"x_min":-17,"x_max":444,"o":"m 135 971 l 299 971 l 299 0 l 135 0 l 135 971 m 317 1047 q 216 1080 281 1047 q 133 1113 151 1113 q 86 1051 88 1113 l -17 1051 q 16 1182 -17 1132 q 107 1232 49 1232 q 211 1199 144 1232 q 299 1167 278 1167 q 340 1228 340 1167 l 444 1228 q 317 1047 440 1047 z "},"ĩ":{"ha":381,"x_min":-28,"x_max":433,"o":"m 113 739 l 268 739 l 268 0 l 113 0 l 113 739 m 306 829 q 205 862 269 829 q 122 894 140 894 q 75 833 76 894 l -28 833 q 5 964 -28 914 q 96 1014 38 1014 q 200 981 133 1014 q 288 949 267 949 q 329 1010 329 949 l 433 1010 q 306 829 429 829 z "},"ı":{"ha":381,"x_min":113,"x_max":268,"o":"m 113 739 l 268 739 l 268 0 l 113 0 l 113 739 z "},"ĳ":{"ha":838,"x_min":93,"x_max":744,"o":"m 268 0 l 113 0 l 113 739 l 268 739 l 268 0 m 122 886 q 108 901 122 886 q 93 956 93 915 q 122 1025 93 996 q 192 1054 151 1054 q 261 1025 232 1054 q 290 956 290 996 q 261 886 290 915 q 192 857 232 857 q 122 886 151 857 m 569 -35 l 569 739 l 725 739 l 725 -40 q 655 -226 725 -157 q 485 -294 585 -294 q 304 -221 386 -294 l 376 -104 q 472 -150 424 -150 q 544 -119 519 -150 q 569 -35 569 -89 m 576 886 q 562 901 576 886 q 547 956 547 915 q 576 1025 547 996 q 646 1054 606 1054 q 715 1025 686 1054 q 744 956 744 996 q 715 886 744 915 q 646 857 686 857 q 576 886 606 857 z "},"Ĵ":{"ha":765,"x_min":43,"x_max":647,"o":"m 167 824 l 167 971 l 639 971 l 639 331 q 553 76 639 161 q 332 -8 467 -8 q 43 111 163 -8 l 136 240 q 321 150 231 150 q 430 193 385 150 q 475 322 475 236 l 475 824 l 167 824 m 333 1238 l 478 1238 l 647 1051 l 513 1051 l 406 1129 l 299 1051 l 164 1051 l 333 1238 z "},"ĵ":{"ha":381,"x_min":-153,"x_max":436,"o":"m 113 -35 l 113 739 l 268 739 l 268 -40 q 198 -226 268 -157 q 28 -294 128 -294 q -153 -221 -71 -294 l -81 -104 q 15 -150 -33 -150 q 88 -119 63 -150 q 113 -35 113 -89 m 122 1019 l 267 1019 l 436 833 l 301 833 l 194 911 l 88 833 l -47 833 l 122 1019 z "},"ķ":{"ha":807,"x_min":113,"x_max":789,"o":"m 268 0 l 113 0 l 113 1031 l 268 1031 l 268 425 l 568 739 l 768 739 l 488 446 l 789 0 l 600 0 l 381 324 l 268 210 l 268 0 m 557 -162 q 514 -255 557 -215 q 405 -294 471 -294 q 289 -264 339 -294 l 325 -185 q 378 -199 351 -199 q 421 -183 406 -199 q 436 -144 436 -167 q 420 -105 436 -122 q 380 -87 404 -87 q 339 -94 356 -87 l 389 0 l 488 0 l 460 -53 q 557 -162 557 -65 z "},"ĸ":{"ha":807,"x_min":113,"x_max":789,"o":"m 268 0 l 113 0 l 113 739 l 268 739 l 268 425 l 568 739 l 768 739 l 488 446 l 789 0 l 600 0 l 381 324 l 268 210 l 268 0 z "},"ŀ":{"ha":560,"x_min":113,"x_max":574,"o":"m 268 0 l 113 0 l 113 1031 l 268 1031 l 268 0 m 397 369 q 382 385 397 369 q 367 443 367 400 q 397 516 367 486 q 469 546 426 546 q 543 516 513 546 q 574 443 574 486 q 543 369 574 400 q 469 339 513 339 q 397 369 426 339 z "},"Ł":{"ha":803,"x_min":42,"x_max":758,"o":"m 151 971 l 315 971 l 315 503 l 619 597 l 619 451 l 315 357 l 315 156 l 758 156 l 758 0 l 151 0 l 151 306 l 42 272 l 42 418 l 151 451 l 151 971 z "},"ł":{"ha":444,"x_min":31,"x_max":404,"o":"m 144 971 l 300 971 l 300 521 l 404 551 l 404 406 l 300 375 l 300 0 l 144 0 l 144 332 l 31 300 l 31 446 l 144 478 l 144 971 z "},"Ń":{"ha":1161,"x_min":135,"x_max":1026,"o":"m 863 971 l 1026 971 l 1026 0 l 849 0 l 299 708 l 299 0 l 135 0 l 135 971 l 299 971 l 863 246 l 863 971 m 654 1093 l 513 1093 l 660 1294 l 824 1226 l 654 1093 z "},"ń":{"ha":897,"x_min":113,"x_max":793,"o":"m 268 400 l 268 0 l 113 0 l 113 739 l 268 739 l 268 604 q 372 711 306 672 q 514 750 438 750 q 716 674 639 750 q 793 453 793 597 l 793 0 l 638 0 l 638 406 q 468 610 638 610 q 328 556 388 610 q 268 400 268 503 m 507 872 l 365 872 l 513 1074 l 676 1006 l 507 872 z "},"Œ":{"ha":1481,"x_min":74,"x_max":1406,"o":"m 1389 971 l 1389 817 l 871 817 l 871 560 l 1336 560 l 1336 414 l 871 414 l 871 154 l 1406 154 l 1406 0 l 568 0 q 216 139 358 0 q 74 485 74 278 q 216 832 74 693 q 568 971 358 971 l 1389 971 m 347 728 q 299 678 347 728 q 251 486 251 628 q 348 244 251 344 q 583 143 444 143 l 707 143 l 707 828 l 583 828 q 347 728 443 828 z "},"œ":{"ha":1481,"x_min":64,"x_max":1422,"o":"m 1422 301 l 843 301 q 917 172 849 221 q 1072 122 985 122 q 1283 210 1211 122 l 1372 113 q 1061 -11 1253 -11 q 892 26 971 -11 q 761 133 813 64 q 453 -11 649 -11 q 175 99 286 -11 q 64 369 64 210 q 175 640 64 529 q 453 750 286 750 q 761 604 647 750 q 892 713 813 675 q 1058 750 972 750 q 1317 659 1211 750 q 1422 408 1422 568 l 1422 301 m 285 195 q 318 161 285 195 q 453 128 351 128 q 620 195 554 128 q 686 369 686 263 q 620 544 686 476 q 453 611 554 611 q 285 544 351 611 q 219 369 219 476 q 285 195 219 263 m 843 424 l 1267 424 q 1208 567 1267 517 q 1065 617 1150 617 q 911 565 979 617 q 843 424 843 513 z "},"Ŕ":{"ha":1011,"x_min":135,"x_max":954,"o":"m 910 656 q 700 353 910 415 l 954 0 l 746 0 l 514 326 l 299 326 l 299 0 l 135 0 l 135 971 l 496 971 q 814 896 718 971 q 910 656 910 821 m 503 475 q 692 518 642 475 q 742 656 742 561 q 690 787 742 751 q 507 822 639 822 l 299 822 l 299 475 l 503 475 m 517 1093 l 375 1093 l 522 1294 l 686 1226 l 517 1093 z "},"Ŗ":{"ha":1011,"x_min":135,"x_max":954,"o":"m 910 656 q 700 353 910 415 l 954 0 l 746 0 l 514 326 l 299 326 l 299 0 l 135 0 l 135 971 l 496 971 q 814 896 718 971 q 910 656 910 821 m 503 475 q 692 518 642 475 q 742 656 742 561 q 690 787 742 751 q 507 822 639 822 l 299 822 l 299 475 l 503 475 m 363 -347 l 453 -76 l 607 -76 l 496 -347 l 363 -347 z "},"ŗ":{"ha":551,"x_min":57,"x_max":508,"o":"m 57 -347 l 147 -76 l 301 -76 l 190 -347 l 57 -347 m 500 593 q 326 518 385 593 q 268 317 268 443 l 268 0 l 113 0 l 113 739 l 268 739 l 268 590 q 370 704 306 660 q 507 750 435 749 l 508 593 q 500 593 504 593 z "},"Ř":{"ha":1011,"x_min":135,"x_max":954,"o":"m 910 656 q 700 353 910 415 l 954 0 l 746 0 l 514 326 l 299 326 l 299 0 l 135 0 l 135 971 l 496 971 q 814 896 718 971 q 910 656 910 821 m 503 475 q 692 518 642 475 q 742 656 742 561 q 690 787 742 751 q 507 822 639 822 l 299 822 l 299 475 l 503 475 m 550 1056 l 406 1056 l 236 1242 l 371 1242 l 478 1164 l 585 1242 l 719 1242 l 550 1056 z "},"ř":{"ha":551,"x_min":58,"x_max":542,"o":"m 500 593 q 326 518 385 593 q 268 317 268 443 l 268 0 l 113 0 l 113 739 l 268 739 l 268 590 q 370 704 306 660 q 507 750 435 749 l 508 593 q 500 593 504 593 m 372 833 l 228 833 l 58 1019 l 193 1019 l 300 942 l 407 1019 l 542 1019 l 372 833 z "},"Š":{"ha":881,"x_min":56,"x_max":811,"o":"m 431 847 q 394 847 431 847 q 313 818 358 847 q 267 730 267 789 q 313 639 267 671 q 510 571 360 607 q 735 469 660 535 q 811 275 811 403 q 715 68 811 147 q 463 -11 619 -11 q 56 147 232 -11 l 160 271 q 467 143 307 143 q 593 177 546 143 q 640 267 640 211 q 596 356 640 324 q 401 424 551 388 q 173 522 251 460 q 94 719 94 585 q 193 927 94 854 q 438 1000 292 1000 q 623 969 531 1000 q 782 883 715 939 l 694 758 q 577 822 651 797 q 431 847 503 847 m 511 1056 l 367 1056 l 197 1242 l 332 1242 l 439 1164 l 546 1242 l 681 1242 l 511 1056 z "},"š":{"ha":703,"x_min":46,"x_max":639,"o":"m 639 221 q 639 168 639 221 q 563 52 639 115 q 367 -11 486 -11 q 199 18 286 -11 q 46 100 113 47 l 121 221 q 371 124 250 124 q 454 148 424 124 q 485 210 485 172 q 338 310 485 265 q 321 315 326 314 q 90 524 90 378 q 170 688 90 626 q 378 750 250 750 q 619 675 506 750 l 561 560 q 365 619 471 619 q 275 599 310 619 q 240 539 240 579 q 276 486 240 503 q 347 463 301 474 q 426 440 392 451 q 494 415 461 429 q 564 376 526 401 q 639 221 639 326 m 422 833 l 278 833 l 108 1019 l 243 1019 l 350 942 l 457 1019 l 592 1019 l 422 833 z "},"Ž":{"ha":938,"x_min":65,"x_max":867,"o":"m 631 821 l 83 821 l 83 971 l 858 971 l 858 843 l 294 156 l 294 151 l 867 151 l 867 0 l 65 0 l 65 126 l 631 817 l 631 821 m 554 1056 l 410 1056 l 240 1242 l 375 1242 l 482 1164 l 589 1242 l 724 1242 l 554 1056 z "},"ž":{"ha":751,"x_min":61,"x_max":689,"o":"m 89 603 l 89 736 l 667 736 l 667 596 l 251 135 l 689 135 l 689 0 l 61 0 l 61 151 l 465 603 l 89 603 m 451 833 l 307 833 l 138 1019 l 272 1019 l 379 942 l 486 1019 l 621 1019 l 451 833 z "},"ƒ":{"ha":936,"x_min":39,"x_max":893,"o":"m 483 -50 q 401 -224 468 -153 q 228 -294 335 -294 q 39 -221 121 -294 l 108 -104 q 210 -154 161 -154 q 290 -118 260 -154 q 326 -35 319 -82 l 394 451 l 299 451 l 315 581 l 411 581 l 440 797 q 535 983 456 914 q 718 1051 615 1051 q 893 978 821 1051 l 813 868 q 724 917 774 917 q 641 885 674 917 q 601 801 608 853 l 571 581 l 769 581 l 753 451 l 554 451 l 483 -50 z "},"ˆ":{"ha":936,"x_min":231,"x_max":714,"o":"m 400 1019 l 544 1019 l 714 833 l 579 833 l 472 911 l 365 833 l 231 833 l 400 1019 z "},"ˇ":{"ha":761,"x_min":139,"x_max":622,"o":"m 453 1056 l 308 1056 l 139 1242 l 274 1242 l 381 1164 l 488 1242 l 622 1242 l 453 1056 z "},"˘":{"ha":753,"x_min":139,"x_max":614,"o":"m 542 857 q 510 830 542 857 q 376 803 478 803 q 210 857 275 803 q 139 1008 146 911 l 254 1008 q 376 921 282 921 q 499 1008 471 921 l 614 1008 q 542 857 607 911 z "},"˙":{"ha":457,"x_min":156,"x_max":363,"o":"m 185 879 q 170 894 185 879 q 156 953 156 910 q 185 1026 156 996 q 258 1056 215 1056 q 332 1026 301 1056 q 363 953 363 996 q 332 879 363 910 q 258 849 301 849 q 185 879 215 849 z "},"˚":{"ha":524,"x_min":111,"x_max":413,"o":"m 367 1056 q 390 1034 367 1056 q 413 954 413 1013 q 367 853 413 896 q 261 810 321 810 q 156 853 201 810 q 111 954 111 896 q 156 1056 111 1013 q 261 1100 201 1100 q 367 1056 321 1100 m 262 878 q 279 878 262 878 q 317 899 296 878 q 338 955 338 921 q 317 1010 338 989 q 262 1032 296 1032 q 206 1010 228 1032 q 185 955 185 989 q 206 899 185 921 q 262 878 228 878 z "},"˛":{"ha":299,"x_min":25,"x_max":274,"o":"m 151 -68 q 119 -162 119 -121 q 154 -203 119 -203 q 207 -169 189 -203 l 274 -217 q 147 -294 226 -294 q 61 -261 97 -294 q 25 -172 25 -228 q 69 -53 25 -117 l 99 -11 l 186 -11 l 151 -68 z "},"˜":{"ha":721,"x_min":132,"x_max":593,"o":"m 465 1026 q 365 1059 429 1026 q 282 1092 300 1092 q 235 1031 236 1092 l 132 1031 q 165 1161 132 1111 q 256 1211 197 1211 q 360 1178 293 1211 q 447 1146 426 1146 q 489 1207 489 1146 l 593 1207 q 465 1026 589 1026 z "},"˝":{"ha":703,"x_min":72,"x_max":653,"o":"m 214 835 l 72 835 l 219 1036 l 383 968 l 214 835 m 483 835 l 342 835 l 489 1036 l 653 968 l 483 835 z "},"π":{"ha":1036,"x_min":42,"x_max":999,"o":"m 42 518 q 103 677 42 615 q 282 739 165 739 l 999 739 l 999 600 l 838 600 l 838 0 l 682 0 l 682 600 l 469 600 q 435 278 464 463 q 371 0 407 94 l 217 0 q 283 291 254 113 q 314 600 311 469 l 292 600 q 208 572 239 600 q 176 508 176 544 q 188 447 176 472 l 71 399 q 42 518 42 457 z "},"–":{"ha":747,"x_min":114,"x_max":633,"o":"m 114 314 l 114 407 l 633 407 l 633 314 l 114 314 z "},"—":{"ha":1007,"x_min":114,"x_max":893,"o":"m 114 315 l 114 407 l 893 407 l 893 315 l 114 315 z "},"‘":{"ha":300,"x_min":49,"x_max":240,"o":"m 186 860 q 225 792 225 835 q 200 726 225 750 q 138 701 175 701 q 74 725 100 701 q 49 787 49 749 q 74 861 49 825 l 156 979 l 240 979 l 186 860 z "},"’":{"ha":301,"x_min":49,"x_max":240,"o":"m 101 814 q 64 880 64 836 q 89 948 64 924 q 151 972 114 972 q 215 949 189 972 q 240 887 240 925 q 215 813 240 849 l 133 694 l 49 694 l 101 814 z "},"‚":{"ha":301,"x_min":49,"x_max":240,"o":"m 101 7 q 64 74 64 31 q 89 141 64 117 q 151 165 114 165 q 215 142 189 165 q 240 80 240 118 q 215 6 240 42 l 133 -112 l 49 -112 l 101 7 z "},"“":{"ha":514,"x_min":49,"x_max":453,"o":"m 186 860 q 225 792 225 835 q 200 726 225 750 q 138 701 175 701 q 74 725 100 701 q 49 787 49 749 q 74 861 49 825 l 156 979 l 240 979 l 186 860 m 399 860 q 438 792 438 835 q 413 726 438 750 q 350 701 388 701 q 287 725 313 701 q 261 787 261 749 q 286 861 261 825 l 368 979 l 453 979 l 399 860 z "},"”":{"ha":513,"x_min":49,"x_max":451,"o":"m 101 814 q 64 880 64 836 q 89 948 64 924 q 151 972 114 972 q 215 949 189 972 q 240 887 240 925 q 215 813 240 849 l 133 694 l 49 694 l 101 814 m 313 814 q 275 880 275 836 q 300 948 275 924 q 363 972 325 972 q 426 949 400 972 q 451 887 451 925 q 426 813 451 849 l 344 694 l 260 694 l 313 814 z "},"„":{"ha":513,"x_min":49,"x_max":451,"o":"m 101 7 q 64 74 64 31 q 89 141 64 117 q 151 165 114 165 q 215 142 189 165 q 240 80 240 118 q 215 6 240 42 l 133 -112 l 49 -112 l 101 7 m 313 7 q 275 74 275 31 q 300 141 275 117 q 363 165 325 165 q 426 142 400 165 q 451 80 451 118 q 426 6 451 42 l 344 -112 l 260 -112 l 313 7 z "},"†":{"ha":726,"x_min":50,"x_max":678,"o":"m 286 -269 l 286 544 l 50 544 l 50 686 l 286 686 l 286 974 l 433 974 l 433 686 l 678 686 l 678 544 l 433 544 l 433 -269 l 286 -269 z "},"‡":{"ha":718,"x_min":53,"x_max":667,"o":"m 431 544 l 431 218 l 579 218 l 579 104 l 431 104 l 431 -269 l 283 -269 l 283 104 l 131 104 l 131 218 l 283 218 l 283 544 l 53 544 l 53 686 l 283 686 l 283 974 l 431 974 l 431 686 l 667 686 l 667 544 l 431 544 z "},"•":{"ha":594,"x_min":118,"x_max":476,"o":"m 171 313 q 144 339 171 313 q 118 439 118 365 q 171 565 118 513 q 297 618 224 618 q 424 565 371 618 q 476 439 476 513 q 424 313 476 365 q 297 260 371 260 q 171 313 224 260 z "},"…":{"ha":969,"x_min":92,"x_max":879,"o":"m 122 19 q 107 35 122 19 q 92 93 92 50 q 122 166 92 136 q 194 196 151 196 q 268 166 238 196 q 299 93 299 136 q 268 19 299 50 q 194 -11 238 -11 q 122 19 151 -11 m 412 19 q 397 35 412 19 q 382 93 382 50 q 412 166 382 136 q 485 196 442 196 q 558 166 528 196 q 589 93 589 136 q 558 19 589 50 q 485 -11 528 -11 q 412 19 442 -11 m 702 19 q 687 35 702 19 q 672 93 672 50 q 702 166 672 136 q 775 196 732 196 q 849 166 818 196 q 879 93 879 136 q 849 19 879 50 q 775 -11 818 -11 q 702 19 732 -11 z "},"‰":{"ha":1619,"x_min":67,"x_max":1569,"o":"m 426 926 q 456 893 426 926 q 486 769 486 861 q 426 613 486 678 q 276 547 365 547 q 126 612 186 547 q 67 768 67 676 q 127 925 67 860 q 277 990 188 990 q 426 926 367 990 m 992 971 l 281 0 l 101 0 l 813 971 l 992 971 m 333 697 q 344 711 333 697 q 356 767 356 725 q 332 837 356 808 q 274 865 308 865 q 218 837 240 865 q 196 767 196 808 q 219 697 196 725 q 277 668 243 668 q 333 697 311 668 m 978 367 q 1008 335 978 367 q 1038 211 1038 303 q 977 54 1038 119 q 827 -11 917 -11 q 678 53 738 -11 q 618 210 618 118 q 678 367 618 301 q 828 432 739 432 q 978 367 918 432 m 888 135 q 899 150 888 135 q 910 206 910 164 q 886 276 910 247 q 828 304 863 304 q 772 276 794 304 q 750 206 750 247 q 774 135 750 164 q 831 107 797 107 q 888 135 865 107 m 1510 367 q 1540 335 1510 367 q 1569 211 1569 303 q 1509 54 1569 119 q 1359 -11 1449 -11 q 1210 53 1269 -11 q 1150 210 1150 118 q 1210 367 1150 301 q 1360 432 1271 432 q 1510 367 1450 432 m 1419 135 q 1431 150 1419 135 q 1442 206 1442 164 q 1418 276 1442 247 q 1360 304 1394 304 q 1304 276 1326 304 q 1282 206 1282 247 q 1306 135 1282 164 q 1363 107 1329 107 q 1419 135 1397 107 z "},"‹":{"ha":485,"x_min":78,"x_max":393,"o":"m 393 578 l 233 333 l 393 89 l 243 89 l 78 333 l 243 578 l 393 578 z "},"›":{"ha":485,"x_min":92,"x_max":407,"o":"m 251 333 l 92 578 l 242 578 l 407 333 l 242 89 l 92 89 l 251 333 z "},"⁄":{"ha":882,"x_min":-3,"x_max":888,"o":"m 888 971 l 176 0 l -3 0 l 708 971 l 888 971 z "},"€":{"ha":1057,"x_min":72,"x_max":994,"o":"m 72 546 l 72 665 l 217 665 q 379 904 263 814 q 644 994 496 994 q 994 835 865 994 l 896 710 q 780 801 835 775 q 644 828 725 828 q 499 785 564 828 q 403 665 435 743 l 733 665 l 733 546 l 374 546 q 372 495 372 529 q 376 431 372 461 l 733 431 l 733 311 l 414 311 q 640 167 489 167 q 769 195 715 167 q 882 285 822 224 l 981 165 q 640 6 851 6 q 384 88 496 6 q 224 311 272 171 l 72 311 l 72 431 l 197 431 q 193 497 193 464 q 194 546 193 531 l 72 546 z "},"™":{"ha":1389,"x_min":82,"x_max":1271,"o":"m 350 883 l 350 403 l 254 403 l 254 883 l 82 883 l 82 971 l 522 971 l 522 883 l 350 883 m 725 403 l 629 403 l 629 971 l 779 971 l 950 614 l 1122 971 l 1271 971 l 1271 403 l 1175 403 l 1175 846 l 976 451 l 922 451 l 725 846 l 725 403 z "},"Ω":{"ha":1258,"x_min":75,"x_max":1183,"o":"m 265 851 q 339 923 265 851 q 629 994 413 994 q 993 851 846 994 q 1140 502 1140 707 q 978 154 1140 297 l 1183 154 l 1183 0 l 719 0 l 719 153 q 902 277 832 183 q 972 492 972 371 q 873 742 972 639 q 629 844 774 844 q 385 742 485 844 q 286 492 286 639 q 356 277 286 371 q 539 153 426 183 l 539 0 l 75 0 l 75 154 l 281 154 q 118 502 118 297 q 265 851 118 707 z "},"∂":{"ha":857,"x_min":67,"x_max":774,"o":"m 653 879 q 742 725 710 822 q 774 510 774 628 q 754 305 774 393 q 693 144 735 217 q 576 30 651 71 q 400 -11 501 -11 q 162 88 257 -11 q 67 328 67 186 q 163 544 67 469 q 369 618 258 618 q 515 589 451 618 q 610 522 579 560 q 554 761 610 663 q 364 851 503 851 q 281 836 322 851 q 219 806 239 821 l 199 790 l 113 897 q 390 990 238 990 q 653 879 543 990 m 386 481 q 269 436 317 481 q 221 315 221 392 q 269 189 221 238 q 399 140 317 140 q 538 196 482 140 q 604 342 593 251 l 607 378 q 386 481 515 481 z "},"∆":{"ha":1097,"x_min":42,"x_max":1056,"o":"m 628 971 l 1056 0 l 42 0 l 469 971 l 628 971 m 286 154 l 811 151 l 549 743 l 286 154 z "},"∏":{"ha":1113,"x_min":128,"x_max":985,"o":"m 985 -294 l 813 -294 l 813 938 l 300 938 l 300 -294 l 128 -294 l 128 1094 l 985 1094 l 985 -294 z "},"∑":{"ha":976,"x_min":51,"x_max":921,"o":"m 921 -294 l 51 -294 l 51 -171 l 472 408 l 69 971 l 69 1094 l 893 1094 l 893 938 l 318 938 l 689 410 l 292 -137 l 921 -137 l 921 -294 z "},"−":{"ha":789,"x_min":67,"x_max":722,"o":"m 67 603 l 722 603 l 722 472 l 67 472 l 67 603 z "},"√":{"ha":996,"x_min":33,"x_max":989,"o":"m 33 432 l 33 569 l 288 569 l 481 -35 l 832 1051 l 989 1051 l 574 -217 l 385 -217 l 174 432 l 33 432 z "},"∞":{"ha":1206,"x_min":99,"x_max":1107,"o":"m 875 613 q 1044 542 981 613 q 1107 363 1107 471 q 1042 185 1107 256 q 869 114 976 114 q 718 161 783 114 q 603 268 674 194 q 493 165 532 194 q 326 114 422 114 q 164 185 229 114 q 99 363 99 256 q 162 542 99 471 q 331 613 225 613 q 474 569 413 613 q 603 447 536 526 q 731 569 669 526 q 875 613 793 613 m 331 488 q 254 453 283 488 q 225 366 225 418 q 255 278 225 314 q 335 243 285 243 q 522 360 418 243 q 331 488 401 488 m 871 243 q 951 278 921 243 q 981 366 981 314 q 951 453 981 418 q 875 488 922 488 q 683 360 804 488 q 871 243 788 243 z "},"∫":{"ha":539,"x_min":18,"x_max":517,"o":"m 499 1063 q 444 1076 471 1076 q 397 1068 417 1076 q 364 1040 376 1060 q 344 1002 351 1021 q 333 947 336 983 q 329 803 329 894 q 340 485 329 711 q 350 157 350 260 q 340 -8 350 54 q 307 -124 331 -69 q 124 -236 258 -236 q 18 -212 60 -236 l 40 -83 q 108 -100 74 -100 q 165 -82 142 -100 q 200 -25 189 -64 q 215 158 215 35 q 204 501 215 282 q 193 821 193 721 q 203 983 193 921 q 239 1099 214 1046 q 432 1206 292 1206 q 517 1188 483 1206 l 499 1063 z "},"≈":{"ha":961,"x_min":124,"x_max":838,"o":"m 838 836 q 781 643 838 711 q 636 575 725 575 q 544 592 583 575 q 421 660 504 608 q 344 686 375 686 q 296 663 314 686 q 271 581 278 639 l 124 581 q 180 774 124 706 q 325 842 236 842 q 417 825 376 842 q 520 769 457 808 q 615 731 583 731 q 665 754 647 731 q 690 836 683 778 l 838 836 m 838 525 q 781 332 838 400 q 636 264 725 264 q 544 281 583 264 q 421 349 504 297 q 344 375 375 375 q 296 351 314 375 q 271 269 278 328 l 124 269 q 180 463 124 394 q 325 531 236 531 q 417 514 376 531 q 520 458 457 497 q 615 419 583 419 q 665 443 647 419 q 690 525 683 467 l 838 525 z "},"≠":{"ha":882,"x_min":89,"x_max":789,"o":"m 89 463 l 353 463 l 417 600 l 89 600 l 89 750 l 486 750 l 590 972 l 729 972 l 625 750 l 789 750 l 789 600 l 556 600 l 492 463 l 789 463 l 789 313 l 421 313 l 318 90 l 179 90 l 282 313 l 89 313 l 89 463 z "},"≤":{"ha":854,"x_min":93,"x_max":749,"o":"m 93 464 l 93 639 l 747 942 l 747 783 l 258 563 l 258 547 l 747 321 l 747 163 l 93 464 m 93 64 l 749 64 l 749 -72 l 93 -72 l 93 64 z "},"≥":{"ha":854,"x_min":106,"x_max":761,"o":"m 761 639 l 761 464 l 107 163 l 107 321 l 596 547 l 596 563 l 107 783 l 107 942 l 761 639 m 106 64 l 761 64 l 761 -72 l 106 -72 l 106 64 z "},"◊":{"ha":903,"x_min":126,"x_max":776,"o":"m 126 46 l 126 650 l 776 650 l 776 46 l 126 46 z "},"ﬁ":{"ha":917,"x_min":56,"x_max":826,"o":"m 304 800 l 304 739 l 499 739 l 499 614 l 304 614 l 304 0 l 149 0 l 149 614 l 56 614 l 56 739 l 149 739 l 149 796 q 219 981 149 913 q 388 1050 289 1050 q 569 976 488 1050 l 506 867 q 410 915 460 915 q 332 884 360 915 q 304 800 304 853 m 804 0 l 649 0 l 649 739 l 804 739 l 804 0 m 658 886 q 644 901 658 886 q 629 956 629 915 q 658 1025 629 996 q 728 1054 688 1054 q 797 1025 768 1054 q 826 956 826 996 q 797 886 826 915 q 728 857 768 857 q 658 886 688 857 z "},"ﬂ":{"ha":917,"x_min":56,"x_max":804,"o":"m 304 800 l 304 739 l 499 739 l 499 614 l 304 614 l 304 0 l 149 0 l 149 614 l 56 614 l 56 739 l 149 739 l 149 796 q 219 981 149 913 q 388 1050 289 1050 q 569 976 488 1050 l 506 867 q 410 915 460 915 q 332 884 360 915 q 304 800 304 853 m 804 0 l 649 0 l 649 1031 l 804 1031 l 804 0 z "}}}
